<svg width="334" height="478" viewBox="0 0 334 478" fill="none" xmlns="http://www.w3.org/2000/svg">
<g filter="url(#filter0_d_545_223)">
<path d="M250.016 161.808C257.562 160.91 264.532 158.404 270.928 154.291C271.113 154.171 271.329 154.105 271.55 154.103C271.77 154.101 271.987 154.162 272.175 154.279C282.969 160.792 294.069 166.722 305.476 172.069C314.503 176.299 326.073 184.545 331.071 193.988C336.044 203.393 334.647 214.145 327.168 221.535C324.382 224.288 319.832 226.794 313.521 229.052C288.504 237.978 258.3 232.652 235.109 221.233C234.69 221.023 234.648 220.759 234.983 220.44C240.07 215.454 249.059 205.256 256.059 204.224C269.95 202.184 283.665 199.305 297.204 195.587C299.269 195.025 301.283 194.152 303.247 192.968C303.298 192.933 303.336 192.882 303.355 192.823C303.373 192.764 303.372 192.7 303.35 192.642C303.328 192.584 303.288 192.535 303.235 192.503C303.182 192.471 303.12 192.457 303.058 192.465C296.503 193.606 289.956 194.735 283.418 195.851C268.939 198.319 254.385 199.603 239.831 201.29C221.399 203.431 208.393 206.364 193.398 214.208C193.223 214.299 193.029 214.35 192.831 214.355C192.633 214.36 192.436 214.319 192.257 214.237C192.077 214.154 191.918 214.031 191.793 213.878C191.668 213.724 191.58 213.544 191.535 213.352C190.024 206.822 186.046 202.805 179.599 201.303C179.482 201.279 179.358 201.298 179.252 201.356C179.146 201.415 179.064 201.508 179.021 201.62C178.978 201.731 178.977 201.854 179.019 201.964C179.06 202.075 179.141 202.166 179.247 202.222C186.197 205.961 187.644 211.916 189.445 219.282C189.562 219.76 189.835 219.878 190.263 219.634C206.895 210.204 226.032 206.251 244.967 205.294C245.049 205.288 245.13 205.307 245.199 205.35C245.269 205.392 245.324 205.455 245.356 205.53C245.387 205.605 245.395 205.688 245.377 205.768C245.36 205.847 245.318 205.919 245.257 205.974C234.06 216.054 223.648 226.928 214.021 238.595C208.783 244.94 204.889 249.066 202.337 250.971C176.93 269.919 139.752 260.225 132.752 227.692C125.424 193.636 168.734 169.274 193.096 157.993C193.423 157.842 193.604 157.59 193.637 157.237L195.11 142.003C195.142 141.648 195.034 141.295 194.808 141.021C173.883 115.954 168.243 75.389 203.42 58.6693C203.856 58.4595 204.012 58.1237 203.886 57.6621C202.476 52.1728 204.033 47.8754 208.557 44.7698C208.867 44.56 208.976 44.2704 208.884 43.9011C207.449 38.3362 200.486 29.6616 194.771 35.5538C184.157 46.5072 172.02 56.8311 155.804 50.662C137.108 43.536 140.306 19.5895 146.147 5.16123C146.374 4.60727 146.496 4.62826 146.513 5.22419C146.664 12.4383 150.932 42.8939 164.756 32.0034C178.34 21.327 179.889 3.48675 199.97 0.50289C212.674 -1.39822 226.195 1.92557 232.969 13.3071C239.453 24.1975 236.494 37.1905 227.908 46.117C227.763 46.2677 227.678 46.4655 227.666 46.6753C227.655 46.8851 227.718 47.0932 227.845 47.2626C229.96 50.0492 230.543 53.1926 229.595 56.6927C229.572 56.7787 229.567 56.8683 229.58 56.9563C229.592 57.0443 229.622 57.1289 229.668 57.2052C229.714 57.2814 229.774 57.3477 229.846 57.4002C229.918 57.4528 229.999 57.4904 230.086 57.511C247.46 61.4979 256.999 72.1323 258.703 89.4144C259.459 97.044 256.185 102.269 261.397 109.193C264.226 112.954 266.778 116.89 269.052 121.003C278.709 138.466 264.369 153.649 249.878 161.342C249.825 161.369 249.782 161.415 249.758 161.471C249.734 161.527 249.73 161.589 249.747 161.645C249.764 161.702 249.801 161.75 249.85 161.78C249.899 161.809 249.958 161.819 250.016 161.808Z" fill="#fff"/>
<path d="M122.138 422.902C96.1515 416.947 95.1443 392.736 120.111 384.288C150.453 374.014 179.171 371.861 193.612 338.158C203.969 313.984 203.562 289.304 192.39 264.115C192.206 263.695 192.315 263.381 192.718 263.171C199.592 259.612 204.796 255.722 208.33 251.5C215.514 242.905 223.006 234.583 230.803 226.533C231.114 226.214 231.479 226.139 231.898 226.307C254.686 235.737 273.773 241.037 298.815 237.436C299.176 237.386 299.377 237.541 299.419 237.902C307.074 312.096 261.951 378.597 184.295 384.514C169.934 385.606 159.018 386.478 151.548 387.133C135.823 388.505 96.4789 397.998 122.339 422.524C122.733 422.893 122.666 423.019 122.138 422.902Z" fill="#fff"/>
</g>
<path d="M69.0336 434.403C58.724 427.089 58.9818 427.333 58.9818 425.383V425.139C59.755 424.164 60.2705 422.945 60.2705 420.995C60.2705 416.607 57.6931 411 54.6002 411C51.5073 411 49.1877 416.607 49.1877 420.995C49.1877 422.945 49.7032 424.164 50.4764 425.139V425.383C50.4764 428.796 48.93 427.333 39.6514 434.646C43.7752 436.109 53.827 439.034 69.0336 434.403Z" fill="#E09E50"/>
<path d="M122.902 433.672C120.582 433.672 118.263 433.428 116.201 432.453C115.943 432.209 115.428 432.209 114.912 432.209C114.912 432.209 100.479 435.622 94.5507 438.304C94.5507 438.304 81.6638 443.911 72.3852 437.085C61.3025 440.741 46.6113 442.448 36.3018 437.085C32.9512 439.766 29.8583 442.448 29.0851 443.423C29.0851 443.667 29.0851 443.667 28.8274 443.911C28.0542 442.692 27.2809 440.498 27.5387 437.816C27.5387 437.816 27.7964 432.209 21.353 430.99C7.69281 428.552 -3.90543 434.647 1.24934 441.96C2.53803 443.667 4.34221 444.886 6.14638 445.373C10.0125 446.592 17.4869 449.03 20.0643 450.493C19.8065 450.493 18.0024 450.493 17.2291 452.199C15.1672 456.343 22.8994 458.537 25.219 456.343C25.7345 455.612 26.7655 455.368 28.0542 455.856C29.0851 457.806 31.147 460 34.2399 461.95C34.2399 461.95 37.8482 464.875 44.8072 466.338C46.8691 466.826 47.1268 466.826 44.8072 466.338C43.003 467.557 40.9411 469.507 40.1679 470.482C38.8792 472.433 35.7863 476.577 54.6012 477.796C73.4162 476.577 70.0656 472.189 69.0346 470.482C68.2614 469.263 65.4263 467.069 63.6221 465.851C63.3644 465.851 63.1066 466.094 63.1066 466.094C54.3435 468.045 56.6632 467.557 63.1066 466.094C63.1066 466.094 63.3644 466.094 63.6221 465.851C87.0763 459.756 104.86 440.985 117.232 438.06C121.098 437.085 122.902 436.353 123.675 435.378C123.933 435.135 123.933 434.891 123.933 434.647C124.191 434.403 123.675 433.672 122.902 433.672ZM10.0125 440.01C7.17733 437.329 11.8166 431.965 17.4869 437.816C19.291 439.766 24.4458 444.398 24.7036 447.323C24.7036 450.249 12.5898 441.96 10.0125 440.01Z" fill="#E09E50"/>
<defs>
<filter id="filter0_d_545_223" x="102" y="0" width="232" height="422.944" filterUnits="userSpaceOnUse" color-interpolation-filters="sRGB">
<feFlood flood-opacity="0" result="BackgroundImageFix"/>
<feColorMatrix in="SourceAlpha" type="matrix" values="0 0 0 0 0 0 0 0 0 0 0 0 0 0 0 0 0 0 127 0" result="hardAlpha"/>
<feOffset/>
<feComposite in2="hardAlpha" operator="out"/>
<feColorMatrix type="matrix" values="0 0 0 0 0.176471 0 0 0 0 0.243137 0 0 0 0 0.305882 0 0 0 1 0"/>
<feBlend mode="normal" in2="BackgroundImageFix" result="effect1_dropShadow_545_223"/>
<feBlend mode="normal" in="SourceGraphic" in2="effect1_dropShadow_545_223" result="shape"/>
</filter>
</defs>
</svg>
