<svg width="208" height="335" viewBox="0 0 208 335" fill="none" xmlns="http://www.w3.org/2000/svg">
<path opacity="0.1" d="M82.5 335C151.812 335 208 278.812 208 209.5C208 140.188 151.812 84 82.5 84C13.1883 84 -43 140.188 -43 209.5C-43 278.812 13.1883 335 82.5 335Z" fill="#2D3E4E"/>
<path opacity="0.7" d="M-7.9543 17.4251C2.36894 9.13526 14.8122 3.9438 27.9426 2.44846C41.0731 0.953108 54.3569 3.21467 66.2644 8.97275C78.1719 14.7308 88.2191 23.7513 95.2489 34.9954C102.279 46.2396 106.005 59.2503 106 72.5294C105.994 85.8085 102.257 98.8161 95.2178 110.054C88.1786 121.293 78.124 130.305 66.2117 136.053C54.2993 141.801 41.0137 144.051 27.8845 142.545C14.7553 141.039 2.31637 135.837 -7.99998 127.538" stroke="#2D3E4E" stroke-width="4" stroke-miterlimit="10" stroke-dasharray="9 9"/>
</svg>
