<svg width="182" height="162" viewBox="0 0 182 162" fill="none" xmlns="http://www.w3.org/2000/svg">
<path fill-rule="evenodd" clip-rule="evenodd" d="M96.1537 39.3511C95.0067 39.1455 94.1223 38.9883 93.2674 38.8351C93.3571 39.4789 93.4293 39.9862 93.527 40.684C92.8038 40.4323 92.3703 40.2815 91.8718 40.1084C92.0473 40.5919 92.2021 41.0213 92.3481 41.4246L91.8012 41.9715C91.3447 41.6516 90.8795 41.3246 90.3286 40.9372L88.4838 42.782C86.5397 42.1779 85.264 42.5566 85.4529 43.5886C85.7554 43.6211 86.0999 43.5687 86.3317 43.7069C86.5445 43.8339 86.6357 44.1649 86.9382 44.669C85.9896 44.7841 85.2092 44.7769 84.5043 45.0008C84.1034 45.1286 83.8216 45.6327 83.3477 46.1066C84.0431 46.2114 84.4091 46.2677 84.748 46.3193C84.9433 48.3182 84.9449 48.3214 83.3691 48.781C83.1707 49.3684 82.75 49.967 82.873 50.4187C83.027 50.9791 83.5795 51.4141 82.7944 51.8102C82.2562 51.6832 81.764 51.5657 81.017 51.3871C81.2433 53.0534 81.4235 54.3846 81.6045 55.7167C81.2068 55.7413 80.9265 55.7595 80.5288 55.7857C80.6947 56.4883 80.8487 57.1392 81.0115 57.8211C80.7582 58.5141 80.4828 59.2722 80.2042 60.0335C80.5765 60.0772 80.8329 60.1065 81.1226 60.1391C80.4939 61.2997 79.9065 62.3809 79.3016 63.497C79.635 63.5129 79.9239 63.5271 80.0827 63.5335C80.6693 64.8838 81.2337 66.1849 81.9156 67.7559C83.027 65.4839 81.5767 63.5891 81.9093 61.637C82.2443 59.689 82.2864 57.6909 82.4753 55.5047L83.4461 56.4756C83.3683 57.9648 83.5017 59.1889 83.1905 60.2859C82.8651 61.4402 83.5581 62.5317 83.1627 63.5795C82.7182 64.7592 83.4358 65.7387 83.4977 66.8184C83.6009 68.6092 84.7901 70.3636 83.6787 72.1243C84.7448 73.4889 85.5069 74.9067 85.5037 76.6928L87.1668 78.3559C86.9834 78.752 86.8247 79.0933 86.6619 79.4466C87.6114 79.5958 88.4258 79.8022 88.4473 80.9826C88.4774 82.6433 89.2593 83.9873 90.4818 85.0177C91.4257 85.8139 91.7893 86.9379 92.4632 87.8754C92.9713 88.5804 93.8762 89.0201 93.804 90.0894C93.7977 90.1736 94.1096 90.2807 94.274 90.3752C94.6137 90.2133 94.9535 90.0513 95.2885 89.891C95.3972 90.3061 95.4202 90.7102 95.6052 91.0142C95.8092 91.3532 96.1347 91.6406 96.4586 91.8803C96.784 92.12 97.2246 92.2161 97.5183 92.4812C97.7724 92.713 97.8176 93.2695 98.0812 93.3775C99.6045 94.0101 100.905 94.9548 102.264 95.8693C103.963 97.014 105.989 97.6181 107.867 97.7411C109.253 95.8891 109.574 93.8855 110.724 92.1685C111.947 90.3442 112.253 87.9318 113.144 85.8559C114.833 81.9225 114.913 77.4914 116.993 73.6826C117.15 73.3952 116.948 72.9102 116.912 72.5172C116.881 72.1862 116.762 71.8361 116.831 71.5281C117.75 67.4391 118.005 63.3009 117.901 59.1198C117.845 56.8606 117.376 54.6942 116.858 52.5152C116.57 51.307 115.841 50.1845 115.779 49.0025C115.668 46.8949 114.359 45.4231 113.304 43.9085C112.158 42.2605 110.587 40.8562 109.018 39.5694C107.391 38.235 105.398 37.4817 103.312 37.1546C102.696 37.0578 102.006 37.5348 101.357 37.5134C100.71 37.492 100.074 37.1752 99.3425 36.9609C99.3013 37.3753 99.2743 37.6404 99.2425 37.9532C98.6845 37.9683 98.0994 37.9849 97.504 38.0008L96.1537 39.3511ZM71.2472 51.4193C72.0323 51.9361 73.4223 51.6019 73.7327 53.0729C73.4628 53.1015 73.2009 53.1284 72.9436 53.1554C73.3739 54.2589 73.0111 55.244 72.5428 56.1109C72.5999 57.8668 72.7301 59.5465 72.688 61.2207C72.6452 62.9767 72.4388 64.7295 72.2991 66.5299C72.1379 66.5386 71.8545 66.5553 71.2742 66.591C72.9095 68.0611 72.9524 69.8997 72.846 71.635C73.4898 71.8421 74.0328 72.0168 74.5773 72.1914C74.7218 72.0485 74.8655 71.9049 75.0933 71.677C74.7885 71.2277 74.4694 70.7578 74.0598 70.1545C75.2553 69.2733 75.137 68.0389 74.8703 66.6894C74.4408 66.614 74.0796 66.5513 73.6708 66.4806C74.5408 65.0962 74.9012 63.7245 74.6536 61.9923C74.1582 58.5281 74.806 55.0654 75.4791 51.6535C75.5911 51.0828 76.0697 50.5866 76.6707 49.5554C75.4418 49.8841 74.7956 50.0555 74.2281 50.2072C74.3098 50.7557 74.3821 51.2487 74.4932 51.9933C73.3469 51.4503 72.5094 51.0526 71.6711 50.6541C72.0236 49.5046 72.3753 48.356 72.7452 47.1509C73.0056 47.1192 73.2953 47.085 73.6176 47.0469C74.1026 44.39 76.0864 42.484 77.5105 40.166C77.8305 40.062 78.3726 39.8882 78.914 39.7136L79.8865 40.686C80.1548 40.4939 80.4421 40.2891 81.0407 39.862C80.2881 39.5254 79.8246 39.3174 79.3483 39.1047C79.3475 38.8689 79.3483 38.5633 79.3475 38.2672C80.381 37.1606 81.5773 38.0505 82.9467 37.9719C82.5712 37.4424 82.2735 37.0225 81.8591 36.4382C82.8554 34.9339 84.7868 34.9538 86.0894 34.0067C86.5642 34.3909 86.942 34.6958 87.7946 35.3832C87.4874 34.4155 87.3151 33.8734 87.2429 33.6487L89.1409 31.7507C89.26 32.1873 89.3433 32.4865 89.5188 33.1319C89.8681 32.5588 90.0879 32.1944 90.5134 31.4943C90.2753 31.6387 90.3896 31.5324 90.5246 31.4927C92.8005 30.8251 95.0502 30.0408 97.3602 29.5327C100.491 28.8453 103.714 28.5992 106.889 28.9461C109.575 29.2398 112.198 30.0598 114.927 30.2098C115.477 30.2408 116.011 30.5433 116.585 30.7314C116.586 30.8259 116.585 31.0299 116.584 31.4958C117.635 31.0569 118.629 31.2799 119.504 31.8261C122.49 33.6908 122.479 33.7082 122.992 35.0982C124.175 35.6158 125.194 36.0619 126.201 36.5017C125.976 37.1741 125.832 37.6051 125.634 38.2021C126.179 38.3244 126.636 38.4276 126.837 38.4728C128.249 40.5296 129.552 42.4284 130.878 44.359C130.597 44.7099 130.294 45.0878 129.89 45.5926C131.433 46.9572 131.346 48.8545 131.292 51.0208C132.025 50.8121 132.514 50.6739 133.175 50.4858C133.305 51.0486 133.429 51.5956 133.62 52.4227C133.106 52.1695 132.813 52.025 132.408 51.825C132.197 52.3354 131.731 52.9109 131.784 53.4349C131.957 55.1638 132.275 56.8825 132.636 58.5836C132.728 59.0163 133.187 59.3695 133.262 59.468C133.175 60.9183 132.761 62.2027 133.105 63.2331C134.048 66.0456 133.033 68.6287 132.594 71.2873C132.473 72.0247 132.208 72.7384 132 73.4989C131.74 73.3766 131.399 73.2163 131.035 73.0448C130.981 73.1924 130.844 73.4314 130.887 73.4695C131.525 74.0347 132.082 74.6158 131.504 75.8494L130.245 77.1092C130.341 78.0991 130.457 79.3033 130.574 80.4996C129.902 80.868 129.408 81.1403 128.835 81.4546C129.631 83.6591 128.358 85.6119 127.539 87.7052C127.246 87.7378 126.956 87.7695 126.585 87.81C126.564 88.6507 126.541 89.5263 126.517 90.4209L124.808 92.1308C125.205 93.2779 125.413 94.3511 123.947 94.8997C123.713 96.1166 123.48 97.3343 123.264 98.4663C125.333 97.894 127.584 97.27 129.902 96.6286C129.949 96.3468 129.996 96.0634 130.046 95.7626C130.734 95.4061 131.449 95.0362 132.154 94.671L132.626 95.1434C132.77 95.0696 133.029 94.9798 133.021 94.933C132.871 94.0368 133.607 93.6637 134.11 93.2469C134.762 92.7039 135.583 92.3689 136.282 91.876C136.926 91.4227 137.433 90.6829 138.13 90.4233C139.089 90.0676 138.907 89.069 139.535 88.4847C140.236 87.8346 141.314 87.6981 141.768 86.5986C142.127 85.7278 143.078 85.0872 143.802 84.383C146.061 82.1897 147.563 79.4827 149.07 76.7686C149.996 75.1048 151.144 73.5544 151.962 71.8413C153.262 69.1225 154.518 66.3608 155.489 63.5149C155.945 62.1781 157.185 61.0882 156.864 59.4822C156.765 58.9877 157.797 58.5709 156.966 57.9279C156.827 57.8216 157.228 57.1 157.273 56.6538C157.332 56.0466 157.247 55.4274 157.297 54.8185C157.387 53.6738 157.531 52.5331 157.683 51.1105L159.382 52.8093C159.015 54.1191 159.015 54.1191 160.042 56.7173L161.115 55.6441C160.329 53.9231 160.997 51.9853 160.675 50.0952C161.055 50.1063 161.358 50.1159 161.878 50.1325C162.096 50.7684 162.349 51.5035 162.66 52.4116C162.89 52.1544 163.315 51.894 163.311 51.6392C163.302 50.9168 163.116 50.1976 162.923 48.9982C163.717 49.4411 164.16 49.6888 164.7 49.9889C165.295 49.8746 166.034 49.7324 167.134 49.5205C166.689 50.5461 166.357 51.3138 166.022 52.0854C166.496 52.3394 167.049 52.6347 167.724 52.9951C167.587 53.8524 167.456 54.6645 167.278 55.7679C167.973 55.5703 168.465 55.4321 168.99 55.2829C168.972 56.0108 168.956 56.7189 168.94 57.3961C168.527 57.512 168.086 57.6366 167.147 57.9009C167.973 58.3947 168.402 58.6511 168.8 58.8885C168.74 59.2052 168.658 59.6434 168.59 60.007C168.532 59.9681 168.293 59.8125 167.861 59.5275C167.622 60.7349 167.397 61.8804 167.165 63.0608C167.533 63.0783 167.821 63.0934 167.71 63.087C167.839 63.8864 167.968 64.6771 168.116 65.6003C167.557 65.6519 167.185 65.6868 166.815 65.7209C166.991 66.3671 167.165 67.0125 167.344 67.6745L166.164 68.855C165.777 70.7419 165.556 72.478 165.043 74.1228C164.586 75.5922 162.914 76.49 162.897 78.3928C162.316 78.3754 161.716 78.3579 161.072 78.338C160.789 78.6643 160.476 79.0247 159.861 79.7336C160.758 79.4081 161.181 79.2533 161.745 79.0477C161.038 81.1426 161.364 83.6694 158.587 84.4878C158.587 84.9228 158.587 85.4341 158.586 85.9937C158.317 86.0159 158.045 86.039 157.577 86.0771C157.338 87.5417 156.505 88.63 154.76 88.8697C154.717 89.5699 154.676 90.2462 154.629 91.0123C154.124 91.2774 153.622 91.5402 153.002 91.8665C152.959 92.0252 152.969 92.4944 152.743 92.6952C152.493 92.9183 151.965 92.8048 151.666 93.0024C151.248 93.2755 150.93 93.7018 150.57 94.0622C150.281 94.3511 150.032 94.7076 149.692 94.9084C149.377 95.0949 148.962 95.1156 148.406 95.2561C148.572 97.7781 145.754 97.166 144.637 99.2538C144.408 97.8821 144.288 97.1589 144.168 96.4373C143.416 96.4643 143.043 97.8075 143.331 99.5864C143.025 99.3872 142.786 99.2324 142.493 99.0427C141.173 99.072 141.491 100.473 140.89 101.17C140.296 101.188 139.699 101.205 139.114 101.222C139.096 101.505 139.077 101.787 139.054 102.17C138.742 101.993 138.496 101.853 138.072 101.612C136.227 102.624 134.251 103.724 132.227 104.721C131.23 105.21 130.6 105.02 129.984 104.746C129.376 105.331 128.892 106.213 128.259 106.339C124.747 107.037 121.197 107.541 117.665 108.141C117.112 108.234 116.593 108.509 116.047 108.66C115.396 108.839 114.732 108.976 113.992 109.15C114.1 109.36 114.26 109.672 114.531 110.198C113.297 111.172 112.563 112.817 110.693 113.144C110.466 113.863 110.237 114.587 109.991 115.37C107.818 115.749 107.26 118.603 105.127 118.989C104.782 119.611 104.465 120.181 104.117 120.809C103.657 120.583 103.319 120.418 102.957 120.241C102.615 121.541 101.668 122.038 100.501 122.625C99.3996 123.18 98.5422 124.213 97.1419 124.148C97.1276 124.339 97.1125 124.529 97.0832 124.925C96.8371 124.963 96.5362 125.006 96.0559 125.079C95.9543 125.377 95.8337 125.734 95.7321 126.034C94.5572 126.752 93.4117 127.558 92.1749 128.183C89.6482 129.462 87.4683 131.407 84.5605 131.989C83.5817 132.185 82.6776 132.864 81.7932 133.408C76.6056 136.602 70.8138 138.048 64.9506 139.31C61.634 140.023 58.2936 140.347 54.8999 140.183C53.7918 140.129 52.605 139.988 51.5833 140.305C50.4696 140.65 49.5813 139.986 48.5192 140.122C45.6455 140.491 42.8425 139.596 40.0133 139.252C37.2635 138.917 34.539 138.255 31.8551 137.544C29.0227 136.793 26.0975 136.124 23.4953 134.844C21.0416 133.638 18.3204 132.903 16.1445 131.124C15.8801 130.908 15.2959 131.06 15.0593 130.833C13.713 129.541 11.8657 129.062 10.4392 127.942C9.40408 127.127 8.54516 126.089 7.44571 124.99C7.49095 124.365 7.5489 123.575 7.61797 122.612C8.4761 122.141 9.47156 121.595 10.3797 121.098C10.7282 121.32 10.9687 121.471 11.2275 121.635L12.0785 120.784C12.9993 120.902 13.8876 120.891 14.6862 121.152C15.4824 121.413 16.3326 121.804 16.9129 122.384C19.0356 124.509 21.964 125.018 24.5138 126.25C26.3666 127.145 28.3575 127.785 30.2413 128.675C31.2542 129.154 32.456 129.246 33.5817 129.472C36.1211 129.979 38.5979 130.76 41.1786 131.096C42.6035 131.281 43.9927 131.802 45.4177 131.913C48.512 132.155 51.6214 132.364 54.7237 132.348C61.2648 132.316 67.4972 130.6 73.6057 128.442C74.9266 127.975 76.107 127.076 77.3073 126.304C78.9101 125.275 80.8637 124.953 82.3616 123.72C84.5264 121.94 87.2786 121.034 89.2989 119.007C90.0316 118.273 91.0469 117.826 91.9066 117.209C92.7671 116.593 93.1982 115.469 94.5389 115.366C94.9962 115.333 95.4558 114.406 95.7876 113.817C96.7482 112.115 97.75 111.172 99.5972 110.395C99.6671 110.019 99.7369 109.643 99.8354 109.111C100.209 109.072 100.583 109.016 100.959 109C101.259 108.987 101.562 109.023 101.749 109.031C101.724 108.289 101.7 107.594 101.666 106.656C100.509 106.247 99.0757 105.795 97.6888 105.234C96.2909 104.668 94.9644 103.922 93.5562 103.386C92.2353 102.882 90.9985 102.304 89.4513 101.2C89.5616 101.201 89.0504 101.199 88.4415 101.2C87.6326 100.391 86.8063 99.4951 85.9029 98.687C85.2631 98.1139 84.8844 97.1764 83.7238 97.2462C83.3801 97.2677 82.7816 96.6643 82.6672 96.2468C82.1513 94.3607 80.4707 93.466 79.353 92.1022C78.3615 90.8916 77.4304 89.635 77.6495 87.7933C76.6627 86.9431 75.8332 85.912 75.4196 84.5458C75.1505 83.6559 74.2503 82.8605 74.2352 82.0119C74.2154 80.9124 73.3628 80.4679 73.0889 79.7034C72.5078 78.084 71.2417 76.5019 72.5269 74.507C71.8736 74.4173 71.4989 74.3665 71.0599 74.307C71.148 73.7648 71.2401 73.2012 71.4203 72.0954C71.2695 71.7524 70.8932 70.8999 70.3089 69.5758C70.1756 67.9484 69.5818 65.7035 69.9398 63.6244C70.2923 61.5795 69.9041 59.6164 70.1168 57.6461C70.3431 55.5528 70.8591 53.492 71.2472 51.4193Z" fill="#FFECD7"/>
</svg>
