<svg width="70" height="93" viewBox="0 0 70 93" fill="none" xmlns="http://www.w3.org/2000/svg">
<path fill-rule="evenodd" clip-rule="evenodd" d="M28.5432 20.9158C28.5388 21.8238 26.7636 22.5037 28.1966 23.6155C28.2962 23.6942 28.314 24.0906 28.2198 24.1781C27.0626 25.2633 27.7138 26.6376 27.6595 27.8645C27.5554 30.2731 27.6916 32.6905 27.6119 35.1012C27.531 37.5363 27.8123 39.9526 27.1224 42.4177C26.6263 44.1883 26.8555 46.2303 27.0715 48.1151C27.304 50.1327 26.2421 51.9566 26.4458 53.9C26.7293 56.5854 25.4381 59.1191 25.8157 61.7945C25.8301 61.893 25.8489 62.0082 25.8124 62.0946C24.6574 64.8453 24.7737 67.8618 24.0173 70.6978C23.7339 71.762 22.9133 72.7818 23.6154 73.9745C24.4548 74.3388 25.0417 73.6223 25.7482 73.4928C27.8943 73.0986 29.9562 72.2647 32.1721 72.2381C32.8077 71.0078 34.1365 71.9015 35.1177 71.2813C35.9449 70.7598 37.2615 70.5117 38.3645 70.494C39.4696 70.4774 40.2957 69.463 41.4308 69.834C42.5315 68.6292 44.1339 69.3379 45.5048 68.7455C47.9566 67.6857 50.6597 67.1686 53.2277 66.2949C54.716 65.7877 55.7082 64.9826 56.5022 64.2008C56.8831 62.4445 56.2242 61.1876 55.5698 60.0924C53.778 57.0926 51.9608 54.0739 49.8169 51.3254C46.4616 47.0254 43.3864 42.5361 40.278 38.0679C37.7344 34.4124 35.2838 30.6928 32.811 26.9886C31.4356 24.93 30.3958 22.6388 28.5432 20.9158ZM55.1229 76.4664C54.4485 77.1419 53.8782 77.7111 53.309 78.2803C53.2381 78.216 53.1672 78.1496 53.0964 78.0854C52.9546 77.9613 52.7055 77.7122 52.6844 77.731C50.5981 79.484 47.513 78.1463 45.4588 80.0554C45.1089 79.7985 44.7047 79.1828 44.2728 79.5294C43.47 80.1728 42.7812 80.433 41.9706 79.6434C41.8222 79.4984 41.6107 79.5227 41.5553 79.7808C41.2541 81.1838 40.2863 80.907 39.2332 80.9468C38.2564 80.9856 37.3174 81.6223 36.334 81.9036C33.7018 82.6577 30.878 82.6278 28.3443 83.7529C27.5282 84.115 27.021 82.7585 26.041 83.6433C25.587 84.0541 24.6524 84.6 23.638 84.3752C22.8285 84.197 22.0877 84.899 21.1918 85.0186C19.5584 85.2357 18.2296 86.239 17.6549 87.9465C17.5131 87.8048 17.3714 87.663 17.2307 87.5224C16.047 87.92 15.7413 88.5412 16.7302 89.4913C16.4445 89.7759 16.1599 90.0605 15.8731 90.3484C15.6605 90.158 15.4479 89.9675 15.243 89.7848C14.2021 90.2709 14.4568 92.0183 13.2575 92.1158C12.2653 92.1977 11.3916 92.4635 10.6219 92.8444C9.65076 92.4192 10.5234 91.4181 9.83127 90.9951C9.44258 91.2421 9.22775 91.8677 8.39611 91.3849C8.30973 90.6341 7.95648 89.6995 8.86674 88.8944C7.83578 88.137 6.68854 87.9299 5.4062 87.9166C4.05853 87.9044 2.77951 87.5567 2.24243 85.9953C1.83713 84.816 0.0409728 84.8503 0 83.2158C0.0719793 83.1151 0.290132 82.8083 0.490567 82.4883C1.25798 81.2591 2.14388 80.3289 3.81047 79.9524C6.42166 79.3622 8.83906 77.8428 11.4558 77.3744C13.6617 76.978 13.8477 75.431 14.2729 74.0235C14.5664 73.0557 14.7591 71.9583 14.861 70.965C15.1766 67.8931 16.2928 64.9375 16.1533 61.8125C17.3935 59.7683 16.3603 57.4151 17.079 55.2557C17.7789 53.1584 16.9218 50.8296 17.429 48.7433C18.3658 44.894 17.8188 41.0437 17.9383 37.2011C18.0568 33.3796 17.9638 29.5525 17.9638 25.7287C17.9638 21.8042 18.3868 17.8199 17.8464 13.9706C17.3027 10.1026 17.5574 6.28324 17.3359 2.50931C18.254 1.5913 19.1077 0.737511 19.8452 0C20.4421 0.596875 21.0456 1.20039 21.6912 1.84488C22.5317 0.654458 23.6147 0.738618 24.3124 1.05533C27.1849 2.3576 29.6876 4.03527 31.3088 7.00968C33.7827 11.5521 36.591 15.9152 39.3096 20.3236C41.3936 23.7067 43.6294 27.0066 45.8973 30.228C48.8197 34.3773 51.5748 38.6817 54.9401 42.5287C56.2601 44.038 57.0176 46.0756 58.6432 47.2793C59.4538 47.8806 58.2313 49.2449 59.7938 49.3413C60.7959 49.4033 60.6586 50.7532 61.3341 51.2891C62.1126 51.907 62.457 52.8849 63.096 53.5504C63.7316 54.2126 63.767 55.1683 64.5245 55.7164C65.2343 56.2291 65.5621 57.084 66.0692 57.7706C67.2541 59.3785 68.2718 61.0805 69.2131 62.8235C70.3393 64.9109 70.2208 67.0559 69.0868 69.1334C68.9517 69.3803 68.8067 69.7192 68.6705 69.8476C67.9618 70.5209 68.4711 71.7778 67.7857 72.182C66.0848 73.1863 64.6562 74.74 62.7161 75.2007C61.7461 75.4299 60.9454 75.8418 60.147 76.308C59.363 76.7676 58.4649 76.1907 57.6311 76.8617C57.0508 77.3279 55.9479 77.4486 55.1229 76.4664Z" fill="#FFECD7"/>
</svg>
