<svg width="292" height="265" viewBox="0 0 292 265" fill="none" xmlns="http://www.w3.org/2000/svg">
<path opacity="0.1" fill-rule="evenodd" clip-rule="evenodd" d="M138.274 94.6003C137.845 94.2001 137.757 93.8834 137.457 93.6705C136.012 92.6447 134.4 91.9248 132.852 91.0924C131.347 90.2842 129.813 89.4906 128.214 88.9059C126.586 88.3099 125.251 87.2201 123.663 86.5394C121.652 85.677 119.732 84.6626 117.572 84.1381C116.387 83.8499 115.198 84.3226 114.06 83.8728C113.935 83.8243 113.797 83.8032 113.662 83.7907C113.489 83.7754 113.265 83.7186 113.35 84.1284C114.699 84.4794 116.082 84.87 117.44 85.3082C119.484 85.9688 121.516 86.6101 123.512 87.4215C124.348 87.7609 125.171 88.1245 125.927 88.5746C126.759 89.0702 127.694 89.2633 128.538 89.7354C130.682 90.9344 132.826 92.1368 135.035 93.2244C135.989 93.6948 136.771 94.5137 138.274 94.6003ZM148.767 217.87C149.311 218.773 149.954 219.402 150.552 219.794C152.38 220.992 154.275 222.08 156.07 223.336C158.472 225.019 160.881 226.716 163.421 228.171C164.756 228.937 166.035 230.128 167.923 229.832C166.427 228.733 165.073 227.544 163.544 226.66C161.264 225.344 159.102 223.868 156.955 222.358C156.087 221.748 155.268 220.997 154.306 220.609C153.223 220.173 152.331 219.52 151.378 218.904C150.611 218.407 149.865 217.677 148.767 217.87ZM322.29 222.611C322.651 222.373 322.764 222.299 322.877 222.224C323.166 222.932 324.102 223.381 323.603 224.367C324.112 224.472 324.502 224.603 324.898 224.622C325.408 224.645 325.57 225.023 325.76 225.361C326.021 225.827 325.402 225.928 325.326 226.264C326.056 226.647 326.778 227.028 327.498 227.407C327.29 227.819 326.616 227.241 326.546 228.175C327.425 228.078 327.24 229.292 328.132 229.478C328.377 229.264 328.648 229.072 328.861 228.831C329.119 228.54 328.497 228.321 328.714 228.017C328.985 227.904 329.278 228.116 329.476 227.856C328.985 227.829 328.851 226.806 328.112 227.395C327.636 226.656 327.025 225.972 326.725 225.17C326.422 224.363 325.789 223.861 325.365 223.182C324.899 222.436 324.529 221.559 323.884 221.018C323.209 220.45 322.834 219.701 322.256 219.091C321.726 218.531 321.245 217.914 320.812 217.276C320.332 216.568 319.696 215.974 319.122 215.391C318.581 214.842 318.189 214.11 317.252 213.298C318.031 216.248 320.322 217.912 320.769 220.376C321.236 220.679 321.773 220.496 322.067 220.806C322.138 221.378 322.199 221.873 322.29 222.611ZM152.62 30.1392C153.227 30.9699 153.951 30.1284 154.633 30.3164C157.729 31.1698 161.008 30.9461 164.098 31.8767C164.422 31.974 164.821 32.1663 165.081 32.0592C166.036 31.6677 166.927 32.0046 167.788 32.2549C168.706 32.5221 169.617 32.235 170.496 32.3929C172.829 32.8109 175.174 33.2212 177.458 33.8407C179.793 34.4754 182.222 34.226 184.554 34.8378C186.452 35.3357 188.395 35.6579 190.322 36.0443C190.632 36.1068 190.958 36.3121 191.644 35.7378C189.675 35.9258 188.451 34.7493 186.886 34.4969C185.483 34.2695 184.092 33.9616 182.706 33.6388C181.29 33.3082 179.839 33.544 178.398 33.2199C176.408 32.7709 174.448 32.1017 172.317 32.28C171.281 32.367 170.207 31.8131 169.134 31.6974C168.039 31.5786 167.053 31.0511 165.817 31.3222C164.851 31.5347 163.713 30.9699 162.651 30.7507C161.921 30.6 161.125 30.191 160.477 30.358C159.419 30.6292 158.505 30.0574 157.564 30.1594C156.481 30.2769 155.47 30.1329 154.461 29.8735C153.78 29.6978 153.24 30.0646 152.62 30.1392ZM197.271 44.867C195.406 43.5489 193.216 43.3052 191.088 42.8588C188.102 42.2331 185.088 41.7272 182.134 40.9807C178.092 39.9608 173.924 39.7543 169.864 38.8891C169.732 38.861 169.598 38.8106 169.466 38.8106C168.741 38.8109 168.017 38.9457 167.289 38.7777C166.365 38.5647 165.392 38.4941 164.514 38.1672C163.645 37.8438 162.836 38.3477 161.992 38.1095C161.082 37.8522 160.146 37.6345 159.206 37.5402C158.244 37.4429 157.321 36.69 156.298 37.3242C156.218 37.374 155.964 37.3125 155.926 37.2353C155.452 36.2805 154.709 36.8269 154.046 36.8614C153.21 36.9043 152.364 37.1319 151.535 36.7778C151.463 36.7478 151.32 36.8828 151.21 36.9415C151.179 37.1345 151.083 37.3335 151.38 37.6073C151.737 37.9315 152.047 37.2317 152.563 37.3589C154.425 37.8134 156.342 37.974 158.235 38.2386C160.863 38.6069 163.571 38.5141 166.131 39.3626C166.258 39.4042 166.428 39.4842 166.523 39.436C167.461 38.9694 168.373 39.3619 169.223 39.6236C170.15 39.9086 171.046 39.5879 171.937 39.7377C175.56 40.3488 179.111 41.2787 182.8 41.6392C186.221 41.9748 189.578 42.9607 192.963 43.6597C193.295 43.7283 193.739 43.6843 193.94 43.8844C194.891 44.8296 196.156 44.5538 197.271 44.867ZM89.647 219.671C89.3064 219.779 89.0718 220.129 88.6663 219.868C88.3897 219.238 87.7267 218.768 87.6552 217.997C87.6335 217.766 87.5982 217.561 87.3918 217.557C86.6374 217.543 86.5307 216.718 86.0709 216.502C85.4265 216.2 85.2722 215.631 84.9329 215.171C84.6345 214.768 84.3592 214.36 84.2571 213.782C84.186 213.377 83.4292 213.095 82.9778 212.758C82.5685 212.454 82.8264 211.876 82.4988 211.559C82.199 211.347 81.5128 211.66 81.6282 210.991C81.7386 210.357 81.1494 210.455 80.9188 210.222C80.5648 209.863 80.9396 209.188 80.4061 209.057C79.3449 208.796 79.0248 207.756 78.1919 207.209C78.5739 206.937 78.8873 206.715 79.2001 206.491C78.7662 205.907 78.2032 206.247 77.75 206.313C77.3259 205.63 77.6294 205.049 77.9398 204.357C77.2304 204.897 76.6547 204.487 76.0729 204.347C75.642 203.722 75.2619 203.077 74.5389 202.115C74.8394 205.222 77.2184 206.442 78.4015 208.429C78.1265 208.591 77.867 208.701 77.8595 209.194C79.1841 209.563 79.4282 211.014 80.2016 212.009C80.4891 211.845 80.6609 211.747 80.8353 211.648C81.583 212.538 82.0276 213.657 82.9929 214.423C83.4203 214.761 83.9542 215.348 83.8737 215.933C83.7194 217.053 84.4025 217.695 85.0731 218.265C85.4055 218.548 85.347 218.768 85.3999 219.054C85.4385 219.259 85.5451 219.281 85.6741 219.128C85.9567 218.852 85.6888 218.297 86.1539 218.133C86.3073 218.165 86.4855 218.147 86.5606 218.225C87.1183 218.811 87.1376 219.721 87.6343 220.281C88.1562 220.87 89.1274 220.973 89.5744 221.741C89.6088 221.8 89.6484 221.855 89.6855 221.911C89.5528 222.425 88.302 222.329 88.9557 223.442C89.6584 223.009 90.2898 222.618 90.8714 222.258C90.4653 221.292 89.613 220.706 89.647 219.671ZM198.15 51.6335C197.923 51.3268 197.794 50.9603 197.601 50.9243C196.499 50.7173 195.643 49.9427 194.5 49.7592C191.959 49.3502 189.448 48.7516 186.925 48.2305C185 47.8329 183.08 47.4013 181.147 47.047C179.264 46.7015 177.427 46.1949 175.453 46.2123C173.837 46.2266 172.245 45.6214 170.557 45.6269C168.862 45.6326 167.241 44.8879 165.458 44.9767C164.146 45.0432 162.769 44.605 161.486 44.1907C160.122 43.7506 158.735 44.1916 157.369 43.8157C155.15 43.2066 152.904 43.5753 150.57 43.8466C151.436 44.6552 152.305 43.9694 153.116 44.1416C154.199 44.3721 155.279 44.4924 156.417 44.4988C158.037 44.5067 159.634 45.0392 161.313 45.0744C163.143 45.1134 164.899 45.8888 166.812 45.7918C168.089 45.7265 169.347 46.2978 170.715 46.1875C171.753 46.1047 172.871 46.4643 173.888 46.8145C174.936 47.1766 175.968 46.7787 177.005 46.9982C182.975 48.261 188.951 49.4966 194.933 50.6994C195.963 50.906 196.721 51.8525 198.15 51.6335ZM328.883 216.502C328.048 215.762 327.097 215.106 326.654 214.094C325.615 211.715 323.11 210.416 322.234 207.94C320.896 207.479 320.423 206.136 319.565 205.209C318.346 203.889 317.016 202.669 315.862 201.307C314.816 200.074 313.645 198.996 312.524 197.854C311.404 196.711 310.265 195.571 309.232 194.36C307.937 192.842 306.289 191.723 304.978 190.226C304.077 189.195 303.222 188.033 301.884 187.445C301.728 187.377 301.678 187.098 301.54 186.953C300.391 185.752 299.307 184.475 298.063 183.382C295.731 181.335 293.42 179.271 291.21 177.088C290.931 176.813 290.639 176.141 289.801 176.427C290.049 176.803 290.209 177.253 290.528 177.497C292.449 178.969 294.043 180.785 295.818 182.408C297.168 183.64 298.524 184.872 299.887 186.091C301.786 187.788 303.382 189.818 305.266 191.549C306.492 192.676 307.551 194.003 308.787 195.064C311.017 196.981 312.852 199.264 315.005 201.246C316.695 202.8 318.134 204.646 319.694 206.349C321.229 208.022 322.797 209.75 324.017 211.712C324.299 212.165 324.633 212.533 325.088 212.814C325.574 213.115 325.134 214.049 325.965 214.137C326.546 215.354 327.722 216.114 328.369 217.277C328.461 217.443 328.521 217.502 328.671 217.376C328.878 217.133 328.861 216.799 328.883 216.502ZM191.243 29.901C190.701 29.5492 190.435 28.543 189.511 29.1656C189.295 28.4424 188.906 29.129 188.6 29.0643C188.185 28.9756 188.142 28.4753 187.66 28.4101C186.972 28.3166 186.509 27.3398 185.574 27.9816C185.202 28.2368 185.024 27.1184 184.477 27.4579C183.926 27.8003 183.723 27.5916 183.34 27.1927C183.07 26.9098 182.423 27.0428 182.24 26.4916C180.934 27.1314 179.78 26.1886 178.539 26.128C177.975 26.1021 177.415 25.7792 176.859 26.1596C176.389 25.4127 175.373 25.2403 174.948 25.5326C174.095 26.1203 173.674 25.1048 172.886 25.3009C172.169 25.4789 171.257 25.1868 170.401 25.2584C169.818 25.3079 169.209 25.045 168.611 24.9215C167.947 24.7844 167.244 24.7412 166.633 24.4809C166.137 24.2687 165.502 25.0052 165.158 24.2083C164.523 24.3255 163.907 24.4755 163.244 24.2449C162.673 24.0462 162.058 23.9626 161.456 23.8643C160.628 23.7282 159.824 23.6232 158.947 23.6712C157.95 23.7258 156.854 24.0174 155.847 23.5345C155.578 23.4051 155.345 23.6135 155.106 23.6442C154.355 23.7413 153.532 23.9018 152.842 23.6909C152.022 23.44 151.132 23.5311 150.556 23.764C149.645 24.132 148.907 23.5767 148.051 23.7745C146.968 24.0239 145.772 24.1418 144.683 24.0729C142.375 23.9262 140.155 24.9925 137.833 24.4147C137.451 24.3199 137.152 25.0015 136.612 24.9662C134.491 24.8305 132.422 25.2602 130.34 25.6298C131.138 25.7567 131.918 26.4653 132.733 25.6488C133.029 25.3526 133.361 25.5524 133.679 25.6019C134.141 25.6753 134.661 25.9374 135.053 25.8066C137.071 25.1318 139.176 25.3182 141.221 25.0192C142.046 24.8979 142.797 25.2494 143.52 25.0629C145.191 24.6341 146.865 24.5419 148.575 24.419C150.015 24.3151 151.505 24.2746 152.914 24.2846C154.377 24.2943 155.959 24.1029 157.414 24.6815C157.6 24.7549 157.874 24.8703 157.999 24.7924C158.803 24.2867 159.583 24.6937 160.307 24.9019C161.107 25.132 161.839 24.724 162.628 24.9061C163.635 25.1392 164.655 25.2364 165.725 25.2449C167.409 25.2568 169.073 25.9119 170.822 25.8176C171.411 25.7861 172.016 26.0398 172.613 26.1631C173.144 26.2728 173.715 26.2948 174.195 26.5151C174.743 26.7675 175.367 26.2589 175.764 26.6434C176.336 27.1979 176.836 26.8115 177.378 26.7368C177.622 26.7026 177.71 26.9249 177.814 27.0903C178.033 27.4394 178.578 27.485 178.697 27.3922C179.229 26.9788 179.727 27.2158 180.232 27.3284C180.849 27.4643 181.55 27.4217 181.968 28.0472C182.692 27.4824 183.379 28.1215 184.085 28.1165C184.871 28.1114 185.497 28.8782 186.344 28.5838C187.775 29.7836 189.614 29.4275 191.243 29.901ZM154.458 267.444C154.212 267.156 154.175 267.069 154.127 267.062C151.011 266.618 148.067 265.507 144.972 264.651C144.845 264.54 144.987 264.34 144.997 264.039C144.509 263.618 143.593 263.894 143.167 263.157C143.067 262.986 142.6 263.043 142.242 263.158C141.5 263.397 140.798 263.239 140.441 262.377C140.561 261.936 141.054 262.502 141.21 262.093C140.747 261.239 140.089 262.057 139.589 261.977C139.028 261.82 139.531 261.329 139.238 261.117C138.866 261.123 138.957 261.472 138.826 261.653C135.99 261.537 136.437 261.328 134.132 260.028C133.236 260.076 133.322 260.959 132.855 261.562C132.687 260.131 131.298 261.506 130.882 260.405C131.19 259.964 131.888 259.851 132.29 259.247C131.669 259.178 131.163 258.727 130.555 259.17C129.788 259.729 129.124 259.588 128.466 258.928C128.27 258.731 127.87 258.738 127.593 258.658C127.409 258.96 127.278 259.173 127.15 259.381C127.067 259.265 126.937 259.167 126.945 259.083C126.986 258.685 127.204 258.243 127.088 257.91C126.969 257.568 126.749 256.819 126.124 257.302C125.678 257.648 125.461 256.572 125.037 257.236C124.991 257.308 124.959 256.845 124.911 256.611C124.588 256.21 124.093 257.137 123.797 256.495C123.669 256.217 123.435 256.048 123.163 256.101C121.481 256.425 120.602 255.411 119.845 254.165C119.82 254.126 119.71 254.148 119.653 254.117C119.543 254.058 119.444 253.981 119.271 253.864C119.77 253.724 120.22 253.597 120.628 253.481C121.457 253.804 121.029 254.736 121.609 255.219C122.147 255.134 122.748 255.101 123.222 254.7C123.269 253.792 122.371 254.217 121.973 253.848C121.61 253.51 121.189 253.011 120.486 253.016C119.823 253.02 119.16 252.772 118.357 252.606C118.675 251.691 118.28 250.978 117.608 250.374C116.822 250.217 116.717 250.993 116.294 251.334C115.769 250.875 116.456 249.891 117.683 249.384C117.269 247.813 116.006 249.026 115.225 248.636C114.726 248.277 115.434 247.735 115.033 247.361C114.178 247.056 114.026 247.921 113.652 248.188C113.137 247.892 112.5 248.003 112.158 247.576C111.665 247.597 111.838 248.609 111.109 248.196C110.754 247.717 111.102 247.496 111.468 247.277C111.287 246.446 110.206 246.349 110.076 245.499C109.585 245.672 109.259 245.953 109.062 246.568C108.171 245.804 106.713 247.386 106.029 245.688C106.28 245.387 107.105 245.883 106.927 244.908C106.391 244.424 105.79 245.197 105.125 244.951C104.484 244.714 104.038 244.297 103.499 243.973C103.664 243.67 104.349 243.621 103.935 243.053C103.699 242.861 103.476 242.885 103.222 243.049C102.836 243.302 102.329 243.216 102.155 242.908C101.613 241.941 100.568 241.647 99.8125 240.98C99.1774 240.418 98.1326 240.211 98.1932 239.054C98.1972 238.983 98.0137 238.85 97.9053 238.836C97.2074 238.741 96.879 238.074 96.3262 237.819C95.7244 237.542 95.6116 236.868 95.1034 236.603C94.4509 236.262 94.3588 235.24 93.8491 235.156C93.0299 235.021 93.6591 233.885 92.8178 234.002C92.8219 233.288 92.3468 232.797 91.9955 232.223L90.4474 231.903C90.0329 231.262 90.0693 230.669 90.5556 230.085C90.2569 229.51 89.5935 229.786 89.1346 229.475C89.1036 229.263 89.0673 229.015 89.0191 228.691L87.7385 228.427C87.6786 228.105 87.6335 227.858 87.5812 227.58C87.0037 227.249 86.3248 228.268 85.756 227.408C85.7014 227.196 86.0428 227.277 86.0875 226.965C85.5209 226.901 85.1842 226.083 84.335 226.429C84.1927 225.742 84.9054 224.936 83.8753 224.31L82.1001 223.944C81.692 222.512 80.6612 221.355 80.4489 219.871C80.0875 219.917 80.1656 220.262 79.9582 220.506C79.442 220.394 79.5279 219.536 78.9438 219.547C78.2588 219.559 78.4006 219.012 78.2123 218.644C77.9752 218.18 77.6617 217.762 77.657 217.206L76.8834 217.046C76.6954 216.883 76.6778 216.707 76.7284 216.498C76.7745 216.308 76.7879 216.111 76.8126 215.939C76.437 215.516 75.8913 215.72 75.3069 215.315C74.995 214.993 75.1319 213.986 74.103 213.868C73.9178 213.846 74.0097 213.177 73.7487 212.825C72.9884 211.8 72.507 210.594 71.6425 209.624C71.216 209.145 70.9488 208.553 70.7817 207.887C70.6263 207.264 69.8981 206.98 69.4823 206.471C69.0829 205.982 69.367 205.137 68.5499 204.907C68.2614 204.826 68.533 204.392 68.3853 204.207C68.0517 203.787 68.1168 203.228 67.5618 202.813C66.7303 202.192 66.773 200.898 66.0481 200.082C65.4326 199.389 65.0084 198.544 64.8635 197.637C64.7403 196.865 63.6014 196.686 63.8754 195.754C63.0207 194.795 62.8069 193.481 62.0548 192.468C61.7365 192.04 61.5035 191.585 61.4708 191.047C61.4502 190.697 60.5368 190.428 61.3741 190C60.9538 189.504 60.3002 189.177 60.3536 188.35C60.3638 188.179 59.8625 188.213 59.7823 187.735C59.6154 186.739 58.8951 185.908 58.7386 184.873C58.6924 184.569 58.5903 184.119 58.4855 183.989C57.0913 182.261 57.0061 180.01 56.0606 178.116C55.9706 177.936 55.7862 177.789 55.737 177.603C55.3661 176.208 55.3586 174.707 54.6709 173.412C54.002 172.151 53.7313 170.773 53.5102 169.421C53.3833 168.641 52.7957 168.071 52.8273 167.287C52.8627 166.411 52.4013 165.698 51.9237 165.002C52.203 164.737 52.3793 164.57 52.5553 164.403C51.4579 163.813 51.323 162.67 51.1367 161.646C51.0705 161.281 50.968 160.885 50.865 160.553C50.1526 158.264 49.65 155.94 49.423 153.554C49.3995 153.31 49.238 153.082 49.1663 152.839C48.8141 151.642 48.6789 150.456 49.0611 149.214C49.3551 148.259 49.0737 145.188 48.7336 143.929C48.0626 141.443 47.3421 138.968 46.7473 136.463C46.328 134.698 46.0651 132.895 45.7633 131.104C45.44 129.184 45.1618 127.256 44.5178 125.373C45.4774 124.761 44.927 123.816 44.9567 122.967C44.9903 121.99 43.6561 121.9 43.7151 120.954C43.482 120.26 44.3722 120.151 44.4028 119.612C44.2561 119.065 43.6976 119.338 43.3902 119.06C43.1871 118.701 43.3568 118.462 43.7659 118.266C43.8824 118.226 43.8842 118.14 43.7351 117.999C43.2265 117.518 43.1344 116.821 43.0653 116.219C43.0124 115.759 43.0459 115.343 42.7612 114.929C42.3422 114.321 42.5702 113.825 43.1587 113.45C42.6344 112.685 42.0832 112.001 42.3853 110.892C42.5137 110.418 41.611 109.825 41.9973 109.083C41.5771 108.687 41.6586 108.182 41.871 107.78C42.2674 107.03 41.1661 107.247 41.2263 106.572C41.3886 104.739 41.0585 102.9 41.0864 101.046C41.1022 100.07 41.4885 99.0178 40.9772 98.0157C40.8099 97.6864 41.3136 97.5413 41.4819 97.2981C41.289 97.0038 41.1022 96.7208 40.8855 96.3911C41.094 95.8202 40.8815 95.0642 41.5028 94.6113C41.796 94.3977 41.5366 94.3007 41.482 94.1591C40.8975 92.63 41.2047 91.0208 41.0306 89.4592C40.9015 88.3067 41.4532 87.1806 41.2584 86.1654C40.9364 84.4864 42.1128 82.9653 41.4954 81.3372C41.9499 80.1103 41.719 78.7129 42.6379 77.5643C43.0536 77.0454 42.9225 76.1203 43.1464 75.4124C43.9563 72.8551 44.9125 70.3425 46.7085 68.2996C47.5419 67.3513 48.5875 66.5115 49.1357 65.4098C49.7369 64.2025 50.7444 63.3297 51.3543 62.125C51.8461 61.1526 52.9285 60.4773 53.7582 59.6798C55.1286 58.3625 56.5489 57.0951 57.3428 55.2909C57.4447 55.059 57.6983 54.7679 57.9137 54.5549C58.7745 53.7059 59.3591 52.6163 60.1595 51.7762C60.9885 50.9046 61.6725 49.8424 62.6925 49.171C63.971 48.3283 64.7565 46.8704 66.4237 46.4691C67.2911 46.2597 67.989 45.4289 68.8413 45.0565C69.6277 44.7124 70.4178 44.4642 71.0754 43.8505C71.4257 43.523 72.0029 43.4426 72.4711 43.237C73.9089 42.6077 74.9926 41.4361 76.3541 40.6928C77.0495 40.3131 77.6666 39.8221 78.3967 39.4701C79.0351 39.1632 79.5681 38.504 80.2363 38.1454C83.5978 36.3413 86.8037 34.195 90.5992 33.3214C91.1646 33.1914 91.348 32.4173 91.7189 32.3736C92.2405 32.3114 92.5465 31.9991 92.9611 31.8357C95.0947 30.9944 97.2145 30.1129 99.385 29.3806C99.8617 29.2193 100.484 28.8557 101.078 29.251C101.499 29.5322 101.893 29.1559 102.17 29.0264C103.463 28.4221 104.776 28.5151 106.125 28.6169C106.746 28.6629 107.38 28.5295 108.007 28.4771L109.802 28.9132C110.834 29.607 111.93 29.0259 112.75 28.6805C113.938 28.1808 115.176 27.9048 116.373 27.4901C117.68 27.0381 119.021 26.6348 120.351 26.2825C121.979 25.8509 123.643 25.4727 125.298 25.16C128.253 24.602 131.231 24.1102 134.252 23.9419C135.879 23.8515 137.5 23.6097 139.119 23.3932C140.994 23.1423 142.852 22.7256 144.764 22.8995C145.487 22.1804 146.268 23.0684 147.047 22.8097C147.688 22.597 148.41 22.6112 149.099 22.5546C150.816 22.4158 152.539 22.5712 154.255 22.4808C154.587 22.4632 154.536 22.6585 154.641 22.7579C154.912 23.0171 155.288 23.085 155.56 22.9995C156.037 22.8496 156.434 22.1272 156.955 22.928C157.519 22.7513 158.11 22.8802 158.661 22.8241C160.852 22.6025 163.002 23.7336 165.191 22.9708C165.246 22.9517 165.325 22.9878 165.389 23.0086C167.886 23.8215 170.565 23.4234 173.084 24.1493C173.475 24.2621 173.713 24.798 173.981 24.6439C174.484 24.3547 174.898 24.5712 175.332 24.6601C175.75 24.7455 176.079 24.7138 176.458 24.479C176.854 24.2325 176.918 25.1385 177.351 24.8675C177.772 24.6033 178.134 24.8213 178.506 24.8943C180.302 25.247 182.084 25.6904 183.891 25.9631C184.532 26.0603 184.964 26.7575 185.68 26.4804C186.104 27.1872 186.881 26.9622 187.496 27.1441C188.209 27.3537 189.088 27.265 189.65 27.6582C190.404 28.1841 191.193 28.4104 192.028 28.4853C192.924 28.5659 193.462 29.4213 194.368 29.4149C194.715 29.4119 194.921 29.7324 195.183 29.8742C196.356 30.5041 197.56 31.1069 198.812 31.5507C200.983 32.3198 202.908 33.5361 204.848 34.7161C206.13 35.4957 207.393 36.3491 208.513 37.34C210.709 39.2802 212.896 41.2294 214.812 43.4768C215.933 44.7923 217.075 46.1044 218.285 47.3566C219.558 48.676 220.512 50.3013 221.61 51.7895C222.514 53.0151 223.122 54.4523 224.341 55.4574C224.733 55.7813 224.961 56.2984 224.914 56.9164C225.119 56.8063 225.278 56.7211 225.497 56.6033C225.752 57.3239 226.496 57.754 226.524 58.6664C226.545 59.3708 227.466 59.5038 227.781 60.1066C228.641 61.7497 230.213 62.9739 230.608 64.8942C231.338 65.4542 231.921 66.1084 232.01 67.0804C233.031 67.3088 232.267 68.3568 232.934 68.7497C233.033 69.0695 233.09 68.6433 233.382 68.8049C233.495 69.5633 234.222 70.1742 234.527 70.973C234.84 71.7941 235.486 72.4082 235.585 73.4187C235.666 74.2543 236.538 75.014 237.115 75.8919L236.851 77.1718C237.224 77.2922 237.531 77.3916 237.826 77.4875C238.171 78.4568 237.957 79.5331 238.68 80.4204C239.282 81.1618 239.119 82.2608 239.733 83.0936C240.161 83.6756 240.318 84.4919 240.471 85.2294C240.545 85.5899 240.335 86.0111 240.247 86.437C241.454 88.0223 242.133 89.7941 242.083 91.8084C243.094 93.6091 242.857 95.8034 243.858 97.5755C244.19 98.1643 243.973 98.6959 244.158 99.2628C245.022 101.898 245.731 104.579 246.649 107.203C247.374 109.272 247.863 111.428 248.378 113.565C248.698 114.892 249.207 116.106 249.86 117.306C251.22 119.804 252.637 122.268 254.031 124.744C255.459 127.281 256.952 129.785 258.333 132.341C260.42 136.205 263.018 139.72 265.353 143.412C266.928 145.901 268.8 148.186 270.481 150.606C272.021 152.822 273.755 154.915 275.393 157.071C277.524 159.874 279.807 162.565 282.113 165.228C284.716 168.232 287.508 171.067 290.334 173.859C292.99 176.485 295.843 178.909 298.544 181.479C300.94 183.76 303.297 186.104 305.64 188.45C307.347 190.159 309.144 191.777 310.848 193.488C313.023 195.673 315.174 197.882 317.18 200.23C318.017 201.21 318.984 202.07 319.811 203.076C320.21 203.561 320.75 204.01 321.017 204.578C321.297 205.17 321.89 205.337 322.252 205.818C323.553 207.549 325.031 209.133 326.314 210.894C327.744 212.859 329.356 214.7 330.748 216.705C331.118 217.238 331.303 217.934 331.635 218.41C332.021 218.963 332.619 219.335 332.771 220.109C332.883 220.686 333.849 220.742 333.747 221.632C333.714 221.917 334.411 222.313 334.739 222.715C335.635 223.818 335.946 225.222 336.75 226.366C337.57 227.529 338.453 228.676 339.077 229.943C340.065 231.954 341.304 233.828 342.26 235.841C343.17 237.759 344.513 239.512 344.865 241.645C344.96 242.221 345.833 241.99 345.546 242.632C346.901 245.816 348.278 248.993 349.6 252.191C350.155 253.531 350.444 254.974 350.871 256.356C351.425 258.148 352.237 259.881 352.487 261.777C352.79 264.078 353.985 266.2 353.896 268.586C354.736 269.448 354.262 270.709 354.829 271.665C355.051 272.041 354.702 272.254 354.433 272.407C355.121 274.17 355.636 275.948 355.847 277.847C356.109 280.21 356.7 282.536 356.982 284.897C357.415 288.529 357.852 292.158 357.876 295.834C357.887 297.315 357.913 298.77 357.812 300.256C357.718 301.63 357.945 303.046 357.821 304.449C357.806 304.62 358.048 304.845 357.997 304.977C357.405 306.501 358.056 308.172 357.449 309.677C356.984 310.828 357.528 312.024 357.172 313.19C356.837 314.288 356.421 315.461 356.504 316.566C356.694 319.116 355.892 321.481 355.275 323.836C354.878 325.346 354.516 326.909 353.972 328.378C353.113 330.7 352.254 333.072 350.909 335.147C349.051 338.018 346.9 340.646 344.242 342.911C342.192 344.659 339.881 345.63 337.478 346.587C335.825 347.247 334.061 347.536 332.351 347.779C331.079 347.96 329.684 347.873 328.355 347.945C326.441 348.05 324.541 347.799 322.622 347.925C321.548 347.995 320.403 347.785 319.331 347.64C314.685 347.011 310.029 346.383 305.455 345.282C304.614 345.081 304.049 344.358 303.119 344.332C302.318 344.309 301.409 344.221 300.755 343.822C299.811 343.245 298.713 343.26 297.813 342.797C296.851 342.301 295.818 342.175 294.859 341.795C292.837 340.995 290.98 339.791 288.817 339.33C285.81 337.139 282.254 335.923 279.191 333.765C276.945 332.182 274.683 330.589 272.376 329.089C270.578 327.919 269.01 326.47 267.23 325.29C266.536 324.83 266.131 323.949 265.522 323.443C264.939 322.958 264.074 322.76 263.398 322.232C262.812 321.773 262.417 321.314 262.382 320.686C260.968 320.85 260.726 319.316 259.649 318.961C258.638 318.63 257.827 317.667 256.95 316.956C256.07 316.242 255.247 315.454 254.342 314.773C253.387 314.053 252.458 313.308 251.535 312.548C250.67 311.835 249.66 311.3 248.711 310.689C247.747 310.069 247.069 309.131 246.177 308.41C245.289 307.693 244.234 307.253 243.401 306.46C242.597 305.695 241.646 305.085 240.777 304.42C240.332 304.793 240.851 304.906 240.786 305.139C240.133 305.53 239.953 304.909 239.793 304.548C239.547 303.998 238.933 304.283 238.626 303.894C238.354 303.553 238.02 303.156 237.636 303.039C237.171 302.896 236.864 302.606 236.485 302.373C236.13 302.154 235.468 302.31 235.725 301.535C235.4 301.097 234.859 301.266 234.436 301.088C234.35 300.572 234.111 300.14 233.454 299.863C233.924 299.786 234.171 299.746 234.422 299.705C234.191 298.778 233.33 298.506 232.762 298.782C231.838 299.233 231.456 298.549 231.016 298.273C230.406 298.29 230.58 299.303 229.804 298.866C229.786 297.85 229.78 296.751 228.382 296.519C227.82 295.275 226.355 295.298 225.468 294.435C224.637 293.626 223.348 293.377 222.492 292.471C222.048 292.001 221.237 292.318 220.671 291.809C220.026 291.231 219.097 291.111 218.37 290.506C217.899 290.115 217.065 290.003 216.439 289.57C215.981 289.254 215.315 289.239 214.727 289.085C214.725 288.85 214.722 288.66 214.72 288.415C213.659 288.721 212.917 287.952 212.089 287.55C211.196 287.117 210.332 286.542 209.615 285.861C209.099 285.37 208.509 285.204 208.029 285.42C207.537 285.642 207.226 284.845 206.833 285.368C206.512 284.503 205.197 285.131 204.956 284.105C204.845 283.631 204.14 283.683 204.007 283.181C203.7 283.627 203.084 283.26 202.759 283.658C201.509 282.835 201.509 282.835 201.302 282.127C200.425 282.429 199.638 282.544 199.033 281.468C198.691 280.858 197.507 281.308 197.02 280.545C196.801 280.699 196.438 280.954 196.321 280.736C195.934 280.01 195.021 280.351 194.639 279.859C194.179 279.266 193.545 279.436 192.999 279.253C192.401 279.051 191.75 279.342 191.115 278.894C190.568 278.507 189.678 278.761 189.186 278.048C188.937 277.688 188.598 278.516 188.206 278.036C187.935 277.705 187.358 278.42 186.952 277.738C186.648 277.228 185.848 277.391 185.275 277.236C184.754 277.095 184.219 277.01 183.687 276.901C183.663 277.346 183.663 277.346 183.766 277.52C183.626 277.696 183.448 277.662 183.25 277.65C182.629 277.611 182.394 276.889 181.707 276.871C181.225 276.859 180.655 276.862 180.238 276.383C179.918 276.016 179.487 276.622 179.035 276.383C178.69 276.201 178.593 275.766 178.101 275.73C175.753 275.563 173.746 274.112 171.422 273.974C171.181 273.503 171.685 273.594 171.742 273.376C171.714 273.332 171.682 273.232 171.638 273.225C169.394 272.906 167.408 271.65 165.144 271.419C164.571 271.362 164.191 270.659 163.471 271.044C162.992 271.301 162.684 270.248 162.063 270.701C161.666 269.965 160.883 270.188 160.272 270C159.691 269.822 159.08 269.742 158.483 269.619C157.819 269.482 157.142 269.195 156.494 269.247C155.784 269.304 155.464 267.918 154.629 268.822C154.288 268.023 153.49 268.234 152.881 268.06C152.166 267.854 151.423 267.745 150.694 267.594C150.03 267.457 149.345 267.382 148.706 267.168C147.658 266.819 146.709 266.165 145.562 266.124C144.463 266.084 143.831 265.003 142.723 265.144L142.848 264.542C146.654 265.468 150.304 267 154.458 267.444Z" fill="#2D3E4E"/>
<path opacity="0.32" d="M138.538 392.546L138.79 393.362C135.881 389.222 133.471 384.752 131.612 380.045C129.044 373.351 127.471 366.317 126.944 359.169C126.436 352.172 126.423 345.148 126.907 338.151C127.665 327.935 127.878 317.685 127.544 307.443C127.21 299 125.218 290.7 121.683 283.019C120.269 279.975 118.804 276.95 117.122 273.946C117.864 273.967 117.684 274.667 118.306 275.04C117.804 274.169 117.563 273.157 116.989 272.903C116.655 272.785 116.359 272.579 116.131 272.308C115.903 272.037 115.751 271.71 115.692 271.36C115.606 268.972 113.796 267.517 112.783 265.654C111.94 264.194 110.48 263.165 109.689 261.613C108.693 259.635 107.248 257.927 106.712 255.663C106.306 254.569 105.618 253.601 104.718 252.859C103.86 252.07 103.283 251.02 103.077 249.873C102.945 248.108 101.713 246.967 101.162 245.454C99.7921 241.766 98.6418 238.001 97.7178 234.177C96.4993 228.695 95.8633 223.1 95.8205 217.487C95.6543 208.167 99.0433 200.163 104.571 192.902C110.099 185.641 117.308 181.363 126.477 180.516C131.318 180.086 136.159 179.655 141.023 179.661C144.137 179.634 147.241 180.019 150.257 180.806C152.945 181.524 155.655 181.341 158.358 181.235C165.448 180.812 172.563 181.545 179.426 183.404C186.298 185.477 192.715 188.846 198.33 193.33C205.898 199.214 211.915 206.547 217.458 214.322C225.448 225.506 233.412 236.717 243.362 246.309C250.393 253.068 257.879 259.187 266.614 263.623C270.494 265.459 274.61 266.745 278.842 267.443C286.297 268.903 293.827 269.913 301.202 271.723C306.54 272.89 311.738 274.627 316.709 276.904C325.35 281.122 333.324 286.353 339.852 293.506C346.826 301.176 352.244 309.766 354.206 320.173C356.056 330.079 355.139 339.512 349.274 348.014C346.064 352.66 341.686 356.078 336.858 358.897C328.007 364.069 318.664 368.354 309.841 373.522C303.85 377.054 297.71 380.348 292.303 384.693C285.668 390.073 281.232 396.986 278.207 404.915C276.194 410.262 274.399 415.662 272.468 421.024C270.161 427.451 267.475 433.71 263.561 439.359C256.666 449.293 246.985 453.878 235.102 454.231C228.188 454.39 221.288 453.503 214.633 451.601C211.79 450.815 209.028 449.805 206.252 448.844C203.718 447.968 201.277 446.839 198.967 445.476C197.114 444.38 195.047 443.69 193.147 442.621C186.277 438.759 179.671 434.444 173.372 429.704C169.628 426.833 166.065 423.732 162.544 420.596C159.73 418.089 157.058 415.394 154.495 412.616C152.374 410.315 150.178 408.047 148.145 405.663C147.05 404.381 146.446 402.721 145.36 401.381C143.152 398.782 141.139 396.025 139.335 393.132C139.28 392.961 139.173 392.813 139.028 392.708C138.883 392.603 138.708 392.548 138.53 392.55C137.79 390.456 136.421 388.735 135.259 386.885C136.14 388.887 137.24 390.785 138.538 392.546ZM345.996 314.21L346.141 314.063C345.502 312.811 344.936 311.505 344.194 310.312C341.82 306.452 339.53 302.449 335.743 299.593C334.745 298.84 334.108 297.502 332.946 296.771C331.325 295.771 330.289 294.12 328.635 293.098C326.055 291.449 323.57 289.745 321.103 287.947C319.447 286.865 317.718 285.898 315.929 285.055C314.529 284.366 313.091 283.757 311.622 283.231C308.965 282.096 306.217 281.187 303.409 280.513C300.566 279.853 297.686 279.308 294.801 278.808C291.915 278.308 289.078 277.928 286.254 277.372C282.933 276.69 279.573 276.222 276.194 275.971C274.528 275.886 273.052 275.117 271.377 274.944C269.921 274.865 268.48 274.612 267.083 274.19C264.595 273.325 262.175 272.274 259.844 271.046C252.194 266.828 245.16 261.574 238.94 255.432C236.991 253.555 234.883 251.801 233.555 249.356C233.184 248.569 232.657 247.866 232.007 247.289C230.718 246.272 229.596 245.059 228.68 243.696C226.717 240.854 224.401 238.289 222.371 235.495C219.084 230.959 215.837 226.4 212.827 221.693C210.991 218.819 208.772 216.24 207.001 213.318C205.909 211.427 204.103 209.959 202.585 208.324C195.442 200.595 187.164 194.567 176.878 191.78C175.576 191.422 174.936 190.223 173.602 190.062C167.519 189.389 161.425 188.607 155.377 187.58C149.018 186.501 142.64 187.61 136.285 187.586C134.996 187.577 134.995 187.629 133.817 186.762C133.694 186.676 133.448 186.755 133.25 186.775C129.477 187.122 125.668 187.135 121.924 187.822C119.593 188.247 117.169 188.474 115.065 189.689C107.672 193.811 103.559 200.235 102.152 208.475C101.506 213.111 101.489 217.816 102.102 222.46C103.033 232.045 105.98 241.329 110.749 249.702C115.533 258.134 120.908 266.215 125.408 274.822C129.86 283.191 132.598 292.363 133.463 301.798C134.477 313.254 133.995 324.685 133.456 336.107C132.901 343.949 133.054 351.826 133.914 359.644C135.377 370.461 139.426 380.771 145.717 389.698C149.489 395.211 153.634 400.46 158.123 405.405C170.293 418.948 184.534 430.467 200.311 439.531C207.596 443.695 215.144 446.995 223.425 448.512C229.003 449.539 234.594 450.172 240.262 449.421C243.58 449.132 246.753 447.937 249.436 445.966C252.732 443.369 255.528 440.195 257.69 436.597C262.106 429.287 264.654 421.183 267.432 413.187C270.21 405.191 273.057 397.531 278.349 390.908C281.36 387.099 284.9 383.741 288.862 380.937C299.064 373.822 310.2 368.345 321.3 362.804C326.424 360.244 331.778 358.136 336.543 354.883C339.794 352.822 342.603 350.134 344.805 346.974C348.512 341.141 350.061 334.188 349.185 327.319C349.14 327.13 349.129 326.934 349.153 326.741C349.723 324.602 348.835 322.74 348.074 320.825C347.882 320.329 347.514 319.747 347.629 319.314C348.058 317.78 346.474 316.915 346.484 315.434C346.485 314.785 345.476 313.851 345.128 312.922L345.996 314.21ZM129.541 289.332C128.147 284.123 126.136 279.099 123.55 274.367C120.487 268.665 117.155 263.129 113.757 257.622C111.926 254.65 110.209 251.603 108.367 248.629C107.945 247.899 108.041 246.819 106.956 246.367C107.888 248.654 109.013 250.857 110.32 252.952C114.256 259.551 118.42 266.061 122.099 272.757C125.061 278.053 127.551 283.599 129.541 289.332ZM348.398 308.398C350.876 313.874 352.573 319.671 353.438 325.617C353.237 319.55 351.505 313.628 348.402 308.405L348.398 308.398ZM242.811 249.149C247.537 254.217 252.992 258.551 258.995 262.006C253.361 258.029 248.028 253.669 242.816 249.157L242.811 249.149ZM191.413 191.088C186.169 187.839 180.66 185.108 174.437 184.391C180.33 185.969 186.026 188.216 191.413 191.088ZM140.911 385.421C137.502 379.877 135.597 373.706 133.527 367.609C134.693 374.003 137.211 380.076 140.911 385.421ZM344.139 300.949C343.965 301.405 343.871 301.532 343.906 301.575C345.285 303.34 346.47 305.248 347.442 307.265C347.546 307.446 347.693 307.591 347.906 307.51C348.12 307.428 348.165 307.109 348.039 306.91C346.846 304.952 345.552 303.052 344.163 300.935L344.139 300.949ZM253.356 266.13C255.375 267.851 257.644 269.254 260.085 270.29L253.356 266.13ZM114.181 266.196C115.073 268.663 115.892 269.612 117.163 269.392C114.931 269.32 115.679 267.057 114.181 266.196ZM110.585 262.623L110.741 262.533L107.851 257.527L107.694 257.617L110.585 262.623Z" fill="#2D3E4E"/>
</svg>
