<!DOCTYPE svg PUBLIC "-//W3C//DTD SVG 1.1//EN" "http://www.w3.org/Graphics/SVG/1.1/DTD/svg11.dtd">
<!-- Uploaded to: SVG Repo, www.svgrepo.com, Transformed by: SVG Repo Mixer Tools -->
<svg fill="#2B4053" height="64px" width="64px" version="1.1" id="Layer_1" xmlns="http://www.w3.org/2000/svg" xmlns:xlink="http://www.w3.org/1999/xlink" viewBox="-95.7 -95.7 521.40 521.40" xml:space="preserve" stroke="#2B4053" transform="rotate(0)matrix(1, 0, 0, 1, 0, 0)">
<g id="SVGRepo_bgCarrier" stroke-width="0" transform="translate(0,0), scale(1)">
<rect x="-95.7" y="-95.7" width="521.40" height="521.40" rx="260.7" fill="#E09E50" strokewidth="0"/>
</g>
<g id="SVGRepo_tracerCarrier" stroke-linecap="round" stroke-linejoin="round" stroke="#CCCCCC" stroke-width="1.98"/>
<g id="SVGRepo_iconCarrier"> <path id="XMLID_224_" d="M325.606,229.393l-150.004-150C172.79,76.58,168.974,75,164.996,75c-3.979,0-7.794,1.581-10.607,4.394 l-149.996,150c-5.858,5.858-5.858,15.355,0,21.213c5.857,5.857,15.355,5.858,21.213,0l139.39-139.393l139.397,139.393 C307.322,253.536,311.161,255,315,255c3.839,0,7.678-1.464,10.607-4.394C331.464,244.748,331.464,235.251,325.606,229.393z"/> </g>
</svg>