<svg width="117" height="128" viewBox="0 0 117 128" fill="none" xmlns="http://www.w3.org/2000/svg">
<path d="M113.306 127.102C115.161 126.47 116.139 125.034 116.24 122.791C116.301 121.437 115.971 119.081 115.25 115.72C115.236 115.656 115.22 115.591 115.203 115.527C115.2 115.514 115.196 115.502 115.193 115.489C113.406 109.081 111.951 103.779 110.826 99.5808C109.072 93.0366 108.123 89.1776 107.977 88.0043C107.962 87.8793 107.94 87.755 107.913 87.6323C107.344 85.0793 106.499 79.6809 105.381 71.4376C105.358 71.2718 105.325 71.1081 105.282 70.9474C105.172 70.5352 104.995 70.1427 104.758 69.7858C103.224 67.4784 101.342 67.0661 99.112 68.5492C97.857 69.3832 97.2475 70.6544 97.2833 72.3624C97.297 73.0176 97.4158 74.0372 97.6398 75.421L97.6511 75.4877C98.6913 81.4677 99.6759 87.3425 100.604 93.1092L100.604 93.1059C74.3031 47.778 42.91 17.0305 6.4243 0.86402C4.43422 -0.0176809 2.10618 0.880747 1.22429 2.87072C0.844959 3.72712 0.795054 4.64608 1.01988 5.48514C1.31768 6.59656 2.09713 7.56824 3.23099 8.07072C41.3822 24.9755 73.8735 58.8039 100.705 109.557L100.706 109.56C90.1077 101.674 80.422 95.7044 71.6482 91.6512C69.6721 90.7384 67.3304 91.6003 66.4176 93.5766C66.0155 94.4469 65.9578 95.3884 66.1879 96.2474C66.4803 97.3386 67.2371 98.2965 68.3427 98.8072C79.6277 104.02 92.6359 112.685 107.367 124.802C107.78 125.142 108.247 125.386 108.739 125.534L108.738 125.53C109.709 127.016 111.583 127.688 113.306 127.102Z" fill="#E09E50"/>
</svg>
