<svg width="116" height="128" viewBox="0 0 116 128" fill="none" xmlns="http://www.w3.org/2000/svg">
<path d="M3.55471 127.102C1.69957 126.47 0.721425 125.034 0.620294 122.791C0.559211 121.437 0.88923 119.081 1.61051 115.72C1.62433 115.656 1.64007 115.591 1.65719 115.527C1.66065 115.514 1.66403 115.502 1.66755 115.489C3.45396 109.081 4.90955 103.779 6.03438 99.5808C7.7879 93.0366 8.73755 89.1776 8.88319 88.0043C8.89876 87.8793 8.92029 87.755 8.94768 87.6323C9.51674 85.0793 10.3609 79.6809 11.4795 71.4376C11.5021 71.2718 11.5349 71.1081 11.578 70.9474C11.6884 70.5352 11.8654 70.1427 12.1026 69.7858C13.6362 67.4784 15.5182 67.0661 17.7484 68.5492C19.0033 69.3832 19.6129 70.6544 19.5771 72.3624C19.5633 73.0176 19.4446 74.0372 19.2205 75.421L19.2093 75.4877C18.1691 81.4677 17.1844 87.3425 16.2559 93.1092L16.2568 93.1059C42.5573 47.778 73.9504 17.0305 110.436 0.86402C112.426 -0.0176809 114.754 0.880747 115.636 2.87072C116.015 3.72712 116.065 4.64608 115.84 5.48514C115.543 6.59656 114.763 7.56824 113.629 8.07072C75.4781 24.9755 42.9869 58.8039 16.1557 109.557L16.1547 109.56C26.7526 101.674 36.4383 95.7044 45.2122 91.6512C47.1882 90.7384 49.53 91.6003 50.4427 93.5766C50.8449 94.4469 50.9026 95.3884 50.6724 96.2474C50.38 97.3386 49.6233 98.2965 48.5177 98.8072C37.2327 104.02 24.2245 112.685 9.49331 124.802C9.08024 125.142 8.61296 125.386 8.12132 125.534L8.12227 125.53C7.15113 127.016 5.27766 127.688 3.55471 127.102Z" fill="#E09E50"/>
</svg>
