<svg xmlns="http://www.w3.org/2000/svg" xmlns:xlink="http://www.w3.org/1999/xlink" width="300" zoomAndPan="magnify" viewBox="0 0 224.87999 60" height="80" preserveAspectRatio="xMidYMid meet" version="1.0"><defs><clipPath id="9d779dc6b4"><path d="M 31 0.015625 L 66 0.015625 L 66 45 L 31 45 Z M 31 0.015625 " clip-rule="nonzero"/></clipPath><clipPath id="5b4eacdd37"><path d="M 46.84375 46.339844 L 54.761719 46.339844 L 54.761719 59.984375 L 46.84375 59.984375 Z M 46.84375 46.339844 " clip-rule="nonzero"/></clipPath><clipPath id="a522ae7d84"><path d="M 47 0.015625 L 49 0.015625 L 49 1 L 47 1 Z M 47 0.015625 " clip-rule="nonzero"/></clipPath><clipPath id="eb9e72ffa9"><path d="M 66.699219 16.894531 L 67.386719 16.894531 L 67.386719 17.898438 L 66.699219 17.898438 Z M 66.699219 16.894531 " clip-rule="nonzero"/></clipPath><clipPath id="a57137aad5"><path d="M 55 0.015625 L 57 0.015625 L 57 1 L 55 1 Z M 55 0.015625 " clip-rule="nonzero"/></clipPath><clipPath id="0e3a45f4aa"><path d="M 42 0.015625 L 44 0.015625 L 44 1 L 42 1 Z M 42 0.015625 " clip-rule="nonzero"/></clipPath><clipPath id="ebcfbc15fc"><path d="M 30.65625 18 L 31 18 L 31 20 L 30.65625 20 Z M 30.65625 18 " clip-rule="nonzero"/></clipPath><clipPath id="e2775d9bf5"><path d="M 52 0.015625 L 54 0.015625 L 54 1 L 52 1 Z M 52 0.015625 " clip-rule="nonzero"/></clipPath><clipPath id="348ca3d9a8"><path d="M 66 14 L 67.386719 14 L 67.386719 15 L 66 15 Z M 66 14 " clip-rule="nonzero"/></clipPath><clipPath id="1ad919a776"><path d="M 92 0.015625 L 127 0.015625 L 127 45 L 92 45 Z M 92 0.015625 " clip-rule="nonzero"/></clipPath><clipPath id="737fc75c63"><path d="M 107.671875 46.339844 L 115.59375 46.339844 L 115.59375 59.984375 L 107.671875 59.984375 Z M 107.671875 46.339844 " clip-rule="nonzero"/></clipPath><clipPath id="3938bcbc7b"><path d="M 108 0.015625 L 110 0.015625 L 110 1 L 108 1 Z M 108 0.015625 " clip-rule="nonzero"/></clipPath><clipPath id="9cfeb5cd54"><path d="M 127.527344 16.894531 L 128.21875 16.894531 L 128.21875 17.898438 L 127.527344 17.898438 Z M 127.527344 16.894531 " clip-rule="nonzero"/></clipPath><clipPath id="6fa28d5f3f"><path d="M 116 0.015625 L 117 0.015625 L 117 1 L 116 1 Z M 116 0.015625 " clip-rule="nonzero"/></clipPath><clipPath id="4adb713437"><path d="M 103 0.015625 L 105 0.015625 L 105 1 L 103 1 Z M 103 0.015625 " clip-rule="nonzero"/></clipPath><clipPath id="c6335ee266"><path d="M 91.488281 16 L 93 16 L 93 17 L 91.488281 17 Z M 91.488281 16 " clip-rule="nonzero"/></clipPath><clipPath id="5f567d0f9d"><path d="M 91.488281 18 L 92 18 L 92 20 L 91.488281 20 Z M 91.488281 18 " clip-rule="nonzero"/></clipPath><clipPath id="db7024a2ea"><path d="M 113 0.015625 L 115 0.015625 L 115 1 L 113 1 Z M 113 0.015625 " clip-rule="nonzero"/></clipPath><clipPath id="013e749047"><path d="M 153 0.015625 L 188 0.015625 L 188 45 L 153 45 Z M 153 0.015625 " clip-rule="nonzero"/></clipPath><clipPath id="51057d89b2"><path d="M 168.464844 46.339844 L 176.386719 46.339844 L 176.386719 59.984375 L 168.464844 59.984375 Z M 168.464844 46.339844 " clip-rule="nonzero"/></clipPath><clipPath id="9a26cb801d"><path d="M 169 0.015625 L 171 0.015625 L 171 1 L 169 1 Z M 169 0.015625 " clip-rule="nonzero"/></clipPath><clipPath id="a5289d5067"><path d="M 188.320312 16.894531 L 189.011719 16.894531 L 189.011719 17.898438 L 188.320312 17.898438 Z M 188.320312 16.894531 " clip-rule="nonzero"/></clipPath><clipPath id="b9d8b61ab0"><path d="M 177 0.015625 L 178 0.015625 L 178 1 L 177 1 Z M 177 0.015625 " clip-rule="nonzero"/></clipPath><clipPath id="de2e414892"><path d="M 164 0.015625 L 166 0.015625 L 166 1 L 164 1 Z M 164 0.015625 " clip-rule="nonzero"/></clipPath><clipPath id="3d9a27025a"><path d="M 152.28125 16 L 154 16 L 154 17 L 152.28125 17 Z M 152.28125 16 " clip-rule="nonzero"/></clipPath><clipPath id="70af0b2cd0"><path d="M 152.28125 18 L 153 18 L 153 20 L 152.28125 20 Z M 152.28125 18 " clip-rule="nonzero"/></clipPath><clipPath id="1230a4b663"><path d="M 174 0.015625 L 175 0.015625 L 175 1 L 174 1 Z M 174 0.015625 " clip-rule="nonzero"/></clipPath></defs><g clip-path="url(#9d779dc6b4)"><path fill="#e09e50" d="M 56.667969 19.320312 C 56.695312 19.328125 56.746094 19.355469 56.753906 19.34375 C 57.75 18.199219 58.433594 16.914062 58.460938 15.359375 C 58.496094 13.636719 57.96875 12.105469 56.792969 10.816406 C 56.101562 10.058594 55.296875 9.449219 54.394531 8.96875 C 54.351562 8.945312 54.292969 8.941406 54.242188 8.929688 C 54.191406 8.886719 54.128906 8.847656 54.089844 8.921875 C 54.066406 8.964844 54.089844 9.035156 54.09375 9.09375 C 54.0625 9.265625 54.042969 9.445312 53.992188 9.613281 C 53.871094 10.011719 53.625 10.183594 53.210938 10.195312 C 53.101562 10.195312 52.996094 10.195312 52.867188 10.195312 C 52.820312 10.246094 52.765625 10.316406 52.699219 10.375 C 52.570312 10.480469 52.40625 10.492188 52.3125 10.398438 C 52.214844 10.300781 52.203125 10.175781 52.257812 10.054688 C 52.296875 9.972656 52.355469 9.90625 52.390625 9.851562 C 52.28125 9.292969 52.179688 8.753906 52.070312 8.203125 C 51.808594 8.019531 51.488281 8.046875 51.199219 8.011719 C 50.367188 7.910156 49.53125 7.917969 48.675781 7.996094 C 48.628906 8.363281 48.664062 8.695312 48.675781 9.027344 C 48.699219 9.5625 48.734375 10.097656 48.757812 10.628906 C 48.765625 10.808594 48.734375 10.976562 48.648438 11.144531 C 48.488281 11.46875 48.210938 11.589844 47.867188 11.660156 C 47.804688 11.640625 47.722656 11.605469 47.636719 11.585938 C 47.277344 11.503906 47.09375 11.261719 47.027344 10.921875 C 46.980469 10.695312 46.953125 10.464844 46.933594 10.234375 C 46.898438 9.753906 46.875 9.269531 46.839844 8.789062 C 46.832031 8.671875 46.800781 8.554688 46.78125 8.441406 C 46.199219 8.441406 44.859375 8.996094 44.257812 9.480469 C 44.257812 9.570312 44.253906 9.675781 44.257812 9.78125 C 44.273438 9.972656 44.292969 10.167969 44.3125 10.382812 C 44.464844 10.40625 44.605469 10.410156 44.734375 10.457031 C 45.007812 10.558594 45.054688 10.859375 44.835938 11.054688 C 44.773438 11.113281 44.691406 11.15625 44.613281 11.195312 C 44.550781 11.226562 44.480469 11.242188 44.394531 11.273438 C 44.394531 11.398438 44.386719 11.519531 44.394531 11.640625 C 44.613281 14.34375 44.835938 17.046875 45.054688 19.75 C 45.070312 19.964844 45.089844 20.175781 45.097656 20.390625 C 45.101562 20.515625 45.097656 20.644531 45.070312 20.765625 C 44.984375 21.191406 44.664062 21.480469 44.269531 21.503906 C 43.890625 21.527344 43.546875 21.304688 43.402344 20.917969 C 43.335938 20.734375 43.304688 20.535156 43.289062 20.34375 C 43.214844 19.578125 43.15625 18.8125 43.09375 18.050781 C 42.910156 15.773438 42.726562 13.496094 42.542969 11.21875 C 42.535156 11.117188 42.523438 11.015625 42.515625 10.933594 C 42.34375 10.855469 42.285156 10.964844 42.21875 11.035156 C 41.574219 11.683594 41.027344 12.410156 40.578125 13.203125 C 40.410156 13.5 40.253906 13.800781 40.097656 14.101562 C 39.96875 14.34375 39.832031 14.589844 40.15625 14.804688 C 40.023438 14.914062 39.933594 14.972656 39.863281 15.046875 C 39.675781 15.238281 39.53125 15.449219 39.449219 15.714844 C 38.746094 17.957031 38.550781 20.21875 39.050781 22.527344 C 39.171875 23.074219 39.210938 23.621094 39.097656 24.175781 C 38.933594 24.976562 38.542969 25.644531 37.898438 26.140625 C 37.671875 26.316406 37.453125 26.488281 37.328125 26.785156 C 36.984375 26.652344 36.660156 26.777344 36.335938 26.824219 C 34.976562 27.023438 33.671875 26.390625 32.976562 25.207031 C 32.710938 24.753906 32.558594 24.261719 32.457031 23.75 C 32.425781 23.578125 32.386719 23.410156 32.296875 23.144531 C 32.230469 23.296875 32.175781 23.359375 32.1875 23.402344 C 32.261719 23.644531 32.195312 23.816406 31.976562 23.941406 C 31.808594 24.03125 31.691406 24.039062 31.582031 23.945312 C 31.449219 23.835938 31.378906 23.699219 31.417969 23.523438 C 31.476562 23.28125 31.695312 23.164062 31.957031 23.230469 C 32.332031 23.324219 32.351562 23.300781 32.304688 22.925781 C 32.238281 22.398438 32.183594 21.863281 32.121094 21.332031 C 32.105469 21.191406 32.121094 21.035156 32.0625 20.914062 C 32.015625 20.816406 31.878906 20.761719 31.757812 20.667969 C 31.878906 20.53125 31.957031 20.445312 32.042969 20.351562 C 32.066406 19.808594 32.078125 19.257812 32.113281 18.707031 C 32.335938 15.21875 33.375 11.996094 35.257812 9.046875 C 35.359375 8.886719 35.5 8.746094 35.398438 8.511719 C 35.34375 8.390625 35.449219 8.261719 35.59375 8.253906 C 35.777344 8.242188 35.882812 8.152344 35.984375 8.015625 C 37.109375 6.519531 38.445312 5.246094 39.992188 4.1875 C 40.035156 4.160156 40.074219 4.121094 40.109375 4.089844 C 40.050781 4.003906 39.984375 3.9375 39.949219 3.859375 C 39.902344 3.757812 39.917969 3.644531 40.019531 3.578125 C 40.117188 3.511719 40.226562 3.515625 40.3125 3.601562 C 40.371094 3.664062 40.414062 3.738281 40.484375 3.835938 C 40.957031 3.578125 41.414062 3.308594 41.894531 3.074219 C 42.386719 2.832031 42.894531 2.609375 43.410156 2.410156 C 43.90625 2.21875 44.417969 2.050781 44.933594 1.90625 C 45.445312 1.761719 45.96875 1.644531 46.496094 1.546875 C 47.039062 1.449219 47.589844 1.378906 48.136719 1.320312 C 48.667969 1.261719 49.199219 1.238281 49.75 1.195312 C 49.769531 1.097656 49.789062 1.015625 49.804688 0.933594 C 49.824219 0.828125 49.898438 0.78125 49.988281 0.773438 C 50.109375 0.761719 50.199219 0.824219 50.222656 0.945312 C 50.242188 1.027344 50.238281 1.113281 50.246094 1.210938 C 50.992188 1.261719 51.71875 1.3125 52.449219 1.363281 C 52.515625 1.371094 52.582031 1.375 52.648438 1.390625 C 53.109375 1.527344 53.570312 1.648438 54.058594 1.644531 C 54.125 1.644531 54.214844 1.648438 54.261719 1.691406 C 54.457031 1.871094 54.714844 1.894531 54.949219 1.964844 C 56.894531 2.578125 58.652344 3.542969 60.222656 4.839844 C 60.441406 5.019531 60.628906 5.234375 60.945312 5.261719 C 61.109375 5.273438 61.257812 5.40625 61.269531 5.578125 C 61.285156 5.84375 61.464844 5.992188 61.621094 6.15625 C 63.136719 7.78125 64.1875 9.660156 64.742188 11.8125 C 64.9375 12.574219 65.0625 13.347656 65.136719 14.152344 C 65.210938 14.171875 65.289062 14.1875 65.367188 14.207031 C 65.46875 14.410156 65.566406 14.613281 65.679688 14.839844 C 65.613281 14.898438 65.527344 14.957031 65.457031 15.027344 C 65.265625 15.222656 65.160156 15.433594 65.148438 15.730469 C 65.066406 18.269531 64.183594 20.535156 62.730469 22.59375 C 61.890625 23.78125 60.902344 24.828125 59.816406 25.792969 C 59.523438 26.054688 59.226562 26.3125 58.925781 26.5625 C 58.773438 26.6875 58.710938 26.832031 58.722656 27.027344 C 58.769531 28.132812 58.8125 29.238281 58.855469 30.34375 C 58.898438 31.394531 58.9375 32.445312 58.980469 33.496094 C 59.015625 34.441406 59.058594 35.386719 59.085938 36.332031 C 59.09375 36.5625 59.085938 36.796875 59.03125 37.019531 C 58.953125 37.351562 58.734375 37.585938 58.386719 37.664062 C 58.011719 37.75 57.636719 37.578125 57.441406 37.21875 C 57.339844 37.03125 57.265625 36.839844 57.105469 36.679688 C 56.949219 36.527344 56.953125 36.316406 57.09375 36.144531 C 57.21875 35.996094 57.257812 35.84375 57.25 35.652344 C 57.171875 33.78125 57.101562 31.910156 57.027344 30.035156 C 57.027344 29.984375 57.011719 29.933594 57.007812 29.890625 C 56.945312 29.777344 56.835938 29.839844 56.765625 29.800781 C 56.699219 29.761719 56.609375 29.6875 56.605469 29.628906 C 56.601562 29.5625 56.679688 29.480469 56.746094 29.433594 C 56.796875 29.398438 56.878906 29.402344 56.980469 29.386719 C 57.011719 29.019531 56.980469 28.664062 56.953125 28.273438 C 56.484375 28.523438 55.703125 29.191406 55.050781 29.886719 C 55.046875 30.105469 55.152344 30.363281 54.945312 30.574219 C 54.765625 30.761719 54.53125 30.757812 54.265625 30.777344 C 53.695312 31.5 53.285156 32.316406 53.121094 33.25 C 52.980469 34.046875 52.996094 34.847656 53.074219 35.648438 C 53.1875 36.84375 53.476562 38.003906 53.707031 39.175781 C 53.757812 39.4375 53.816406 39.699219 53.871094 39.949219 C 53.910156 39.976562 53.9375 40.007812 53.964844 40.015625 C 54.101562 40.042969 54.261719 40.039062 54.296875 40.222656 C 54.320312 40.363281 54.230469 40.453125 54.121094 40.523438 C 54.078125 40.550781 54.03125 40.578125 53.996094 40.601562 C 54.132812 41.253906 54.097656 41.867188 53.964844 42.414062 C 54.089844 42.550781 54.164062 42.515625 54.226562 42.496094 C 54.527344 42.390625 54.742188 42.523438 54.929688 42.742188 C 55.160156 43.015625 55.03125 43.425781 54.679688 43.496094 C 54.40625 43.550781 54.144531 43.515625 53.964844 43.261719 C 53.914062 43.1875 53.867188 43.113281 53.796875 43.007812 C 53.71875 43.097656 53.640625 43.164062 53.589844 43.25 C 53.367188 43.597656 53.105469 43.910156 52.769531 44.15625 C 52.667969 44.226562 52.59375 44.304688 52.554688 44.441406 C 52.453125 44.800781 52.386719 44.816406 52.027344 44.640625 C 52.011719 44.632812 51.996094 44.625 51.972656 44.613281 C 50.753906 45.03125 49.625 44.835938 48.59375 44.050781 C 48.421875 44.25 48.351562 44.550781 48.023438 44.480469 C 47.839844 44.4375 47.691406 44.296875 47.664062 44.128906 C 47.625 43.890625 47.699219 43.777344 48.066406 43.53125 C 48.066406 43.511719 48.078125 43.488281 48.070312 43.476562 C 47.644531 42.839844 47.453125 42.121094 47.3125 41.378906 C 47.070312 40.0625 46.769531 38.757812 46.546875 37.441406 C 46.273438 35.796875 46.214844 34.140625 46.449219 32.484375 C 46.738281 30.460938 47.519531 28.648438 48.710938 27 C 49.59375 25.777344 50.65625 24.722656 51.796875 23.742188 C 51.945312 23.617188 52.09375 23.488281 52.257812 23.34375 C 52.199219 23.144531 52.089844 22.933594 52.300781 22.761719 C 52.503906 22.597656 52.667969 22.738281 52.859375 22.835938 C 52.964844 22.757812 53.082031 22.679688 53.1875 22.589844 C 53.96875 21.9375 54.761719 21.296875 55.523438 20.625 C 55.925781 20.273438 56.277344 19.867188 56.652344 19.484375 C 56.695312 19.4375 56.753906 19.382812 56.675781 19.3125 L 56.667969 19.320312 " fill-opacity="1" fill-rule="nonzero"/></g><g clip-path="url(#5b4eacdd37)"><path fill="#e09e50" d="M 48.433594 47.21875 C 48.359375 47.136719 48.304688 47.089844 48.265625 47.03125 C 48.175781 46.894531 48.183594 46.792969 48.28125 46.703125 C 48.382812 46.609375 48.503906 46.617188 48.605469 46.738281 C 48.660156 46.800781 48.695312 46.878906 48.75 46.964844 C 48.917969 46.882812 49.058594 46.8125 49.203125 46.742188 C 50.8125 45.988281 52.667969 46.585938 53.542969 48.136719 C 53.726562 48.464844 53.925781 48.78125 54.125 49.097656 C 54.800781 50.179688 54.929688 51.324219 54.523438 52.53125 C 54.390625 52.933594 54.21875 53.300781 53.886719 53.609375 C 53.425781 54.042969 52.933594 54.40625 52.339844 54.628906 C 52.226562 54.671875 52.113281 54.726562 51.980469 54.78125 C 51.996094 55.523438 52.101562 56.246094 52.152344 56.945312 C 52.191406 56.996094 52.207031 57.03125 52.238281 57.046875 C 52.582031 57.234375 52.59375 57.300781 52.3125 57.5625 C 52.289062 57.585938 52.265625 57.613281 52.222656 57.664062 C 52.25 57.996094 52.292969 58.351562 52.300781 58.707031 C 52.308594 58.933594 52.300781 59.171875 52.246094 59.390625 C 52.148438 59.78125 51.933594 59.945312 51.578125 59.980469 C 51.183594 60.019531 50.863281 59.894531 50.6875 59.535156 C 50.589844 59.332031 50.539062 59.09375 50.511719 58.867188 C 50.445312 58.320312 50.40625 57.765625 50.355469 57.21875 C 50.292969 56.523438 50.230469 55.832031 50.167969 55.140625 C 50.160156 55.035156 50.140625 54.929688 50.125 54.796875 C 49.394531 54.515625 48.675781 54.222656 48.132812 53.625 C 47.578125 53.015625 47.191406 52.332031 47.015625 51.523438 C 46.84375 50.738281 46.886719 49.964844 47.125 49.203125 C 47.367188 48.433594 47.804688 47.792969 48.433594 47.21875 " fill-opacity="1" fill-rule="nonzero"/></g><path fill="#e09e50" d="M 54.960938 55.84375 C 54.851562 55.929688 54.710938 56.03125 54.574219 56.140625 C 54.367188 56.304688 54.109375 56.203125 53.988281 55.988281 C 53.863281 55.773438 53.929688 55.511719 54.136719 55.386719 C 54.359375 55.253906 54.585938 55.269531 54.773438 55.4375 C 54.878906 55.53125 54.992188 55.625 54.960938 55.84375 " fill-opacity="1" fill-rule="nonzero"/><path fill="#e09e50" d="M 47.96875 26.320312 C 48.003906 26.210938 48.046875 26.097656 48.074219 25.984375 C 48.101562 25.886719 48.105469 25.785156 48.121094 25.691406 C 48.691406 25.628906 48.792969 25.757812 48.699219 26.410156 C 48.441406 26.613281 48.214844 26.472656 47.96875 26.320312 " fill-opacity="1" fill-rule="nonzero"/><g clip-path="url(#a522ae7d84)"><path fill="#e09e50" d="M 48.691406 0.816406 C 48.40625 1.039062 48.195312 0.867188 47.960938 0.757812 C 48.015625 0.546875 48.070312 0.328125 48.125 0.105469 C 48.65625 0.015625 48.769531 0.152344 48.691406 0.816406 " fill-opacity="1" fill-rule="nonzero"/></g><g clip-path="url(#eb9e72ffa9)"><path fill="#e09e50" d="M 67.4375 17.019531 C 67.40625 17.296875 67.414062 17.589844 67.285156 17.855469 C 67.050781 17.867188 66.875 17.800781 66.789062 17.605469 C 66.742188 17.5 66.714844 17.359375 66.746094 17.257812 C 66.777344 17.152344 66.878906 17.050781 66.976562 16.992188 C 67.113281 16.910156 67.277344 16.886719 67.4375 17.019531 " fill-opacity="1" fill-rule="nonzero"/></g><path fill="#e09e50" d="M 53.898438 34.0625 C 53.734375 34.050781 53.59375 33.902344 53.601562 33.75 C 53.617188 33.457031 53.777344 33.289062 54.015625 33.316406 C 54.207031 33.335938 54.367188 33.492188 54.363281 33.652344 C 54.351562 33.882812 54.132812 34.074219 53.898438 34.0625 " fill-opacity="1" fill-rule="nonzero"/><path fill="#e09e50" d="M 61.457031 26.355469 C 61.226562 26.574219 61.007812 26.457031 60.789062 26.328125 C 60.820312 26.125 60.851562 25.921875 60.886719 25.6875 C 61.03125 25.613281 61.199219 25.605469 61.359375 25.714844 C 61.496094 25.816406 61.511719 25.941406 61.457031 26.355469 " fill-opacity="1" fill-rule="nonzero"/><path fill="#e09e50" d="M 53.632812 20.90625 C 53.660156 20.648438 53.824219 20.480469 54.023438 20.507812 C 54.226562 20.535156 54.414062 20.726562 54.394531 20.882812 C 54.363281 21.109375 54.144531 21.285156 53.910156 21.269531 C 53.710938 21.257812 53.609375 21.128906 53.632812 20.90625 " fill-opacity="1" fill-rule="nonzero"/><path fill="#e09e50" d="M 35.289062 6.046875 C 35.074219 6.039062 34.917969 5.886719 34.914062 5.691406 C 34.914062 5.503906 35.105469 5.296875 35.273438 5.304688 C 35.472656 5.3125 35.65625 5.53125 35.636719 5.738281 C 35.617188 5.9375 35.484375 6.058594 35.289062 6.046875 " fill-opacity="1" fill-rule="nonzero"/><path fill="#e09e50" d="M 53.902344 46.847656 C 53.71875 46.839844 53.617188 46.71875 53.632812 46.527344 C 53.652344 46.289062 53.792969 46.113281 53.960938 46.109375 C 54.164062 46.109375 54.359375 46.296875 54.339844 46.476562 C 54.320312 46.695312 54.128906 46.855469 53.902344 46.847656 " fill-opacity="1" fill-rule="nonzero"/><path fill="#e09e50" d="M 44.613281 36.035156 C 44.792969 36.042969 44.96875 36.203125 44.976562 36.363281 C 44.980469 36.566406 44.785156 36.761719 44.5625 36.769531 C 44.402344 36.78125 44.253906 36.605469 44.25 36.410156 C 44.242188 36.210938 44.421875 36.027344 44.613281 36.035156 " fill-opacity="1" fill-rule="nonzero"/><path fill="#e09e50" d="M 45.730469 31.082031 C 45.539062 30.996094 45.375 30.921875 45.175781 30.835938 C 45.265625 30.667969 45.351562 30.507812 45.457031 30.316406 C 45.671875 30.449219 45.855469 30.5625 46.050781 30.683594 C 46.019531 30.75 46.003906 30.800781 45.972656 30.835938 C 45.894531 30.921875 45.808594 31.003906 45.730469 31.082031 " fill-opacity="1" fill-rule="nonzero"/><path fill="#e09e50" d="M 31.539062 10.988281 C 31.585938 10.871094 31.628906 10.757812 31.675781 10.648438 C 31.722656 10.546875 31.785156 10.464844 31.914062 10.496094 C 32.042969 10.527344 32.132812 10.601562 32.15625 10.742188 C 32.179688 10.894531 32.105469 11.015625 31.929688 11.117188 C 31.785156 11.195312 31.660156 11.191406 31.539062 10.988281 " fill-opacity="1" fill-rule="nonzero"/><path fill="#e09e50" d="M 39.695312 23.308594 C 39.519531 23.316406 39.394531 23.203125 39.386719 23.023438 C 39.382812 22.839844 39.484375 22.71875 39.660156 22.710938 C 39.824219 22.703125 39.953125 22.796875 39.96875 22.929688 C 39.992188 23.125 39.867188 23.296875 39.695312 23.308594 " fill-opacity="1" fill-rule="nonzero"/><path fill="#e09e50" d="M 65.550781 10.160156 C 65.566406 10.316406 65.429688 10.496094 65.285156 10.507812 C 65.164062 10.519531 65.007812 10.382812 64.992188 10.25 C 64.976562 10.089844 65.101562 9.925781 65.257812 9.910156 C 65.394531 9.894531 65.539062 10.019531 65.550781 10.160156 " fill-opacity="1" fill-rule="nonzero"/><path fill="#e09e50" d="M 39.574219 2.417969 C 39.488281 2.261719 39.417969 2.132812 39.34375 2.003906 C 39.636719 1.730469 39.636719 1.730469 39.996094 2.023438 C 39.863281 2.148438 39.730469 2.273438 39.574219 2.417969 " fill-opacity="1" fill-rule="nonzero"/><path fill="#e09e50" d="M 39.71875 27.125 C 39.71875 27.203125 39.714844 27.246094 39.71875 27.289062 C 39.722656 27.339844 39.730469 27.394531 39.742188 27.445312 C 39.753906 27.496094 39.785156 27.546875 39.78125 27.59375 C 39.773438 27.640625 39.734375 27.6875 39.691406 27.765625 C 39.570312 27.714844 39.445312 27.664062 39.289062 27.601562 C 39.441406 27.433594 39.566406 27.296875 39.71875 27.125 " fill-opacity="1" fill-rule="nonzero"/><path fill="#e09e50" d="M 45.148438 18.109375 C 45.203125 17.882812 45.3125 17.730469 45.488281 17.578125 C 45.605469 17.742188 45.628906 17.90625 45.605469 18.109375 C 45.460938 18.109375 45.3125 18.109375 45.148438 18.109375 " fill-opacity="1" fill-rule="nonzero"/><path fill="#e09e50" d="M 41.519531 16.988281 C 41.550781 17.238281 41.429688 17.453125 41.410156 17.667969 C 41.257812 17.730469 41.203125 17.636719 41.1875 17.566406 C 41.160156 17.453125 41.144531 17.320312 41.179688 17.214844 C 41.222656 17.078125 41.335938 16.984375 41.519531 16.988281 " fill-opacity="1" fill-rule="nonzero"/><path fill="#e09e50" d="M 45.433594 43.136719 C 45.679688 43.292969 45.820312 43.382812 45.96875 43.476562 C 45.941406 43.660156 45.832031 43.75 45.648438 43.804688 C 45.589844 43.621094 45.53125 43.441406 45.433594 43.136719 " fill-opacity="1" fill-rule="nonzero"/><path fill="#e09e50" d="M 41.1875 20.542969 C 41.207031 20.773438 41.222656 20.910156 41.226562 21.046875 C 41.230469 21.09375 41.203125 21.144531 41.1875 21.191406 C 41.019531 21.234375 40.890625 21.167969 40.867188 21.011719 C 40.847656 20.90625 40.90625 20.78125 40.953125 20.675781 C 40.972656 20.628906 41.058594 20.613281 41.1875 20.542969 " fill-opacity="1" fill-rule="nonzero"/><path fill="#e09e50" d="M 53.136719 54.851562 C 53.15625 55.019531 53.050781 55.144531 52.929688 55.152344 C 52.839844 55.15625 52.726562 55.058594 52.714844 54.960938 C 52.699219 54.84375 52.816406 54.691406 52.925781 54.714844 C 53.011719 54.730469 53.085938 54.8125 53.136719 54.851562 " fill-opacity="1" fill-rule="nonzero"/><path fill="#e09e50" d="M 46.730469 40.410156 C 46.722656 40.589844 46.582031 40.738281 46.457031 40.703125 C 46.390625 40.683594 46.3125 40.597656 46.296875 40.53125 C 46.265625 40.390625 46.40625 40.265625 46.5625 40.292969 C 46.628906 40.304688 46.6875 40.378906 46.730469 40.410156 " fill-opacity="1" fill-rule="nonzero"/><path fill="#e09e50" d="M 39.507812 19.136719 C 39.402344 19.148438 39.292969 19.054688 39.292969 18.949219 C 39.292969 18.816406 39.390625 18.699219 39.507812 18.691406 C 39.601562 18.683594 39.710938 18.785156 39.722656 18.886719 C 39.734375 19.011719 39.636719 19.125 39.507812 19.136719 " fill-opacity="1" fill-rule="nonzero"/><path fill="#e09e50" d="M 65.027344 19.152344 C 64.988281 19.09375 64.902344 19.023438 64.886719 18.9375 C 64.863281 18.808594 64.980469 18.695312 65.105469 18.6875 C 65.226562 18.683594 65.34375 18.804688 65.328125 18.925781 C 65.3125 19.046875 65.195312 19.152344 65.027344 19.152344 " fill-opacity="1" fill-rule="nonzero"/><path fill="#e09e50" d="M 56.144531 51.335938 C 56.144531 51.507812 56.050781 51.625 55.929688 51.636719 C 55.835938 51.648438 55.714844 51.554688 55.703125 51.460938 C 55.683594 51.324219 55.8125 51.199219 55.976562 51.222656 C 56.042969 51.230469 56.101562 51.304688 56.144531 51.335938 " fill-opacity="1" fill-rule="nonzero"/><path fill="#e09e50" d="M 65.9375 16.488281 C 65.9375 16.664062 65.824219 16.761719 65.691406 16.75 C 65.585938 16.742188 65.535156 16.679688 65.527344 16.582031 C 65.511719 16.4375 65.605469 16.3125 65.730469 16.339844 C 65.816406 16.359375 65.886719 16.449219 65.9375 16.488281 " fill-opacity="1" fill-rule="nonzero"/><path fill="#e09e50" d="M 59.375 27.496094 C 59.40625 27.539062 59.488281 27.59375 59.496094 27.664062 C 59.515625 27.800781 59.347656 27.921875 59.210938 27.875 C 59.160156 27.855469 59.109375 27.773438 59.105469 27.71875 C 59.101562 27.574219 59.203125 27.484375 59.375 27.496094 " fill-opacity="1" fill-rule="nonzero"/><path fill="#e09e50" d="M 50.132812 9.039062 C 50.085938 9.078125 50.03125 9.164062 49.953125 9.203125 C 49.867188 9.242188 49.746094 9.140625 49.734375 9.039062 C 49.71875 8.9375 49.800781 8.835938 49.90625 8.820312 C 50.019531 8.808594 50.117188 8.878906 50.132812 9.039062 " fill-opacity="1" fill-rule="nonzero"/><path fill="#e09e50" d="M 46.566406 53.085938 C 46.601562 53.125 46.683594 53.171875 46.707031 53.238281 C 46.742188 53.34375 46.628906 53.460938 46.496094 53.480469 C 46.414062 53.492188 46.320312 53.414062 46.3125 53.335938 C 46.304688 53.214844 46.40625 53.09375 46.566406 53.085938 " fill-opacity="1" fill-rule="nonzero"/><path fill="#e09e50" d="M 44.722656 48.914062 C 45.027344 49.203125 45.015625 49.261719 44.675781 49.476562 C 44.664062 49.425781 44.640625 49.375 44.644531 49.332031 C 44.660156 49.214844 44.6875 49.101562 44.722656 48.914062 " fill-opacity="1" fill-rule="nonzero"/><g clip-path="url(#a57137aad5)"><path fill="#e09e50" d="M 55.890625 0.472656 C 55.824219 0.371094 55.746094 0.308594 55.746094 0.242188 C 55.746094 0.132812 55.832031 0.0625 55.949219 0.0507812 C 56.054688 0.0390625 56.164062 0.160156 56.117188 0.253906 C 56.074219 0.332031 55.984375 0.382812 55.890625 0.472656 " fill-opacity="1" fill-rule="nonzero"/></g><path fill="#e09e50" d="M 40.398438 16.546875 C 40.285156 16.632812 40.21875 16.714844 40.132812 16.746094 C 40.03125 16.78125 39.933594 16.667969 39.941406 16.554688 C 39.949219 16.445312 40.046875 16.320312 40.132812 16.347656 C 40.21875 16.375 40.285156 16.457031 40.398438 16.546875 " fill-opacity="1" fill-rule="nonzero"/><path fill="#e09e50" d="M 56.675781 19.3125 C 56.59375 19.167969 56.492188 19.3125 56.402344 19.300781 C 56.25 19.277344 56.171875 19.109375 56.273438 18.988281 C 56.3125 18.945312 56.390625 18.921875 56.453125 18.921875 C 56.488281 18.921875 56.527344 18.980469 56.5625 19.019531 C 56.640625 19.101562 56.472656 19.273438 56.667969 19.320312 C 56.667969 19.320312 56.675781 19.3125 56.675781 19.3125 " fill-opacity="1" fill-rule="nonzero"/><g clip-path="url(#0e3a45f4aa)"><path fill="#e09e50" d="M 43.394531 0.1875 C 43.28125 0.285156 43.21875 0.367188 43.136719 0.402344 C 43.058594 0.4375 42.957031 0.339844 42.960938 0.257812 C 42.960938 0.152344 43.03125 0.0820312 43.121094 0.0820312 C 43.191406 0.078125 43.269531 0.132812 43.394531 0.1875 " fill-opacity="1" fill-rule="nonzero"/></g><path fill="#e09e50" d="M 55.910156 13.265625 C 55.839844 13.15625 55.769531 13.09375 55.761719 13.027344 C 55.75 12.925781 55.867188 12.835938 55.976562 12.835938 C 56.0625 12.839844 56.164062 12.9375 56.128906 13.011719 C 56.089844 13.09375 56.007812 13.15625 55.910156 13.265625 " fill-opacity="1" fill-rule="nonzero"/><path fill="#e09e50" d="M 31.425781 16.859375 C 31.316406 16.917969 31.246094 16.972656 31.175781 16.980469 C 31.074219 16.992188 31.015625 16.914062 31.007812 16.816406 C 31 16.714844 31.140625 16.609375 31.226562 16.652344 C 31.292969 16.6875 31.339844 16.765625 31.425781 16.859375 " fill-opacity="1" fill-rule="nonzero"/><path fill="#e09e50" d="M 46.699219 27.648438 C 46.710938 27.769531 46.601562 27.894531 46.472656 27.875 C 46.417969 27.867188 46.351562 27.800781 46.335938 27.75 C 46.304688 27.652344 46.402344 27.539062 46.5 27.519531 C 46.582031 27.503906 46.691406 27.574219 46.699219 27.648438 " fill-opacity="1" fill-rule="nonzero"/><path fill="#e09e50" d="M 33.90625 27.628906 C 33.898438 27.789062 33.777344 27.886719 33.65625 27.875 C 33.574219 27.867188 33.515625 27.777344 33.53125 27.683594 C 33.546875 27.578125 33.652344 27.476562 33.738281 27.507812 C 33.808594 27.527344 33.863281 27.597656 33.90625 27.628906 " fill-opacity="1" fill-rule="nonzero"/><path fill="#e09e50" d="M 62.660156 23.425781 C 62.730469 23.523438 62.816406 23.589844 62.808594 23.648438 C 62.800781 23.707031 62.714844 23.785156 62.648438 23.804688 C 62.554688 23.835938 62.4375 23.707031 62.476562 23.617188 C 62.503906 23.550781 62.578125 23.507812 62.660156 23.425781 " fill-opacity="1" fill-rule="nonzero"/><path fill="#e09e50" d="M 65.167969 23.164062 C 65.023438 22.980469 65.019531 22.949219 65.117188 22.832031 C 65.179688 22.757812 65.3125 22.730469 65.335938 22.792969 C 65.355469 22.847656 65.347656 22.917969 65.332031 22.980469 C 65.320312 23.023438 65.28125 23.066406 65.25 23.105469 C 65.226562 23.128906 65.195312 23.144531 65.167969 23.164062 " fill-opacity="1" fill-rule="nonzero"/><path fill="#e09e50" d="M 66.003906 13.3125 C 65.96875 13.347656 65.917969 13.421875 65.855469 13.441406 C 65.761719 13.472656 65.6875 13.414062 65.664062 13.316406 C 65.636719 13.210938 65.71875 13.113281 65.835938 13.109375 C 65.945312 13.105469 65.988281 13.171875 66.003906 13.3125 " fill-opacity="1" fill-rule="nonzero"/><path fill="#e09e50" d="M 56.070312 38.628906 C 56.011719 38.699219 55.976562 38.761719 55.925781 38.785156 C 55.859375 38.816406 55.757812 38.726562 55.75 38.644531 C 55.746094 38.554688 55.835938 38.460938 55.914062 38.492188 C 55.96875 38.507812 56.007812 38.570312 56.070312 38.628906 " fill-opacity="1" fill-rule="nonzero"/><path fill="#e09e50" d="M 57.023438 16.832031 C 56.914062 16.902344 56.851562 16.964844 56.78125 16.980469 C 56.6875 17 56.613281 16.910156 56.617188 16.816406 C 56.625 16.726562 56.714844 16.632812 56.792969 16.660156 C 56.863281 16.6875 56.917969 16.75 57.023438 16.832031 " fill-opacity="1" fill-rule="nonzero"/><g clip-path="url(#ebcfbc15fc)"><path fill="#e09e50" d="M 30.78125 18.894531 C 30.859375 18.964844 30.921875 19 30.949219 19.054688 C 30.996094 19.140625 30.925781 19.242188 30.828125 19.234375 C 30.769531 19.226562 30.667969 19.167969 30.667969 19.140625 C 30.675781 19.070312 30.726562 19 30.78125 18.894531 " fill-opacity="1" fill-rule="nonzero"/></g><path fill="#e09e50" d="M 59.386719 1.949219 C 59.40625 1.980469 59.457031 2.03125 59.460938 2.085938 C 59.46875 2.199219 59.382812 2.277344 59.269531 2.285156 C 59.179688 2.292969 59.113281 2.210938 59.125 2.113281 C 59.140625 2 59.222656 1.9375 59.386719 1.949219 " fill-opacity="1" fill-rule="nonzero"/><path fill="#e09e50" d="M 41.519531 1.867188 C 41.429688 1.953125 41.378906 2.03125 41.308594 2.050781 C 41.234375 2.074219 41.117188 1.917969 41.148438 1.828125 C 41.167969 1.777344 41.253906 1.710938 41.296875 1.714844 C 41.363281 1.726562 41.421875 1.796875 41.519531 1.867188 " fill-opacity="1" fill-rule="nonzero"/><g clip-path="url(#e2775d9bf5)"><path fill="#e09e50" d="M 53.277344 0.453125 C 53.1875 0.550781 53.140625 0.621094 53.074219 0.664062 C 53.011719 0.699219 52.902344 0.613281 52.886719 0.53125 C 52.871094 0.4375 52.933594 0.335938 53.015625 0.34375 C 53.089844 0.351562 53.160156 0.398438 53.277344 0.453125 " fill-opacity="1" fill-rule="nonzero"/></g><path fill="#e09e50" d="M 40.433594 26.109375 C 40.328125 26.15625 40.261719 26.210938 40.214844 26.195312 C 40.167969 26.179688 40.144531 26.097656 40.109375 26.042969 C 40.164062 26.011719 40.21875 25.953125 40.269531 25.957031 C 40.316406 25.960938 40.355469 26.03125 40.433594 26.109375 " fill-opacity="1" fill-rule="nonzero"/><g clip-path="url(#348ca3d9a8)"><path fill="#e09e50" d="M 67.09375 14.644531 C 67.015625 14.726562 66.980469 14.796875 66.929688 14.808594 C 66.824219 14.835938 66.773438 14.75 66.75 14.664062 C 66.726562 14.582031 66.785156 14.515625 66.859375 14.523438 C 66.925781 14.53125 66.992188 14.589844 67.09375 14.644531 " fill-opacity="1" fill-rule="nonzero"/></g><path fill="#e09e50" d="M 41.511719 14.648438 C 41.417969 14.730469 41.371094 14.8125 41.304688 14.828125 C 41.222656 14.851562 41.113281 14.703125 41.144531 14.609375 C 41.164062 14.5625 41.246094 14.496094 41.289062 14.503906 C 41.355469 14.511719 41.414062 14.578125 41.511719 14.648438 " fill-opacity="1" fill-rule="nonzero"/><path fill="#e09e50" d="M 49.875 23.46875 C 49.929688 23.558594 49.992188 23.621094 49.980469 23.667969 C 49.972656 23.71875 49.890625 23.75 49.839844 23.789062 C 49.800781 23.738281 49.730469 23.6875 49.730469 23.636719 C 49.730469 23.589844 49.808594 23.542969 49.875 23.46875 " fill-opacity="1" fill-rule="nonzero"/><path fill="#e09e50" d="M 44.925781 33.414062 C 44.871094 33.460938 44.828125 33.515625 44.796875 33.507812 C 44.757812 33.503906 44.726562 33.449219 44.691406 33.414062 C 44.726562 33.382812 44.761719 33.335938 44.800781 33.332031 C 44.835938 33.328125 44.875 33.375 44.925781 33.414062 " fill-opacity="1" fill-rule="nonzero"/><path fill="#e09e50" d="M 39.707031 24.167969 C 39.683594 24.109375 39.644531 24.0625 39.652344 24.03125 C 39.667969 24 39.722656 23.984375 39.757812 23.960938 C 39.78125 23.996094 39.828125 24.039062 39.824219 24.070312 C 39.816406 24.101562 39.761719 24.125 39.707031 24.167969 " fill-opacity="1" fill-rule="nonzero"/><path fill="#e09e50" d="M 65.296875 11.378906 C 65.273438 11.3125 65.261719 11.265625 65.246094 11.222656 C 65.292969 11.210938 65.335938 11.191406 65.378906 11.191406 C 65.390625 11.191406 65.421875 11.253906 65.414062 11.269531 C 65.390625 11.304688 65.351562 11.332031 65.296875 11.378906 " fill-opacity="1" fill-rule="nonzero"/><path fill="#e09e50" d="M 56.429688 31.886719 C 56.4375 31.875 56.441406 31.863281 56.449219 31.851562 C 56.464844 31.871094 56.480469 31.890625 56.492188 31.910156 C 56.496094 31.914062 56.472656 31.929688 56.464844 31.941406 C 56.453125 31.925781 56.441406 31.90625 56.429688 31.886719 " fill-opacity="1" fill-rule="nonzero"/><g clip-path="url(#1ad919a776)"><path fill="#e09e50" d="M 117.496094 19.320312 C 117.527344 19.328125 117.574219 19.355469 117.582031 19.34375 C 118.578125 18.199219 119.261719 16.914062 119.292969 15.359375 C 119.324219 13.636719 118.796875 12.105469 117.625 10.816406 C 116.933594 10.058594 116.128906 9.449219 115.226562 8.96875 C 115.179688 8.945312 115.125 8.941406 115.074219 8.929688 C 115.023438 8.886719 114.957031 8.847656 114.917969 8.921875 C 114.894531 8.964844 114.921875 9.035156 114.925781 9.09375 C 114.890625 9.265625 114.875 9.445312 114.824219 9.613281 C 114.699219 10.011719 114.457031 10.183594 114.039062 10.195312 C 113.933594 10.195312 113.824219 10.195312 113.699219 10.195312 C 113.648438 10.246094 113.59375 10.316406 113.527344 10.375 C 113.402344 10.480469 113.238281 10.492188 113.144531 10.398438 C 113.042969 10.300781 113.03125 10.175781 113.089844 10.054688 C 113.125 9.972656 113.183594 9.90625 113.222656 9.851562 C 113.113281 9.292969 113.007812 8.753906 112.898438 8.203125 C 112.636719 8.019531 112.320312 8.046875 112.027344 8.011719 C 111.195312 7.910156 110.363281 7.917969 109.503906 7.996094 C 109.460938 8.363281 109.492188 8.695312 109.507812 9.027344 C 109.53125 9.5625 109.5625 10.097656 109.585938 10.628906 C 109.59375 10.808594 109.5625 10.976562 109.480469 11.144531 C 109.316406 11.46875 109.039062 11.589844 108.695312 11.660156 C 108.632812 11.640625 108.550781 11.605469 108.464844 11.585938 C 108.105469 11.503906 107.921875 11.261719 107.855469 10.921875 C 107.8125 10.695312 107.78125 10.464844 107.765625 10.234375 C 107.726562 9.753906 107.703125 9.269531 107.671875 8.789062 C 107.660156 8.671875 107.628906 8.554688 107.609375 8.441406 C 107.03125 8.441406 105.691406 8.996094 105.085938 9.480469 C 105.085938 9.570312 105.082031 9.675781 105.089844 9.78125 C 105.101562 9.972656 105.121094 10.167969 105.140625 10.382812 C 105.292969 10.40625 105.4375 10.410156 105.5625 10.457031 C 105.835938 10.558594 105.886719 10.859375 105.667969 11.054688 C 105.601562 11.113281 105.519531 11.15625 105.441406 11.195312 C 105.378906 11.226562 105.3125 11.242188 105.222656 11.273438 C 105.222656 11.398438 105.214844 11.519531 105.222656 11.640625 C 105.441406 14.34375 105.664062 17.046875 105.882812 19.75 C 105.902344 19.964844 105.917969 20.175781 105.925781 20.390625 C 105.929688 20.515625 105.925781 20.644531 105.902344 20.765625 C 105.8125 21.191406 105.496094 21.480469 105.097656 21.503906 C 104.722656 21.527344 104.375 21.304688 104.230469 20.917969 C 104.164062 20.734375 104.136719 20.535156 104.117188 20.34375 C 104.046875 19.578125 103.984375 18.8125 103.925781 18.050781 C 103.738281 15.773438 103.558594 13.496094 103.375 11.21875 C 103.367188 11.117188 103.351562 11.015625 103.34375 10.933594 C 103.175781 10.855469 103.117188 10.964844 103.046875 11.035156 C 102.402344 11.683594 101.859375 12.410156 101.40625 13.203125 C 101.238281 13.5 101.085938 13.800781 100.925781 14.101562 C 100.800781 14.34375 100.664062 14.589844 100.984375 14.804688 C 100.851562 14.914062 100.765625 14.972656 100.691406 15.046875 C 100.503906 15.238281 100.359375 15.449219 100.277344 15.714844 C 99.578125 17.957031 99.378906 20.21875 99.882812 22.527344 C 100 23.074219 100.039062 23.621094 99.925781 24.175781 C 99.761719 24.976562 99.375 25.644531 98.726562 26.140625 C 98.5 26.316406 98.28125 26.488281 98.160156 26.785156 C 97.8125 26.652344 97.492188 26.777344 97.164062 26.824219 C 95.804688 27.023438 94.5 26.390625 93.808594 25.207031 C 93.542969 24.753906 93.386719 24.261719 93.289062 23.75 C 93.253906 23.578125 93.214844 23.410156 93.125 23.144531 C 93.058594 23.296875 93.007812 23.359375 93.019531 23.402344 C 93.09375 23.644531 93.023438 23.816406 92.804688 23.941406 C 92.640625 24.03125 92.519531 24.039062 92.410156 23.945312 C 92.28125 23.835938 92.207031 23.699219 92.25 23.523438 C 92.304688 23.28125 92.527344 23.164062 92.785156 23.230469 C 93.160156 23.324219 93.183594 23.300781 93.136719 22.925781 C 93.070312 22.398438 93.011719 21.863281 92.953125 21.332031 C 92.9375 21.191406 92.953125 21.035156 92.894531 20.914062 C 92.847656 20.816406 92.707031 20.761719 92.585938 20.667969 C 92.710938 20.53125 92.789062 20.445312 92.875 20.351562 C 92.894531 19.808594 92.90625 19.257812 92.941406 18.707031 C 93.164062 15.21875 94.207031 11.996094 96.085938 9.046875 C 96.1875 8.886719 96.328125 8.746094 96.226562 8.511719 C 96.171875 8.390625 96.28125 8.261719 96.421875 8.253906 C 96.605469 8.242188 96.710938 8.152344 96.816406 8.015625 C 97.941406 6.519531 99.277344 5.246094 100.820312 4.1875 C 100.863281 4.160156 100.902344 4.121094 100.941406 4.089844 C 100.878906 4.003906 100.8125 3.9375 100.777344 3.859375 C 100.730469 3.757812 100.75 3.644531 100.847656 3.578125 C 100.945312 3.511719 101.054688 3.515625 101.140625 3.601562 C 101.199219 3.664062 101.246094 3.738281 101.3125 3.835938 C 101.789062 3.578125 102.246094 3.308594 102.722656 3.074219 C 103.21875 2.832031 103.722656 2.609375 104.238281 2.410156 C 104.738281 2.21875 105.246094 2.050781 105.761719 1.90625 C 106.277344 1.761719 106.800781 1.644531 107.324219 1.546875 C 107.867188 1.449219 108.417969 1.378906 108.96875 1.320312 C 109.496094 1.261719 110.027344 1.238281 110.578125 1.195312 C 110.597656 1.097656 110.617188 1.015625 110.632812 0.933594 C 110.652344 0.828125 110.726562 0.78125 110.820312 0.773438 C 110.9375 0.761719 111.027344 0.824219 111.054688 0.945312 C 111.070312 1.027344 111.066406 1.113281 111.074219 1.210938 C 111.824219 1.261719 112.550781 1.3125 113.277344 1.363281 C 113.34375 1.371094 113.414062 1.375 113.476562 1.390625 C 113.9375 1.527344 114.402344 1.648438 114.886719 1.644531 C 114.957031 1.644531 115.046875 1.648438 115.089844 1.691406 C 115.285156 1.871094 115.542969 1.894531 115.777344 1.964844 C 117.726562 2.578125 119.480469 3.542969 121.054688 4.839844 C 121.269531 5.019531 121.460938 5.234375 121.777344 5.261719 C 121.9375 5.273438 122.089844 5.40625 122.097656 5.578125 C 122.113281 5.84375 122.296875 5.992188 122.449219 6.15625 C 123.96875 7.78125 125.015625 9.660156 125.570312 11.8125 C 125.765625 12.574219 125.890625 13.347656 125.964844 14.152344 C 126.039062 14.171875 126.117188 14.1875 126.195312 14.207031 C 126.296875 14.410156 126.398438 14.613281 126.511719 14.839844 C 126.441406 14.898438 126.359375 14.957031 126.289062 15.027344 C 126.09375 15.222656 125.988281 15.433594 125.980469 15.730469 C 125.898438 18.269531 125.015625 20.535156 123.558594 22.59375 C 122.722656 23.78125 121.730469 24.828125 120.648438 25.792969 C 120.355469 26.054688 120.058594 26.3125 119.753906 26.5625 C 119.605469 26.6875 119.542969 26.832031 119.550781 27.027344 C 119.597656 28.132812 119.640625 29.238281 119.6875 30.34375 C 119.726562 31.394531 119.769531 32.445312 119.808594 33.496094 C 119.847656 34.441406 119.886719 35.386719 119.917969 36.332031 C 119.921875 36.5625 119.914062 36.796875 119.863281 37.019531 C 119.78125 37.351562 119.5625 37.585938 119.214844 37.664062 C 118.839844 37.75 118.46875 37.578125 118.273438 37.21875 C 118.171875 37.03125 118.09375 36.839844 117.933594 36.679688 C 117.78125 36.527344 117.78125 36.316406 117.925781 36.144531 C 118.046875 35.996094 118.089844 35.84375 118.082031 35.652344 C 118.003906 33.78125 117.929688 31.910156 117.859375 30.035156 C 117.855469 29.984375 117.84375 29.933594 117.835938 29.890625 C 117.777344 29.777344 117.664062 29.839844 117.597656 29.800781 C 117.527344 29.761719 117.4375 29.6875 117.433594 29.628906 C 117.429688 29.5625 117.511719 29.480469 117.574219 29.433594 C 117.625 29.398438 117.707031 29.402344 117.808594 29.386719 C 117.84375 29.019531 117.8125 28.664062 117.78125 28.273438 C 117.3125 28.523438 116.535156 29.191406 115.878906 29.886719 C 115.875 30.105469 115.984375 30.363281 115.777344 30.574219 C 115.59375 30.761719 115.363281 30.757812 115.097656 30.777344 C 114.523438 31.5 114.113281 32.316406 113.949219 33.25 C 113.808594 34.046875 113.824219 34.847656 113.902344 35.648438 C 114.015625 36.84375 114.308594 38.003906 114.539062 39.175781 C 114.589844 39.4375 114.648438 39.699219 114.699219 39.949219 C 114.742188 39.976562 114.765625 40.007812 114.796875 40.015625 C 114.933594 40.042969 115.09375 40.039062 115.125 40.222656 C 115.148438 40.363281 115.0625 40.453125 114.949219 40.523438 C 114.90625 40.550781 114.863281 40.578125 114.824219 40.601562 C 114.960938 41.253906 114.925781 41.867188 114.796875 42.414062 C 114.921875 42.550781 114.992188 42.515625 115.054688 42.496094 C 115.355469 42.390625 115.574219 42.523438 115.757812 42.742188 C 115.988281 43.015625 115.859375 43.425781 115.511719 43.496094 C 115.234375 43.550781 114.972656 43.515625 114.792969 43.261719 C 114.742188 43.1875 114.695312 43.113281 114.625 43.007812 C 114.550781 43.097656 114.472656 43.164062 114.421875 43.25 C 114.199219 43.597656 113.9375 43.910156 113.597656 44.15625 C 113.496094 44.226562 113.421875 44.304688 113.382812 44.441406 C 113.28125 44.800781 113.214844 44.816406 112.859375 44.640625 C 112.839844 44.632812 112.824219 44.625 112.800781 44.613281 C 111.585938 45.03125 110.453125 44.835938 109.421875 44.050781 C 109.253906 44.25 109.183594 44.550781 108.851562 44.480469 C 108.667969 44.4375 108.523438 44.296875 108.492188 44.128906 C 108.453125 43.890625 108.53125 43.777344 108.898438 43.53125 C 108.898438 43.511719 108.90625 43.488281 108.898438 43.476562 C 108.472656 42.839844 108.28125 42.121094 108.144531 41.378906 C 107.898438 40.0625 107.597656 38.757812 107.378906 37.441406 C 107.101562 35.796875 107.042969 34.140625 107.28125 32.484375 C 107.566406 30.460938 108.347656 28.648438 109.539062 27 C 110.425781 25.777344 111.488281 24.722656 112.625 23.742188 C 112.773438 23.617188 112.921875 23.488281 113.085938 23.34375 C 113.027344 23.144531 112.917969 22.933594 113.132812 22.761719 C 113.332031 22.597656 113.496094 22.738281 113.6875 22.835938 C 113.792969 22.757812 113.910156 22.679688 114.019531 22.589844 C 114.800781 21.9375 115.589844 21.296875 116.351562 20.625 C 116.753906 20.273438 117.109375 19.867188 117.480469 19.484375 C 117.527344 19.4375 117.582031 19.382812 117.503906 19.3125 L 117.496094 19.320312 " fill-opacity="1" fill-rule="nonzero"/></g><g clip-path="url(#737fc75c63)"><path fill="#e09e50" d="M 109.265625 47.21875 C 109.191406 47.136719 109.136719 47.089844 109.097656 47.03125 C 109.003906 46.894531 109.011719 46.792969 109.113281 46.703125 C 109.210938 46.609375 109.332031 46.617188 109.433594 46.738281 C 109.488281 46.800781 109.527344 46.878906 109.578125 46.964844 C 109.746094 46.882812 109.886719 46.8125 110.03125 46.742188 C 111.640625 45.988281 113.496094 46.585938 114.375 48.136719 C 114.558594 48.464844 114.753906 48.78125 114.953125 49.097656 C 115.632812 50.179688 115.761719 51.324219 115.355469 52.53125 C 115.21875 52.933594 115.046875 53.300781 114.71875 53.609375 C 114.253906 54.042969 113.761719 54.40625 113.167969 54.628906 C 113.054688 54.671875 112.945312 54.726562 112.808594 54.78125 C 112.824219 55.523438 112.929688 56.246094 112.980469 56.945312 C 113.019531 56.996094 113.039062 57.03125 113.066406 57.046875 C 113.410156 57.234375 113.421875 57.300781 113.144531 57.5625 C 113.117188 57.585938 113.097656 57.613281 113.050781 57.664062 C 113.078125 57.996094 113.121094 58.351562 113.132812 58.707031 C 113.140625 58.933594 113.128906 59.171875 113.074219 59.390625 C 112.980469 59.78125 112.765625 59.945312 112.410156 59.980469 C 112.015625 60.019531 111.691406 59.894531 111.515625 59.535156 C 111.417969 59.332031 111.367188 59.09375 111.339844 58.867188 C 111.273438 58.320312 111.234375 57.765625 111.183594 57.21875 C 111.121094 56.523438 111.0625 55.832031 110.996094 55.140625 C 110.988281 55.035156 110.972656 54.929688 110.953125 54.796875 C 110.222656 54.515625 109.503906 54.222656 108.960938 53.625 C 108.40625 53.015625 108.019531 52.332031 107.84375 51.523438 C 107.675781 50.738281 107.714844 49.964844 107.957031 49.203125 C 108.195312 48.433594 108.636719 47.792969 109.265625 47.21875 " fill-opacity="1" fill-rule="nonzero"/></g><path fill="#e09e50" d="M 115.789062 55.84375 C 115.679688 55.929688 115.539062 56.03125 115.402344 56.140625 C 115.199219 56.304688 114.9375 56.203125 114.816406 55.988281 C 114.691406 55.773438 114.757812 55.511719 114.964844 55.386719 C 115.1875 55.253906 115.414062 55.269531 115.601562 55.4375 C 115.707031 55.53125 115.824219 55.625 115.789062 55.84375 " fill-opacity="1" fill-rule="nonzero"/><path fill="#e09e50" d="M 108.796875 26.320312 C 108.832031 26.210938 108.878906 26.097656 108.90625 25.984375 C 108.929688 25.886719 108.9375 25.785156 108.949219 25.691406 C 109.523438 25.628906 109.621094 25.757812 109.53125 26.410156 C 109.269531 26.613281 109.046875 26.472656 108.796875 26.320312 " fill-opacity="1" fill-rule="nonzero"/><g clip-path="url(#3938bcbc7b)"><path fill="#e09e50" d="M 109.519531 0.816406 C 109.238281 1.039062 109.027344 0.867188 108.792969 0.757812 C 108.84375 0.546875 108.898438 0.328125 108.953125 0.105469 C 109.484375 0.015625 109.601562 0.152344 109.519531 0.816406 " fill-opacity="1" fill-rule="nonzero"/></g><g clip-path="url(#9cfeb5cd54)"><path fill="#e09e50" d="M 128.269531 17.019531 C 128.238281 17.296875 128.242188 17.589844 128.113281 17.855469 C 127.882812 17.867188 127.703125 17.800781 127.617188 17.605469 C 127.574219 17.5 127.546875 17.359375 127.578125 17.257812 C 127.609375 17.152344 127.707031 17.050781 127.808594 16.992188 C 127.945312 16.910156 128.105469 16.886719 128.269531 17.019531 " fill-opacity="1" fill-rule="nonzero"/></g><path fill="#e09e50" d="M 114.726562 34.0625 C 114.5625 34.050781 114.425781 33.902344 114.433594 33.75 C 114.449219 33.457031 114.605469 33.289062 114.847656 33.316406 C 115.039062 33.335938 115.199219 33.492188 115.191406 33.652344 C 115.179688 33.882812 114.960938 34.074219 114.726562 34.0625 " fill-opacity="1" fill-rule="nonzero"/><path fill="#e09e50" d="M 122.285156 26.355469 C 122.054688 26.574219 121.839844 26.457031 121.617188 26.328125 C 121.648438 26.125 121.679688 25.921875 121.71875 25.6875 C 121.863281 25.613281 122.03125 25.605469 122.1875 25.714844 C 122.328125 25.816406 122.339844 25.941406 122.285156 26.355469 " fill-opacity="1" fill-rule="nonzero"/><path fill="#e09e50" d="M 114.464844 20.90625 C 114.488281 20.648438 114.652344 20.480469 114.851562 20.507812 C 115.054688 20.535156 115.246094 20.726562 115.222656 20.882812 C 115.191406 21.109375 114.972656 21.285156 114.742188 21.269531 C 114.539062 21.257812 114.441406 21.128906 114.464844 20.90625 " fill-opacity="1" fill-rule="nonzero"/><path fill="#e09e50" d="M 96.121094 6.046875 C 95.90625 6.039062 95.746094 5.886719 95.746094 5.691406 C 95.742188 5.503906 95.9375 5.296875 96.101562 5.304688 C 96.304688 5.3125 96.488281 5.53125 96.46875 5.738281 C 96.449219 5.9375 96.3125 6.058594 96.121094 6.046875 " fill-opacity="1" fill-rule="nonzero"/><path fill="#e09e50" d="M 114.730469 46.847656 C 114.550781 46.839844 114.449219 46.71875 114.464844 46.527344 C 114.480469 46.289062 114.621094 46.113281 114.792969 46.109375 C 114.992188 46.109375 115.191406 46.296875 115.171875 46.476562 C 115.148438 46.695312 114.957031 46.855469 114.730469 46.847656 " fill-opacity="1" fill-rule="nonzero"/><path fill="#e09e50" d="M 105.445312 36.035156 C 105.625 36.042969 105.800781 36.203125 105.804688 36.363281 C 105.8125 36.566406 105.613281 36.761719 105.390625 36.769531 C 105.234375 36.78125 105.082031 36.605469 105.078125 36.410156 C 105.074219 36.210938 105.253906 36.027344 105.445312 36.035156 " fill-opacity="1" fill-rule="nonzero"/><path fill="#e09e50" d="M 106.5625 31.082031 C 106.371094 30.996094 106.203125 30.921875 106.007812 30.835938 C 106.097656 30.667969 106.183594 30.507812 106.285156 30.316406 C 106.5 30.449219 106.6875 30.5625 106.878906 30.683594 C 106.847656 30.75 106.835938 30.800781 106.804688 30.835938 C 106.722656 30.921875 106.636719 31.003906 106.5625 31.082031 " fill-opacity="1" fill-rule="nonzero"/><path fill="#e09e50" d="M 92.367188 10.988281 C 92.414062 10.871094 92.457031 10.757812 92.507812 10.648438 C 92.550781 10.546875 92.617188 10.464844 92.746094 10.496094 C 92.871094 10.527344 92.964844 10.601562 92.984375 10.742188 C 93.007812 10.894531 92.9375 11.015625 92.757812 11.117188 C 92.617188 11.195312 92.492188 11.191406 92.367188 10.988281 " fill-opacity="1" fill-rule="nonzero"/><path fill="#e09e50" d="M 100.523438 23.308594 C 100.351562 23.316406 100.226562 23.203125 100.21875 23.023438 C 100.210938 22.839844 100.316406 22.71875 100.492188 22.710938 C 100.652344 22.703125 100.785156 22.796875 100.800781 22.929688 C 100.824219 23.125 100.695312 23.296875 100.523438 23.308594 " fill-opacity="1" fill-rule="nonzero"/><path fill="#e09e50" d="M 126.378906 10.160156 C 126.394531 10.316406 126.261719 10.496094 126.117188 10.507812 C 125.996094 10.519531 125.839844 10.382812 125.824219 10.25 C 125.804688 10.089844 125.929688 9.925781 126.089844 9.910156 C 126.222656 9.894531 126.367188 10.019531 126.378906 10.160156 " fill-opacity="1" fill-rule="nonzero"/><path fill="#e09e50" d="M 100.40625 2.417969 C 100.320312 2.261719 100.246094 2.132812 100.175781 2.003906 C 100.464844 1.730469 100.464844 1.730469 100.828125 2.023438 C 100.691406 2.148438 100.558594 2.273438 100.40625 2.417969 " fill-opacity="1" fill-rule="nonzero"/><path fill="#e09e50" d="M 100.546875 27.125 C 100.546875 27.203125 100.542969 27.246094 100.546875 27.289062 C 100.554688 27.339844 100.5625 27.394531 100.570312 27.445312 C 100.582031 27.496094 100.613281 27.546875 100.609375 27.59375 C 100.605469 27.640625 100.5625 27.6875 100.523438 27.765625 C 100.398438 27.714844 100.277344 27.664062 100.117188 27.601562 C 100.269531 27.433594 100.394531 27.296875 100.546875 27.125 " fill-opacity="1" fill-rule="nonzero"/><path fill="#e09e50" d="M 105.976562 18.109375 C 106.03125 17.882812 106.144531 17.730469 106.316406 17.578125 C 106.433594 17.742188 106.457031 17.90625 106.4375 18.109375 C 106.289062 18.109375 106.140625 18.109375 105.976562 18.109375 " fill-opacity="1" fill-rule="nonzero"/><path fill="#e09e50" d="M 102.351562 16.988281 C 102.378906 17.238281 102.257812 17.453125 102.238281 17.667969 C 102.089844 17.730469 102.035156 17.636719 102.015625 17.566406 C 101.992188 17.453125 101.976562 17.320312 102.007812 17.214844 C 102.050781 17.078125 102.164062 16.984375 102.351562 16.988281 " fill-opacity="1" fill-rule="nonzero"/><path fill="#e09e50" d="M 106.261719 43.136719 C 106.507812 43.292969 106.652344 43.382812 106.800781 43.476562 C 106.769531 43.660156 106.664062 43.75 106.480469 43.804688 C 106.417969 43.621094 106.363281 43.441406 106.261719 43.136719 " fill-opacity="1" fill-rule="nonzero"/><path fill="#e09e50" d="M 102.019531 20.542969 C 102.039062 20.773438 102.054688 20.910156 102.058594 21.046875 C 102.058594 21.09375 102.03125 21.144531 102.015625 21.191406 C 101.847656 21.234375 101.71875 21.167969 101.695312 21.011719 C 101.679688 20.90625 101.734375 20.78125 101.78125 20.675781 C 101.804688 20.628906 101.886719 20.613281 102.019531 20.542969 " fill-opacity="1" fill-rule="nonzero"/><path fill="#e09e50" d="M 113.96875 54.851562 C 113.984375 55.019531 113.882812 55.144531 113.761719 55.152344 C 113.667969 55.15625 113.558594 55.058594 113.546875 54.960938 C 113.53125 54.84375 113.644531 54.691406 113.757812 54.714844 C 113.84375 54.730469 113.914062 54.8125 113.96875 54.851562 " fill-opacity="1" fill-rule="nonzero"/><path fill="#e09e50" d="M 107.558594 40.410156 C 107.554688 40.589844 107.410156 40.738281 107.289062 40.703125 C 107.222656 40.683594 107.140625 40.597656 107.125 40.53125 C 107.097656 40.390625 107.238281 40.265625 107.390625 40.292969 C 107.460938 40.304688 107.515625 40.378906 107.558594 40.410156 " fill-opacity="1" fill-rule="nonzero"/><path fill="#e09e50" d="M 100.335938 19.136719 C 100.230469 19.148438 100.125 19.054688 100.125 18.949219 C 100.125 18.816406 100.21875 18.699219 100.335938 18.691406 C 100.429688 18.683594 100.542969 18.785156 100.550781 18.886719 C 100.5625 19.011719 100.464844 19.125 100.335938 19.136719 " fill-opacity="1" fill-rule="nonzero"/><path fill="#e09e50" d="M 125.855469 19.152344 C 125.816406 19.09375 125.734375 19.023438 125.714844 18.9375 C 125.691406 18.808594 125.808594 18.695312 125.933594 18.6875 C 126.058594 18.683594 126.175781 18.804688 126.160156 18.925781 C 126.140625 19.046875 126.023438 19.152344 125.855469 19.152344 " fill-opacity="1" fill-rule="nonzero"/><path fill="#e09e50" d="M 116.972656 51.335938 C 116.976562 51.507812 116.878906 51.625 116.761719 51.636719 C 116.664062 51.648438 116.546875 51.554688 116.53125 51.460938 C 116.511719 51.324219 116.640625 51.199219 116.804688 51.222656 C 116.875 51.230469 116.933594 51.304688 116.972656 51.335938 " fill-opacity="1" fill-rule="nonzero"/><path fill="#e09e50" d="M 126.765625 16.488281 C 126.765625 16.664062 126.652344 16.761719 126.519531 16.75 C 126.414062 16.742188 126.363281 16.679688 126.355469 16.582031 C 126.339844 16.4375 126.4375 16.3125 126.5625 16.339844 C 126.644531 16.359375 126.714844 16.449219 126.765625 16.488281 " fill-opacity="1" fill-rule="nonzero"/><path fill="#e09e50" d="M 120.203125 27.496094 C 120.234375 27.539062 120.316406 27.59375 120.324219 27.664062 C 120.34375 27.800781 120.175781 27.921875 120.039062 27.875 C 119.992188 27.855469 119.9375 27.773438 119.9375 27.71875 C 119.929688 27.574219 120.03125 27.484375 120.203125 27.496094 " fill-opacity="1" fill-rule="nonzero"/><path fill="#e09e50" d="M 110.960938 9.039062 C 110.917969 9.078125 110.863281 9.164062 110.78125 9.203125 C 110.695312 9.242188 110.578125 9.140625 110.5625 9.039062 C 110.550781 8.9375 110.628906 8.835938 110.734375 8.820312 C 110.847656 8.808594 110.945312 8.878906 110.960938 9.039062 " fill-opacity="1" fill-rule="nonzero"/><path fill="#e09e50" d="M 107.394531 53.085938 C 107.433594 53.125 107.511719 53.171875 107.535156 53.238281 C 107.574219 53.34375 107.457031 53.460938 107.324219 53.480469 C 107.246094 53.492188 107.148438 53.414062 107.144531 53.335938 C 107.132812 53.214844 107.238281 53.09375 107.394531 53.085938 " fill-opacity="1" fill-rule="nonzero"/><path fill="#e09e50" d="M 105.550781 48.914062 C 105.859375 49.203125 105.847656 49.261719 105.503906 49.476562 C 105.492188 49.425781 105.46875 49.375 105.476562 49.332031 C 105.488281 49.214844 105.515625 49.101562 105.550781 48.914062 " fill-opacity="1" fill-rule="nonzero"/><g clip-path="url(#6fa28d5f3f)"><path fill="#e09e50" d="M 116.71875 0.472656 C 116.652344 0.371094 116.578125 0.308594 116.578125 0.242188 C 116.578125 0.132812 116.664062 0.0625 116.78125 0.0507812 C 116.886719 0.0390625 116.996094 0.160156 116.945312 0.253906 C 116.90625 0.332031 116.816406 0.382812 116.71875 0.472656 " fill-opacity="1" fill-rule="nonzero"/></g><path fill="#e09e50" d="M 101.226562 16.546875 C 101.113281 16.632812 101.046875 16.714844 100.960938 16.746094 C 100.859375 16.78125 100.761719 16.667969 100.769531 16.554688 C 100.777344 16.445312 100.878906 16.320312 100.964844 16.347656 C 101.046875 16.375 101.117188 16.457031 101.226562 16.546875 " fill-opacity="1" fill-rule="nonzero"/><path fill="#e09e50" d="M 117.503906 19.3125 C 117.421875 19.167969 117.324219 19.3125 117.234375 19.300781 C 117.078125 19.277344 117 19.109375 117.101562 18.988281 C 117.140625 18.945312 117.222656 18.921875 117.28125 18.921875 C 117.320312 18.921875 117.359375 18.980469 117.390625 19.019531 C 117.472656 19.101562 117.300781 19.273438 117.496094 19.320312 C 117.496094 19.320312 117.503906 19.3125 117.503906 19.3125 " fill-opacity="1" fill-rule="nonzero"/><g clip-path="url(#4adb713437)"><path fill="#e09e50" d="M 104.226562 0.1875 C 104.113281 0.285156 104.046875 0.367188 103.964844 0.402344 C 103.890625 0.4375 103.785156 0.339844 103.789062 0.257812 C 103.792969 0.152344 103.859375 0.0820312 103.949219 0.0820312 C 104.023438 0.078125 104.097656 0.132812 104.226562 0.1875 " fill-opacity="1" fill-rule="nonzero"/></g><path fill="#e09e50" d="M 116.738281 13.265625 C 116.667969 13.15625 116.597656 13.09375 116.589844 13.027344 C 116.578125 12.925781 116.699219 12.835938 116.804688 12.835938 C 116.894531 12.839844 116.996094 12.9375 116.957031 13.011719 C 116.917969 13.09375 116.835938 13.15625 116.738281 13.265625 " fill-opacity="1" fill-rule="nonzero"/><g clip-path="url(#c6335ee266)"><path fill="#e09e50" d="M 92.253906 16.859375 C 92.144531 16.917969 92.078125 16.972656 92.003906 16.980469 C 91.90625 16.992188 91.84375 16.914062 91.835938 16.816406 C 91.832031 16.714844 91.96875 16.609375 92.058594 16.652344 C 92.125 16.6875 92.167969 16.765625 92.253906 16.859375 " fill-opacity="1" fill-rule="nonzero"/></g><path fill="#e09e50" d="M 107.527344 27.648438 C 107.539062 27.769531 107.429688 27.894531 107.300781 27.875 C 107.25 27.867188 107.179688 27.800781 107.164062 27.75 C 107.136719 27.652344 107.230469 27.539062 107.332031 27.519531 C 107.414062 27.503906 107.519531 27.574219 107.527344 27.648438 " fill-opacity="1" fill-rule="nonzero"/><path fill="#e09e50" d="M 94.734375 27.628906 C 94.726562 27.789062 94.609375 27.886719 94.484375 27.875 C 94.402344 27.867188 94.34375 27.777344 94.359375 27.683594 C 94.378906 27.578125 94.480469 27.476562 94.570312 27.507812 C 94.636719 27.527344 94.691406 27.597656 94.734375 27.628906 " fill-opacity="1" fill-rule="nonzero"/><path fill="#e09e50" d="M 123.492188 23.425781 C 123.5625 23.523438 123.648438 23.589844 123.640625 23.648438 C 123.632812 23.707031 123.546875 23.785156 123.476562 23.804688 C 123.382812 23.835938 123.265625 23.707031 123.304688 23.617188 C 123.332031 23.550781 123.410156 23.507812 123.492188 23.425781 " fill-opacity="1" fill-rule="nonzero"/><path fill="#e09e50" d="M 125.996094 23.164062 C 125.855469 22.980469 125.851562 22.949219 125.949219 22.832031 C 126.007812 22.757812 126.144531 22.730469 126.167969 22.792969 C 126.1875 22.847656 126.175781 22.917969 126.164062 22.980469 C 126.148438 23.023438 126.113281 23.066406 126.078125 23.105469 C 126.058594 23.128906 126.023438 23.144531 125.996094 23.164062 " fill-opacity="1" fill-rule="nonzero"/><path fill="#e09e50" d="M 126.832031 13.3125 C 126.796875 13.347656 126.75 13.421875 126.683594 13.441406 C 126.59375 13.472656 126.515625 13.414062 126.492188 13.316406 C 126.464844 13.210938 126.546875 13.113281 126.664062 13.109375 C 126.773438 13.105469 126.816406 13.171875 126.832031 13.3125 " fill-opacity="1" fill-rule="nonzero"/><path fill="#e09e50" d="M 116.902344 38.628906 C 116.839844 38.699219 116.808594 38.761719 116.753906 38.785156 C 116.6875 38.816406 116.585938 38.726562 116.582031 38.644531 C 116.574219 38.554688 116.664062 38.460938 116.746094 38.492188 C 116.796875 38.507812 116.835938 38.570312 116.902344 38.628906 " fill-opacity="1" fill-rule="nonzero"/><path fill="#e09e50" d="M 117.855469 16.832031 C 117.742188 16.902344 117.683594 16.964844 117.609375 16.980469 C 117.519531 17 117.441406 16.910156 117.449219 16.816406 C 117.453125 16.726562 117.542969 16.632812 117.621094 16.660156 C 117.691406 16.6875 117.75 16.75 117.855469 16.832031 " fill-opacity="1" fill-rule="nonzero"/><g clip-path="url(#5f567d0f9d)"><path fill="#e09e50" d="M 91.609375 18.894531 C 91.6875 18.964844 91.753906 19 91.78125 19.054688 C 91.824219 19.140625 91.753906 19.242188 91.660156 19.234375 C 91.601562 19.226562 91.496094 19.167969 91.5 19.140625 C 91.507812 19.070312 91.558594 19 91.609375 18.894531 " fill-opacity="1" fill-rule="nonzero"/></g><path fill="#e09e50" d="M 120.21875 1.949219 C 120.234375 1.980469 120.289062 2.03125 120.292969 2.085938 C 120.300781 2.199219 120.210938 2.277344 120.097656 2.285156 C 120.011719 2.292969 119.941406 2.210938 119.957031 2.113281 C 119.96875 2 120.050781 1.9375 120.21875 1.949219 " fill-opacity="1" fill-rule="nonzero"/><path fill="#e09e50" d="M 102.351562 1.867188 C 102.257812 1.953125 102.207031 2.03125 102.140625 2.050781 C 102.0625 2.074219 101.949219 1.917969 101.980469 1.828125 C 101.996094 1.777344 102.082031 1.710938 102.125 1.714844 C 102.195312 1.726562 102.253906 1.796875 102.351562 1.867188 " fill-opacity="1" fill-rule="nonzero"/><g clip-path="url(#db7024a2ea)"><path fill="#e09e50" d="M 114.109375 0.453125 C 114.015625 0.550781 113.96875 0.621094 113.90625 0.664062 C 113.84375 0.699219 113.730469 0.613281 113.714844 0.53125 C 113.699219 0.4375 113.761719 0.335938 113.847656 0.34375 C 113.917969 0.351562 113.988281 0.398438 114.109375 0.453125 " fill-opacity="1" fill-rule="nonzero"/></g><path fill="#e09e50" d="M 101.265625 26.109375 C 101.160156 26.15625 101.089844 26.210938 101.046875 26.195312 C 101 26.179688 100.976562 26.097656 100.941406 26.042969 C 100.996094 26.011719 101.050781 25.953125 101.101562 25.957031 C 101.144531 25.960938 101.1875 26.03125 101.265625 26.109375 " fill-opacity="1" fill-rule="nonzero"/><path fill="#e09e50" d="M 127.925781 14.644531 C 127.847656 14.726562 127.808594 14.796875 127.757812 14.808594 C 127.65625 14.835938 127.601562 14.75 127.578125 14.664062 C 127.558594 14.582031 127.617188 14.515625 127.6875 14.523438 C 127.757812 14.53125 127.820312 14.589844 127.925781 14.644531 " fill-opacity="1" fill-rule="nonzero"/><path fill="#e09e50" d="M 102.339844 14.648438 C 102.25 14.730469 102.199219 14.8125 102.136719 14.828125 C 102.050781 14.851562 101.941406 14.703125 101.976562 14.609375 C 101.992188 14.5625 102.074219 14.496094 102.121094 14.503906 C 102.183594 14.511719 102.242188 14.578125 102.339844 14.648438 " fill-opacity="1" fill-rule="nonzero"/><path fill="#e09e50" d="M 110.707031 23.46875 C 110.757812 23.558594 110.820312 23.621094 110.8125 23.667969 C 110.800781 23.71875 110.71875 23.75 110.667969 23.789062 C 110.628906 23.738281 110.5625 23.6875 110.5625 23.636719 C 110.5625 23.589844 110.636719 23.542969 110.707031 23.46875 " fill-opacity="1" fill-rule="nonzero"/><path fill="#e09e50" d="M 105.757812 33.414062 C 105.699219 33.460938 105.660156 33.515625 105.628906 33.507812 C 105.585938 33.503906 105.554688 33.449219 105.519531 33.414062 C 105.558594 33.382812 105.589844 33.335938 105.628906 33.332031 C 105.664062 33.328125 105.703125 33.375 105.757812 33.414062 " fill-opacity="1" fill-rule="nonzero"/><path fill="#e09e50" d="M 100.535156 24.167969 C 100.511719 24.109375 100.472656 24.0625 100.484375 24.03125 C 100.496094 24 100.550781 23.984375 100.589844 23.960938 C 100.613281 23.996094 100.65625 24.039062 100.652344 24.070312 C 100.648438 24.101562 100.589844 24.125 100.535156 24.167969 " fill-opacity="1" fill-rule="nonzero"/><path fill="#e09e50" d="M 126.125 11.378906 C 126.105469 11.3125 126.089844 11.265625 126.078125 11.222656 C 126.121094 11.210938 126.164062 11.191406 126.207031 11.191406 C 126.21875 11.191406 126.253906 11.253906 126.246094 11.269531 C 126.21875 11.304688 126.179688 11.332031 126.125 11.378906 " fill-opacity="1" fill-rule="nonzero"/><path fill="#e09e50" d="M 117.257812 31.886719 C 117.265625 31.875 117.273438 31.863281 117.277344 31.851562 C 117.292969 31.871094 117.3125 31.890625 117.324219 31.910156 C 117.324219 31.914062 117.304688 31.929688 117.292969 31.941406 C 117.28125 31.925781 117.269531 31.90625 117.257812 31.886719 " fill-opacity="1" fill-rule="nonzero"/><g clip-path="url(#013e749047)"><path fill="#e09e50" d="M 178.289062 19.320312 C 178.320312 19.328125 178.367188 19.355469 178.375 19.34375 C 179.371094 18.199219 180.054688 16.914062 180.085938 15.359375 C 180.117188 13.636719 179.589844 12.105469 178.414062 10.816406 C 177.722656 10.058594 176.921875 9.449219 176.019531 8.96875 C 175.972656 8.945312 175.917969 8.941406 175.867188 8.929688 C 175.816406 8.886719 175.75 8.847656 175.710938 8.921875 C 175.6875 8.964844 175.714844 9.035156 175.71875 9.09375 C 175.683594 9.265625 175.667969 9.445312 175.613281 9.613281 C 175.492188 10.011719 175.25 10.183594 174.832031 10.195312 C 174.726562 10.195312 174.617188 10.195312 174.492188 10.195312 C 174.441406 10.246094 174.386719 10.316406 174.320312 10.375 C 174.195312 10.480469 174.03125 10.492188 173.9375 10.398438 C 173.835938 10.300781 173.824219 10.175781 173.882812 10.054688 C 173.917969 9.972656 173.976562 9.90625 174.011719 9.851562 C 173.90625 9.292969 173.800781 8.753906 173.691406 8.203125 C 173.429688 8.019531 173.113281 8.046875 172.820312 8.011719 C 171.988281 7.910156 171.152344 7.917969 170.296875 7.996094 C 170.253906 8.363281 170.285156 8.695312 170.300781 9.027344 C 170.324219 9.5625 170.355469 10.097656 170.378906 10.628906 C 170.386719 10.808594 170.355469 10.976562 170.269531 11.144531 C 170.109375 11.46875 169.832031 11.589844 169.488281 11.660156 C 169.425781 11.640625 169.34375 11.605469 169.257812 11.585938 C 168.898438 11.503906 168.714844 11.261719 168.648438 10.921875 C 168.601562 10.695312 168.574219 10.464844 168.554688 10.234375 C 168.519531 9.753906 168.496094 9.269531 168.464844 8.789062 C 168.453125 8.671875 168.421875 8.554688 168.402344 8.441406 C 167.824219 8.441406 166.484375 8.996094 165.878906 9.480469 C 165.878906 9.570312 165.875 9.675781 165.882812 9.78125 C 165.894531 9.972656 165.914062 10.167969 165.933594 10.382812 C 166.085938 10.40625 166.230469 10.410156 166.355469 10.457031 C 166.628906 10.558594 166.679688 10.859375 166.460938 11.054688 C 166.394531 11.113281 166.3125 11.15625 166.234375 11.195312 C 166.171875 11.226562 166.101562 11.242188 166.015625 11.273438 C 166.015625 11.398438 166.007812 11.519531 166.015625 11.640625 C 166.234375 14.34375 166.457031 17.046875 166.675781 19.75 C 166.695312 19.964844 166.710938 20.175781 166.71875 20.390625 C 166.722656 20.515625 166.71875 20.644531 166.695312 20.765625 C 166.605469 21.191406 166.289062 21.480469 165.890625 21.503906 C 165.511719 21.527344 165.167969 21.304688 165.023438 20.917969 C 164.957031 20.734375 164.925781 20.535156 164.910156 20.34375 C 164.839844 19.578125 164.777344 18.8125 164.714844 18.050781 C 164.53125 15.773438 164.351562 13.496094 164.167969 11.21875 C 164.160156 11.117188 164.144531 11.015625 164.136719 10.933594 C 163.964844 10.855469 163.910156 10.964844 163.839844 11.035156 C 163.195312 11.683594 162.648438 12.410156 162.199219 13.203125 C 162.03125 13.5 161.878906 13.800781 161.71875 14.101562 C 161.59375 14.34375 161.457031 14.589844 161.777344 14.804688 C 161.644531 14.914062 161.558594 14.972656 161.484375 15.046875 C 161.296875 15.238281 161.152344 15.449219 161.070312 15.714844 C 160.367188 17.957031 160.171875 20.21875 160.675781 22.527344 C 160.792969 23.074219 160.832031 23.621094 160.71875 24.175781 C 160.554688 24.976562 160.167969 25.644531 159.519531 26.140625 C 159.292969 26.316406 159.074219 26.488281 158.953125 26.785156 C 158.605469 26.652344 158.285156 26.777344 157.957031 26.824219 C 156.597656 27.023438 155.292969 26.390625 154.601562 25.207031 C 154.335938 24.753906 154.179688 24.261719 154.082031 23.75 C 154.046875 23.578125 154.007812 23.410156 153.917969 23.144531 C 153.851562 23.296875 153.800781 23.359375 153.8125 23.402344 C 153.886719 23.644531 153.816406 23.816406 153.597656 23.941406 C 153.433594 24.03125 153.3125 24.039062 153.203125 23.945312 C 153.074219 23.835938 153 23.699219 153.042969 23.523438 C 153.097656 23.28125 153.316406 23.164062 153.578125 23.230469 C 153.953125 23.324219 153.976562 23.300781 153.929688 22.925781 C 153.863281 22.398438 153.804688 21.863281 153.746094 21.332031 C 153.726562 21.191406 153.746094 21.035156 153.6875 20.914062 C 153.636719 20.816406 153.5 20.761719 153.378906 20.667969 C 153.503906 20.53125 153.582031 20.445312 153.667969 20.351562 C 153.6875 19.808594 153.699219 19.257812 153.734375 18.707031 C 153.957031 15.21875 155 11.996094 156.878906 9.046875 C 156.980469 8.886719 157.121094 8.746094 157.019531 8.511719 C 156.964844 8.390625 157.074219 8.261719 157.214844 8.253906 C 157.398438 8.242188 157.503906 8.152344 157.605469 8.015625 C 158.734375 6.519531 160.070312 5.246094 161.613281 4.1875 C 161.65625 4.160156 161.695312 4.121094 161.734375 4.089844 C 161.671875 4.003906 161.605469 3.9375 161.570312 3.859375 C 161.523438 3.757812 161.539062 3.644531 161.640625 3.578125 C 161.738281 3.511719 161.847656 3.515625 161.933594 3.601562 C 161.992188 3.664062 162.035156 3.738281 162.105469 3.835938 C 162.578125 3.578125 163.039062 3.308594 163.515625 3.074219 C 164.011719 2.832031 164.515625 2.609375 165.03125 2.410156 C 165.53125 2.21875 166.039062 2.050781 166.554688 1.90625 C 167.070312 1.761719 167.59375 1.644531 168.117188 1.546875 C 168.660156 1.449219 169.210938 1.378906 169.761719 1.320312 C 170.289062 1.261719 170.820312 1.238281 171.371094 1.195312 C 171.390625 1.097656 171.410156 1.015625 171.425781 0.933594 C 171.445312 0.828125 171.519531 0.78125 171.613281 0.773438 C 171.730469 0.761719 171.820312 0.824219 171.84375 0.945312 C 171.863281 1.027344 171.859375 1.113281 171.867188 1.210938 C 172.613281 1.261719 173.34375 1.3125 174.070312 1.363281 C 174.136719 1.371094 174.207031 1.375 174.269531 1.390625 C 174.730469 1.527344 175.195312 1.648438 175.679688 1.644531 C 175.75 1.644531 175.839844 1.648438 175.882812 1.691406 C 176.078125 1.871094 176.335938 1.894531 176.570312 1.964844 C 178.519531 2.578125 180.273438 3.542969 181.84375 4.839844 C 182.0625 5.019531 182.25 5.234375 182.570312 5.261719 C 182.730469 5.273438 182.882812 5.40625 182.890625 5.578125 C 182.90625 5.84375 183.085938 5.992188 183.242188 6.15625 C 184.761719 7.78125 185.808594 9.660156 186.363281 11.8125 C 186.558594 12.574219 186.683594 13.347656 186.757812 14.152344 C 186.832031 14.171875 186.910156 14.1875 186.988281 14.207031 C 187.089844 14.410156 187.191406 14.613281 187.304688 14.839844 C 187.234375 14.898438 187.152344 14.957031 187.082031 15.027344 C 186.886719 15.222656 186.78125 15.433594 186.773438 15.730469 C 186.691406 18.269531 185.804688 20.535156 184.351562 22.59375 C 183.515625 23.78125 182.523438 24.828125 181.441406 25.792969 C 181.148438 26.054688 180.851562 26.3125 180.546875 26.5625 C 180.398438 26.6875 180.335938 26.832031 180.34375 27.027344 C 180.390625 28.132812 180.433594 29.238281 180.476562 30.34375 C 180.519531 31.394531 180.5625 32.445312 180.601562 33.496094 C 180.640625 34.441406 180.679688 35.386719 180.707031 36.332031 C 180.714844 36.5625 180.707031 36.796875 180.65625 37.019531 C 180.574219 37.351562 180.355469 37.585938 180.007812 37.664062 C 179.632812 37.75 179.261719 37.578125 179.0625 37.21875 C 178.964844 37.03125 178.886719 36.839844 178.726562 36.679688 C 178.574219 36.527344 178.574219 36.316406 178.714844 36.144531 C 178.839844 35.996094 178.882812 35.84375 178.875 35.652344 C 178.796875 33.78125 178.722656 31.910156 178.648438 30.035156 C 178.648438 29.984375 178.636719 29.933594 178.628906 29.890625 C 178.570312 29.777344 178.457031 29.839844 178.390625 29.800781 C 178.320312 29.761719 178.230469 29.6875 178.226562 29.628906 C 178.222656 29.5625 178.304688 29.480469 178.367188 29.433594 C 178.417969 29.398438 178.5 29.402344 178.601562 29.386719 C 178.636719 29.019531 178.605469 28.664062 178.574219 28.273438 C 178.105469 28.523438 177.324219 29.191406 176.671875 29.886719 C 176.667969 30.105469 176.777344 30.363281 176.570312 30.574219 C 176.386719 30.761719 176.152344 30.757812 175.890625 30.777344 C 175.316406 31.5 174.90625 32.316406 174.742188 33.25 C 174.601562 34.046875 174.617188 34.847656 174.695312 35.648438 C 174.808594 36.84375 175.101562 38.003906 175.328125 39.175781 C 175.382812 39.4375 175.441406 39.699219 175.492188 39.949219 C 175.535156 39.976562 175.558594 40.007812 175.585938 40.015625 C 175.726562 40.042969 175.886719 40.039062 175.917969 40.222656 C 175.941406 40.363281 175.851562 40.453125 175.742188 40.523438 C 175.699219 40.550781 175.65625 40.578125 175.617188 40.601562 C 175.753906 41.253906 175.71875 41.867188 175.589844 42.414062 C 175.714844 42.550781 175.785156 42.515625 175.847656 42.496094 C 176.148438 42.390625 176.367188 42.523438 176.550781 42.742188 C 176.78125 43.015625 176.652344 43.425781 176.304688 43.496094 C 176.027344 43.550781 175.765625 43.515625 175.585938 43.261719 C 175.535156 43.1875 175.488281 43.113281 175.417969 43.007812 C 175.34375 43.097656 175.265625 43.164062 175.210938 43.25 C 174.992188 43.597656 174.730469 43.910156 174.390625 44.15625 C 174.289062 44.226562 174.214844 44.304688 174.175781 44.441406 C 174.074219 44.800781 174.007812 44.816406 173.648438 44.640625 C 173.632812 44.632812 173.617188 44.625 173.59375 44.613281 C 172.375 45.03125 171.246094 44.835938 170.214844 44.050781 C 170.042969 44.25 169.976562 44.550781 169.644531 44.480469 C 169.460938 44.4375 169.316406 44.296875 169.285156 44.128906 C 169.246094 43.890625 169.324219 43.777344 169.6875 43.53125 C 169.691406 43.511719 169.699219 43.488281 169.691406 43.476562 C 169.265625 42.839844 169.074219 42.121094 168.9375 41.378906 C 168.691406 40.0625 168.390625 38.757812 168.171875 37.441406 C 167.894531 35.796875 167.835938 34.140625 168.074219 32.484375 C 168.359375 30.460938 169.140625 28.648438 170.332031 27 C 171.21875 25.777344 172.28125 24.722656 173.417969 23.742188 C 173.566406 23.617188 173.714844 23.488281 173.878906 23.34375 C 173.820312 23.144531 173.710938 22.933594 173.921875 22.761719 C 174.125 22.597656 174.289062 22.738281 174.480469 22.835938 C 174.585938 22.757812 174.703125 22.679688 174.8125 22.589844 C 175.59375 21.9375 176.382812 21.296875 177.144531 20.625 C 177.546875 20.273438 177.898438 19.867188 178.273438 19.484375 C 178.320312 19.4375 178.375 19.382812 178.296875 19.3125 L 178.289062 19.320312 " fill-opacity="1" fill-rule="nonzero"/></g><g clip-path="url(#51057d89b2)"><path fill="#e09e50" d="M 170.058594 47.21875 C 169.984375 47.136719 169.929688 47.089844 169.890625 47.03125 C 169.796875 46.894531 169.804688 46.792969 169.902344 46.703125 C 170.003906 46.609375 170.125 46.617188 170.226562 46.738281 C 170.28125 46.800781 170.320312 46.878906 170.371094 46.964844 C 170.539062 46.882812 170.679688 46.8125 170.824219 46.742188 C 172.433594 45.988281 174.289062 46.585938 175.167969 48.136719 C 175.351562 48.464844 175.546875 48.78125 175.746094 49.097656 C 176.425781 50.179688 176.550781 51.324219 176.148438 52.53125 C 176.011719 52.933594 175.839844 53.300781 175.511719 53.609375 C 175.046875 54.042969 174.554688 54.40625 173.960938 54.628906 C 173.847656 54.671875 173.738281 54.726562 173.601562 54.78125 C 173.617188 55.523438 173.722656 56.246094 173.773438 56.945312 C 173.8125 56.996094 173.832031 57.03125 173.859375 57.046875 C 174.203125 57.234375 174.214844 57.300781 173.9375 57.5625 C 173.910156 57.585938 173.890625 57.613281 173.84375 57.664062 C 173.871094 57.996094 173.914062 58.351562 173.925781 58.707031 C 173.933594 58.933594 173.921875 59.171875 173.867188 59.390625 C 173.773438 59.78125 173.558594 59.945312 173.203125 59.980469 C 172.808594 60.019531 172.484375 59.894531 172.308594 59.535156 C 172.210938 59.332031 172.160156 59.09375 172.132812 58.867188 C 172.066406 58.320312 172.027344 57.765625 171.976562 57.21875 C 171.914062 56.523438 171.851562 55.832031 171.789062 55.140625 C 171.78125 55.035156 171.765625 54.929688 171.746094 54.796875 C 171.015625 54.515625 170.296875 54.222656 169.753906 53.625 C 169.199219 53.015625 168.8125 52.332031 168.636719 51.523438 C 168.46875 50.738281 168.507812 49.964844 168.746094 49.203125 C 168.988281 48.433594 169.429688 47.792969 170.058594 47.21875 " fill-opacity="1" fill-rule="nonzero"/></g><path fill="#e09e50" d="M 176.582031 55.84375 C 176.472656 55.929688 176.332031 56.03125 176.195312 56.140625 C 175.992188 56.304688 175.730469 56.203125 175.609375 55.988281 C 175.484375 55.773438 175.550781 55.511719 175.757812 55.386719 C 175.980469 55.253906 176.207031 55.269531 176.394531 55.4375 C 176.5 55.53125 176.613281 55.625 176.582031 55.84375 " fill-opacity="1" fill-rule="nonzero"/><path fill="#e09e50" d="M 169.589844 26.320312 C 169.625 26.210938 169.667969 26.097656 169.699219 25.984375 C 169.722656 25.886719 169.730469 25.785156 169.742188 25.691406 C 170.316406 25.628906 170.414062 25.757812 170.324219 26.410156 C 170.0625 26.613281 169.839844 26.472656 169.589844 26.320312 " fill-opacity="1" fill-rule="nonzero"/><g clip-path="url(#9a26cb801d)"><path fill="#e09e50" d="M 170.3125 0.816406 C 170.027344 1.039062 169.820312 0.867188 169.585938 0.757812 C 169.636719 0.546875 169.691406 0.328125 169.746094 0.105469 C 170.277344 0.015625 170.390625 0.152344 170.3125 0.816406 " fill-opacity="1" fill-rule="nonzero"/></g><g clip-path="url(#a5289d5067)"><path fill="#e09e50" d="M 189.0625 17.019531 C 189.027344 17.296875 189.035156 17.589844 188.90625 17.855469 C 188.675781 17.867188 188.496094 17.800781 188.410156 17.605469 C 188.363281 17.5 188.335938 17.359375 188.371094 17.257812 C 188.402344 17.152344 188.5 17.050781 188.597656 16.992188 C 188.734375 16.910156 188.898438 16.886719 189.0625 17.019531 " fill-opacity="1" fill-rule="nonzero"/></g><path fill="#e09e50" d="M 175.519531 34.0625 C 175.355469 34.050781 175.21875 33.902344 175.226562 33.75 C 175.238281 33.457031 175.398438 33.289062 175.640625 33.316406 C 175.828125 33.335938 175.992188 33.492188 175.984375 33.652344 C 175.972656 33.882812 175.753906 34.074219 175.519531 34.0625 " fill-opacity="1" fill-rule="nonzero"/><path fill="#e09e50" d="M 183.078125 26.355469 C 182.847656 26.574219 182.628906 26.457031 182.410156 26.328125 C 182.441406 26.125 182.472656 25.921875 182.511719 25.6875 C 182.65625 25.613281 182.824219 25.605469 182.980469 25.714844 C 183.121094 25.816406 183.132812 25.941406 183.078125 26.355469 " fill-opacity="1" fill-rule="nonzero"/><path fill="#e09e50" d="M 175.253906 20.90625 C 175.28125 20.648438 175.445312 20.480469 175.644531 20.507812 C 175.847656 20.535156 176.039062 20.726562 176.015625 20.882812 C 175.984375 21.109375 175.765625 21.285156 175.535156 21.269531 C 175.332031 21.257812 175.234375 21.128906 175.253906 20.90625 " fill-opacity="1" fill-rule="nonzero"/><path fill="#e09e50" d="M 156.914062 6.046875 C 156.699219 6.039062 156.539062 5.886719 156.539062 5.691406 C 156.535156 5.503906 156.726562 5.296875 156.894531 5.304688 C 157.097656 5.3125 157.28125 5.53125 157.257812 5.738281 C 157.238281 5.9375 157.105469 6.058594 156.914062 6.046875 " fill-opacity="1" fill-rule="nonzero"/><path fill="#e09e50" d="M 175.523438 46.847656 C 175.339844 46.839844 175.242188 46.71875 175.253906 46.527344 C 175.273438 46.289062 175.414062 46.113281 175.585938 46.109375 C 175.785156 46.109375 175.980469 46.296875 175.964844 46.476562 C 175.941406 46.695312 175.75 46.855469 175.523438 46.847656 " fill-opacity="1" fill-rule="nonzero"/><path fill="#e09e50" d="M 166.238281 36.035156 C 166.414062 36.042969 166.59375 36.203125 166.597656 36.363281 C 166.601562 36.566406 166.40625 36.761719 166.183594 36.769531 C 166.027344 36.78125 165.875 36.605469 165.871094 36.410156 C 165.867188 36.210938 166.042969 36.027344 166.238281 36.035156 " fill-opacity="1" fill-rule="nonzero"/><path fill="#e09e50" d="M 167.355469 31.082031 C 167.164062 30.996094 166.996094 30.921875 166.800781 30.835938 C 166.886719 30.667969 166.976562 30.507812 167.078125 30.316406 C 167.292969 30.449219 167.476562 30.5625 167.671875 30.683594 C 167.640625 30.75 167.625 30.800781 167.597656 30.835938 C 167.515625 30.921875 167.429688 31.003906 167.355469 31.082031 " fill-opacity="1" fill-rule="nonzero"/><path fill="#e09e50" d="M 153.160156 10.988281 C 153.207031 10.871094 153.25 10.757812 153.300781 10.648438 C 153.34375 10.546875 153.410156 10.464844 153.535156 10.496094 C 153.664062 10.527344 153.757812 10.601562 153.777344 10.742188 C 153.800781 10.894531 153.730469 11.015625 153.550781 11.117188 C 153.410156 11.195312 153.285156 11.191406 153.160156 10.988281 " fill-opacity="1" fill-rule="nonzero"/><path fill="#e09e50" d="M 161.316406 23.308594 C 161.144531 23.316406 161.019531 23.203125 161.011719 23.023438 C 161.003906 22.839844 161.109375 22.71875 161.285156 22.710938 C 161.445312 22.703125 161.578125 22.796875 161.59375 22.929688 C 161.617188 23.125 161.488281 23.296875 161.316406 23.308594 " fill-opacity="1" fill-rule="nonzero"/><path fill="#e09e50" d="M 187.171875 10.160156 C 187.1875 10.316406 187.050781 10.496094 186.910156 10.507812 C 186.789062 10.519531 186.632812 10.382812 186.617188 10.25 C 186.597656 10.089844 186.722656 9.925781 186.878906 9.910156 C 187.015625 9.894531 187.160156 10.019531 187.171875 10.160156 " fill-opacity="1" fill-rule="nonzero"/><path fill="#e09e50" d="M 161.195312 2.417969 C 161.113281 2.261719 161.039062 2.132812 160.96875 2.003906 C 161.257812 1.730469 161.257812 1.730469 161.621094 2.023438 C 161.484375 2.148438 161.351562 2.273438 161.195312 2.417969 " fill-opacity="1" fill-rule="nonzero"/><path fill="#e09e50" d="M 161.339844 27.125 C 161.339844 27.203125 161.335938 27.246094 161.339844 27.289062 C 161.34375 27.339844 161.355469 27.394531 161.363281 27.445312 C 161.375 27.496094 161.40625 27.546875 161.402344 27.59375 C 161.394531 27.640625 161.355469 27.6875 161.316406 27.765625 C 161.191406 27.714844 161.066406 27.664062 160.910156 27.601562 C 161.0625 27.433594 161.1875 27.296875 161.339844 27.125 " fill-opacity="1" fill-rule="nonzero"/><path fill="#e09e50" d="M 166.769531 18.109375 C 166.824219 17.882812 166.9375 17.730469 167.109375 17.578125 C 167.226562 17.742188 167.25 17.90625 167.230469 18.109375 C 167.082031 18.109375 166.933594 18.109375 166.769531 18.109375 " fill-opacity="1" fill-rule="nonzero"/><path fill="#e09e50" d="M 163.144531 16.988281 C 163.171875 17.238281 163.050781 17.453125 163.03125 17.667969 C 162.882812 17.730469 162.824219 17.636719 162.808594 17.566406 C 162.78125 17.453125 162.769531 17.320312 162.800781 17.214844 C 162.84375 17.078125 162.957031 16.984375 163.144531 16.988281 " fill-opacity="1" fill-rule="nonzero"/><path fill="#e09e50" d="M 167.054688 43.136719 C 167.300781 43.292969 167.445312 43.382812 167.59375 43.476562 C 167.5625 43.660156 167.457031 43.75 167.273438 43.804688 C 167.210938 43.621094 167.152344 43.441406 167.054688 43.136719 " fill-opacity="1" fill-rule="nonzero"/><path fill="#e09e50" d="M 162.8125 20.542969 C 162.832031 20.773438 162.847656 20.910156 162.851562 21.046875 C 162.851562 21.09375 162.824219 21.144531 162.808594 21.191406 C 162.640625 21.234375 162.511719 21.167969 162.488281 21.011719 C 162.472656 20.90625 162.527344 20.78125 162.574219 20.675781 C 162.59375 20.628906 162.679688 20.613281 162.8125 20.542969 " fill-opacity="1" fill-rule="nonzero"/><path fill="#e09e50" d="M 174.761719 54.851562 C 174.777344 55.019531 174.675781 55.144531 174.554688 55.152344 C 174.460938 55.15625 174.351562 55.058594 174.335938 54.960938 C 174.324219 54.84375 174.4375 54.691406 174.550781 54.714844 C 174.636719 54.730469 174.707031 54.8125 174.761719 54.851562 " fill-opacity="1" fill-rule="nonzero"/><path fill="#e09e50" d="M 168.351562 40.410156 C 168.347656 40.589844 168.203125 40.738281 168.078125 40.703125 C 168.011719 40.683594 167.933594 40.597656 167.917969 40.53125 C 167.890625 40.390625 168.027344 40.265625 168.183594 40.292969 C 168.253906 40.304688 168.308594 40.378906 168.351562 40.410156 " fill-opacity="1" fill-rule="nonzero"/><path fill="#e09e50" d="M 161.128906 19.136719 C 161.023438 19.148438 160.917969 19.054688 160.917969 18.949219 C 160.917969 18.816406 161.011719 18.699219 161.128906 18.691406 C 161.222656 18.683594 161.335938 18.785156 161.34375 18.886719 C 161.355469 19.011719 161.257812 19.125 161.128906 19.136719 " fill-opacity="1" fill-rule="nonzero"/><path fill="#e09e50" d="M 186.648438 19.152344 C 186.609375 19.09375 186.527344 19.023438 186.507812 18.9375 C 186.484375 18.808594 186.601562 18.695312 186.726562 18.6875 C 186.851562 18.683594 186.96875 18.804688 186.953125 18.925781 C 186.933594 19.046875 186.816406 19.152344 186.648438 19.152344 " fill-opacity="1" fill-rule="nonzero"/><path fill="#e09e50" d="M 177.765625 51.335938 C 177.765625 51.507812 177.671875 51.625 177.550781 51.636719 C 177.457031 51.648438 177.339844 51.554688 177.324219 51.460938 C 177.304688 51.324219 177.433594 51.199219 177.597656 51.222656 C 177.667969 51.230469 177.726562 51.304688 177.765625 51.335938 " fill-opacity="1" fill-rule="nonzero"/><path fill="#e09e50" d="M 187.558594 16.488281 C 187.558594 16.664062 187.445312 16.761719 187.3125 16.75 C 187.207031 16.742188 187.15625 16.679688 187.148438 16.582031 C 187.132812 16.4375 187.226562 16.3125 187.355469 16.339844 C 187.4375 16.359375 187.507812 16.449219 187.558594 16.488281 " fill-opacity="1" fill-rule="nonzero"/><path fill="#e09e50" d="M 180.996094 27.496094 C 181.027344 27.539062 181.109375 27.59375 181.117188 27.664062 C 181.136719 27.800781 180.96875 27.921875 180.832031 27.875 C 180.785156 27.855469 180.730469 27.773438 180.726562 27.71875 C 180.722656 27.574219 180.824219 27.484375 180.996094 27.496094 " fill-opacity="1" fill-rule="nonzero"/><path fill="#e09e50" d="M 171.753906 9.039062 C 171.710938 9.078125 171.652344 9.164062 171.574219 9.203125 C 171.488281 9.242188 171.367188 9.140625 171.355469 9.039062 C 171.34375 8.9375 171.421875 8.835938 171.527344 8.820312 C 171.640625 8.808594 171.738281 8.878906 171.753906 9.039062 " fill-opacity="1" fill-rule="nonzero"/><path fill="#e09e50" d="M 168.1875 53.085938 C 168.222656 53.125 168.304688 53.171875 168.328125 53.238281 C 168.367188 53.34375 168.25 53.460938 168.117188 53.480469 C 168.035156 53.492188 167.941406 53.414062 167.933594 53.335938 C 167.925781 53.214844 168.027344 53.09375 168.1875 53.085938 " fill-opacity="1" fill-rule="nonzero"/><path fill="#e09e50" d="M 166.34375 48.914062 C 166.652344 49.203125 166.640625 49.261719 166.296875 49.476562 C 166.285156 49.425781 166.261719 49.375 166.269531 49.332031 C 166.28125 49.214844 166.308594 49.101562 166.34375 48.914062 " fill-opacity="1" fill-rule="nonzero"/><g clip-path="url(#b9d8b61ab0)"><path fill="#e09e50" d="M 177.511719 0.472656 C 177.445312 0.371094 177.371094 0.308594 177.371094 0.242188 C 177.367188 0.132812 177.457031 0.0625 177.570312 0.0507812 C 177.675781 0.0390625 177.789062 0.160156 177.738281 0.253906 C 177.699219 0.332031 177.609375 0.382812 177.511719 0.472656 " fill-opacity="1" fill-rule="nonzero"/></g><path fill="#e09e50" d="M 162.019531 16.546875 C 161.90625 16.632812 161.839844 16.714844 161.753906 16.746094 C 161.652344 16.78125 161.554688 16.667969 161.5625 16.554688 C 161.570312 16.445312 161.671875 16.320312 161.757812 16.347656 C 161.839844 16.375 161.910156 16.457031 162.019531 16.546875 " fill-opacity="1" fill-rule="nonzero"/><path fill="#e09e50" d="M 178.296875 19.3125 C 178.214844 19.167969 178.117188 19.3125 178.027344 19.300781 C 177.871094 19.277344 177.792969 19.109375 177.894531 18.988281 C 177.933594 18.945312 178.015625 18.921875 178.074219 18.921875 C 178.113281 18.921875 178.148438 18.980469 178.183594 19.019531 C 178.261719 19.101562 178.09375 19.273438 178.289062 19.320312 C 178.289062 19.320312 178.296875 19.3125 178.296875 19.3125 " fill-opacity="1" fill-rule="nonzero"/><g clip-path="url(#de2e414892)"><path fill="#e09e50" d="M 165.015625 0.1875 C 164.90625 0.285156 164.839844 0.367188 164.757812 0.402344 C 164.683594 0.4375 164.578125 0.339844 164.582031 0.257812 C 164.585938 0.152344 164.652344 0.0820312 164.742188 0.0820312 C 164.816406 0.078125 164.890625 0.132812 165.015625 0.1875 " fill-opacity="1" fill-rule="nonzero"/></g><path fill="#e09e50" d="M 177.53125 13.265625 C 177.460938 13.15625 177.390625 13.09375 177.382812 13.027344 C 177.371094 12.925781 177.492188 12.835938 177.597656 12.835938 C 177.6875 12.839844 177.785156 12.9375 177.75 13.011719 C 177.710938 13.09375 177.628906 13.15625 177.53125 13.265625 " fill-opacity="1" fill-rule="nonzero"/><g clip-path="url(#3d9a27025a)"><path fill="#e09e50" d="M 153.046875 16.859375 C 152.9375 16.917969 152.871094 16.972656 152.796875 16.980469 C 152.699219 16.992188 152.636719 16.914062 152.628906 16.816406 C 152.625 16.714844 152.761719 16.609375 152.851562 16.652344 C 152.917969 16.6875 152.960938 16.765625 153.046875 16.859375 " fill-opacity="1" fill-rule="nonzero"/></g><path fill="#e09e50" d="M 168.320312 27.648438 C 168.332031 27.769531 168.222656 27.894531 168.09375 27.875 C 168.042969 27.867188 167.972656 27.800781 167.957031 27.75 C 167.925781 27.652344 168.023438 27.539062 168.121094 27.519531 C 168.207031 27.503906 168.3125 27.574219 168.320312 27.648438 " fill-opacity="1" fill-rule="nonzero"/><path fill="#e09e50" d="M 155.527344 27.628906 C 155.519531 27.789062 155.402344 27.886719 155.277344 27.875 C 155.195312 27.867188 155.136719 27.777344 155.152344 27.683594 C 155.171875 27.578125 155.273438 27.476562 155.363281 27.507812 C 155.429688 27.527344 155.484375 27.597656 155.527344 27.628906 " fill-opacity="1" fill-rule="nonzero"/><path fill="#e09e50" d="M 184.285156 23.425781 C 184.351562 23.523438 184.441406 23.589844 184.433594 23.648438 C 184.425781 23.707031 184.339844 23.785156 184.269531 23.804688 C 184.175781 23.835938 184.058594 23.707031 184.097656 23.617188 C 184.125 23.550781 184.203125 23.507812 184.285156 23.425781 " fill-opacity="1" fill-rule="nonzero"/><path fill="#e09e50" d="M 186.789062 23.164062 C 186.648438 22.980469 186.644531 22.949219 186.742188 22.832031 C 186.800781 22.757812 186.9375 22.730469 186.957031 22.792969 C 186.980469 22.847656 186.96875 22.917969 186.953125 22.980469 C 186.941406 23.023438 186.902344 23.066406 186.871094 23.105469 C 186.851562 23.128906 186.816406 23.144531 186.789062 23.164062 " fill-opacity="1" fill-rule="nonzero"/><path fill="#e09e50" d="M 187.625 13.3125 C 187.589844 13.347656 187.542969 13.421875 187.476562 13.441406 C 187.382812 13.472656 187.308594 13.414062 187.285156 13.316406 C 187.257812 13.210938 187.339844 13.113281 187.457031 13.109375 C 187.566406 13.105469 187.609375 13.171875 187.625 13.3125 " fill-opacity="1" fill-rule="nonzero"/><path fill="#e09e50" d="M 177.695312 38.628906 C 177.632812 38.699219 177.597656 38.761719 177.546875 38.785156 C 177.480469 38.816406 177.378906 38.726562 177.371094 38.644531 C 177.367188 38.554688 177.457031 38.460938 177.539062 38.492188 C 177.589844 38.507812 177.628906 38.570312 177.695312 38.628906 " fill-opacity="1" fill-rule="nonzero"/><path fill="#e09e50" d="M 178.648438 16.832031 C 178.535156 16.902344 178.472656 16.964844 178.402344 16.980469 C 178.308594 17 178.234375 16.910156 178.242188 16.816406 C 178.246094 16.726562 178.335938 16.632812 178.414062 16.660156 C 178.484375 16.6875 178.539062 16.75 178.648438 16.832031 " fill-opacity="1" fill-rule="nonzero"/><g clip-path="url(#70af0b2cd0)"><path fill="#e09e50" d="M 152.402344 18.894531 C 152.480469 18.964844 152.546875 19 152.574219 19.054688 C 152.617188 19.140625 152.546875 19.242188 152.453125 19.234375 C 152.394531 19.226562 152.289062 19.167969 152.292969 19.140625 C 152.296875 19.070312 152.351562 19 152.402344 18.894531 " fill-opacity="1" fill-rule="nonzero"/></g><path fill="#e09e50" d="M 181.011719 1.949219 C 181.027344 1.980469 181.082031 2.03125 181.082031 2.085938 C 181.089844 2.199219 181.003906 2.277344 180.890625 2.285156 C 180.804688 2.292969 180.734375 2.210938 180.746094 2.113281 C 180.761719 2 180.84375 1.9375 181.011719 1.949219 " fill-opacity="1" fill-rule="nonzero"/><path fill="#e09e50" d="M 163.144531 1.867188 C 163.050781 1.953125 163 2.03125 162.933594 2.050781 C 162.855469 2.074219 162.738281 1.917969 162.773438 1.828125 C 162.789062 1.777344 162.875 1.710938 162.917969 1.714844 C 162.988281 1.726562 163.046875 1.796875 163.144531 1.867188 " fill-opacity="1" fill-rule="nonzero"/><g clip-path="url(#1230a4b663)"><path fill="#e09e50" d="M 174.902344 0.453125 C 174.808594 0.550781 174.761719 0.621094 174.699219 0.664062 C 174.632812 0.699219 174.523438 0.613281 174.507812 0.53125 C 174.492188 0.4375 174.554688 0.335938 174.640625 0.34375 C 174.710938 0.351562 174.78125 0.398438 174.902344 0.453125 " fill-opacity="1" fill-rule="nonzero"/></g><path fill="#e09e50" d="M 162.058594 26.109375 C 161.949219 26.15625 161.882812 26.210938 161.839844 26.195312 C 161.792969 26.179688 161.765625 26.097656 161.734375 26.042969 C 161.789062 26.011719 161.84375 25.953125 161.894531 25.957031 C 161.9375 25.960938 161.980469 26.03125 162.058594 26.109375 " fill-opacity="1" fill-rule="nonzero"/><path fill="#e09e50" d="M 188.71875 14.644531 C 188.640625 14.726562 188.601562 14.796875 188.550781 14.808594 C 188.445312 14.835938 188.394531 14.75 188.371094 14.664062 C 188.351562 14.582031 188.410156 14.515625 188.480469 14.523438 C 188.550781 14.53125 188.613281 14.589844 188.71875 14.644531 " fill-opacity="1" fill-rule="nonzero"/><path fill="#e09e50" d="M 163.132812 14.648438 C 163.042969 14.730469 162.992188 14.8125 162.925781 14.828125 C 162.84375 14.851562 162.734375 14.703125 162.765625 14.609375 C 162.785156 14.5625 162.867188 14.496094 162.914062 14.503906 C 162.976562 14.511719 163.035156 14.578125 163.132812 14.648438 " fill-opacity="1" fill-rule="nonzero"/><path fill="#e09e50" d="M 171.5 23.46875 C 171.550781 23.558594 171.613281 23.621094 171.601562 23.667969 C 171.59375 23.71875 171.511719 23.75 171.460938 23.789062 C 171.421875 23.738281 171.355469 23.6875 171.351562 23.636719 C 171.351562 23.589844 171.429688 23.542969 171.5 23.46875 " fill-opacity="1" fill-rule="nonzero"/><path fill="#e09e50" d="M 166.550781 33.414062 C 166.492188 33.460938 166.453125 33.515625 166.417969 33.507812 C 166.378906 33.503906 166.347656 33.449219 166.3125 33.414062 C 166.347656 33.382812 166.382812 33.335938 166.421875 33.332031 C 166.457031 33.328125 166.496094 33.375 166.550781 33.414062 " fill-opacity="1" fill-rule="nonzero"/><path fill="#e09e50" d="M 161.328125 24.167969 C 161.304688 24.109375 161.265625 24.0625 161.277344 24.03125 C 161.289062 24 161.34375 23.984375 161.378906 23.960938 C 161.402344 23.996094 161.449219 24.039062 161.445312 24.070312 C 161.441406 24.101562 161.382812 24.125 161.328125 24.167969 " fill-opacity="1" fill-rule="nonzero"/><path fill="#e09e50" d="M 186.917969 11.378906 C 186.894531 11.3125 186.882812 11.265625 186.871094 11.222656 C 186.914062 11.210938 186.957031 11.191406 187 11.191406 C 187.011719 11.191406 187.046875 11.253906 187.035156 11.269531 C 187.011719 11.304688 186.972656 11.332031 186.917969 11.378906 " fill-opacity="1" fill-rule="nonzero"/><path fill="#e09e50" d="M 178.050781 31.886719 C 178.058594 31.875 178.066406 31.863281 178.070312 31.851562 C 178.085938 31.871094 178.105469 31.890625 178.117188 31.910156 C 178.117188 31.914062 178.097656 31.929688 178.085938 31.941406 C 178.074219 31.925781 178.0625 31.90625 178.050781 31.886719 " fill-opacity="1" fill-rule="nonzero"/></svg>