<svg width="232" height="423" viewBox="0 0 232 423" fill="none" xmlns="http://www.w3.org/2000/svg">
<path d="M148.016 161.808C155.562 160.91 162.532 158.404 168.928 154.291C169.113 154.171 169.329 154.105 169.55 154.103C169.77 154.101 169.987 154.162 170.175 154.279C180.969 160.792 192.069 166.722 203.476 172.069C212.503 176.299 224.073 184.545 229.071 193.988C234.044 203.393 232.647 214.145 225.168 221.535C222.382 224.288 217.832 226.794 211.521 229.052C186.504 237.978 156.3 232.652 133.109 221.233C132.69 221.023 132.648 220.759 132.983 220.44C138.07 215.454 147.059 205.256 154.059 204.224C167.95 202.184 181.665 199.305 195.204 195.587C197.269 195.025 199.283 194.152 201.247 192.968C201.298 192.933 201.336 192.882 201.355 192.823C201.373 192.764 201.372 192.7 201.35 192.642C201.328 192.584 201.288 192.535 201.235 192.503C201.182 192.471 201.12 192.457 201.058 192.465C194.503 193.606 187.956 194.735 181.418 195.851C166.939 198.319 152.385 199.603 137.831 201.29C119.399 203.431 106.393 206.364 91.3982 214.208C91.2227 214.299 91.0286 214.35 90.8307 214.355C90.6329 214.36 90.4365 214.319 90.2566 214.237C90.0767 214.154 89.9182 214.031 89.7931 213.878C89.668 213.724 89.5796 213.544 89.5348 213.352C88.024 206.822 84.0455 202.805 77.5994 201.303C77.4816 201.279 77.3583 201.298 77.2521 201.356C77.1458 201.415 77.0638 201.508 77.0209 201.62C76.9781 201.731 76.9774 201.854 77.0189 201.964C77.0604 202.075 77.1413 202.166 77.2469 202.222C84.1966 205.961 85.6445 211.916 87.4449 219.282C87.5624 219.76 87.8352 219.878 88.2632 219.634C104.895 210.204 124.032 206.251 142.967 205.294C143.049 205.288 143.13 205.307 143.199 205.35C143.269 205.392 143.324 205.455 143.356 205.53C143.387 205.605 143.395 205.688 143.377 205.768C143.36 205.847 143.318 205.919 143.257 205.974C132.06 216.054 121.648 226.928 112.021 238.595C106.783 244.94 102.889 249.066 100.337 250.971C74.9303 269.919 37.7516 260.225 30.7515 227.692C23.4241 193.636 66.7341 169.274 91.096 157.993C91.4233 157.842 91.6038 157.59 91.6374 157.237L93.1104 142.003C93.1423 141.648 93.0338 141.295 92.8083 141.021C71.8835 115.954 66.2431 75.389 101.42 58.6693C101.856 58.4595 102.012 58.1237 101.886 57.6621C100.476 52.1728 102.033 47.8754 106.557 44.7698C106.867 44.56 106.976 44.2704 106.884 43.9011C105.449 38.3362 98.4864 29.6616 92.7705 35.5538C82.157 46.5072 70.0201 56.8311 53.804 50.662C35.1077 43.536 38.3056 19.5895 44.1474 5.16123C44.3741 4.60727 44.4957 4.62826 44.5125 5.22419C44.6636 12.4383 48.9317 42.8939 62.7556 32.0034C76.3404 21.327 77.889 3.48675 97.9702 0.50289C110.674 -1.39822 124.195 1.92557 130.969 13.3071C137.453 24.1975 134.494 37.1905 125.908 46.117C125.763 46.2677 125.678 46.4655 125.666 46.6753C125.655 46.8851 125.718 47.0932 125.845 47.2626C127.96 50.0492 128.543 53.1926 127.595 56.6927C127.572 56.7787 127.567 56.8683 127.58 56.9563C127.592 57.0443 127.622 57.1289 127.668 57.2052C127.714 57.2814 127.774 57.3477 127.846 57.4002C127.918 57.4528 127.999 57.4904 128.086 57.511C145.46 61.4979 154.999 72.1323 156.703 89.4144C157.459 97.044 154.185 102.269 159.397 109.193C162.226 112.954 164.778 116.89 167.052 121.003C176.709 138.466 162.369 153.649 147.878 161.342C147.825 161.369 147.782 161.415 147.758 161.471C147.734 161.527 147.73 161.589 147.747 161.645C147.764 161.702 147.801 161.75 147.85 161.78C147.899 161.809 147.958 161.819 148.016 161.808Z" fill="#2D3E4E"/>
<path d="M20.1376 422.902C-5.84848 416.947 -6.85571 392.736 18.1105 384.288C48.4527 374.014 77.1708 371.861 91.6117 338.158C101.969 313.985 101.562 289.304 90.3905 264.115C90.2058 263.695 90.315 263.381 90.7178 263.171C97.592 259.612 102.796 255.722 106.33 251.5C113.514 242.905 121.006 234.583 128.803 226.534C129.114 226.215 129.479 226.139 129.898 226.307C152.686 235.737 171.773 241.037 196.815 237.437C197.176 237.386 197.377 237.542 197.419 237.902C205.074 312.096 159.951 378.597 82.295 384.514C67.9339 385.606 57.0182 386.479 49.5481 387.133C33.823 388.506 -5.52113 397.999 20.339 422.524C20.7335 422.893 20.6663 423.019 20.1376 422.902Z" fill="#2D3E4E"/>
</svg>
