<svg width="124" height="67" viewBox="0 0 124 67" fill="none" xmlns="http://www.w3.org/2000/svg">
<path d="M69.0336 23.4027C58.724 16.0894 58.9818 16.3331 58.9818 14.3829V14.1391C59.755 13.164 60.2705 11.9451 60.2705 9.99491C60.2705 5.6069 57.6931 0 54.6002 0C51.5073 0 49.1877 5.6069 49.1877 9.99491C49.1877 11.9451 49.7032 13.164 50.4764 14.1391V14.3829C50.4764 17.7958 48.93 16.3331 39.6514 23.6465C43.7752 25.1092 53.827 28.0345 69.0336 23.4027Z" fill="#F3922A"/>
<path d="M122.902 22.6717C120.582 22.6717 118.263 22.4279 116.201 21.4528C115.943 21.209 115.428 21.209 114.912 21.209C114.912 21.209 100.479 24.6219 94.5507 27.3035C94.5507 27.3035 81.6638 32.9104 72.3852 26.0846C61.3025 29.7413 46.6113 31.4477 36.3018 26.0846C32.9512 28.7662 29.8583 31.4477 29.0851 32.4228C29.0851 32.6666 29.0851 32.6666 28.8274 32.9104C28.0542 31.6915 27.2809 29.4975 27.5387 26.816C27.5387 26.816 27.7964 21.209 21.353 19.9902C7.69281 17.5524 -3.90543 23.6468 1.24934 30.9602C2.53803 32.6666 4.34221 33.8855 6.14638 34.3731C10.0125 35.592 17.4869 38.0297 20.0643 39.4924C19.8065 39.4924 18.0024 39.4924 17.2291 41.1989C15.1672 45.3431 22.8994 47.5371 25.219 45.3431C25.7345 44.6118 26.7655 44.368 28.0542 44.8555C29.0851 46.8058 31.147 48.9998 34.2399 50.95C34.2399 50.95 37.8482 53.8753 44.8072 55.338C46.8691 55.8256 47.1268 55.8256 44.8072 55.338C43.003 56.5569 40.9411 58.5071 40.1679 59.4822C38.8792 61.4325 35.7863 65.5767 54.6012 66.7956C73.4162 65.5767 70.0656 61.1887 69.0346 59.4822C68.2614 58.2633 65.4263 56.0693 63.6221 54.8505C63.3644 54.8505 63.1066 55.0942 63.1066 55.0942C54.3435 57.0445 56.6632 56.5569 63.1066 55.0942C63.1066 55.0942 63.3644 55.0942 63.6221 54.8505C87.0763 48.756 104.86 29.9851 117.232 27.0597C121.098 26.0846 122.902 25.3533 123.675 24.3782C123.933 24.1344 123.933 23.8906 123.933 23.6468C124.191 23.4031 123.675 22.6717 122.902 22.6717ZM10.0125 29.01C7.17733 26.3284 11.8166 20.9653 17.4869 26.816C19.291 28.7662 24.4458 33.398 24.7036 36.3233C24.7036 39.2486 12.5898 30.9602 10.0125 29.01Z" fill="#F3922A"/>
</svg>
