<svg width="153" height="143" viewBox="0 0 153 143" fill="none" xmlns="http://www.w3.org/2000/svg">
<path opacity="0.1" d="M64.5 137C113.377 137 153 97.3772 153 48.5C153 -0.377213 113.377 -40 64.5 -40C15.6228 -40 -24 -0.377213 -24 48.5C-24 97.3772 15.6228 137 64.5 137Z" fill="#2D3E4E"/>
<path opacity="0.7" d="M0.713078 52.6781C7.99281 46.8323 16.7675 43.1714 26.0268 42.1169C35.2862 41.0624 44.6536 42.6572 53.0506 46.7177C61.4475 50.7782 68.5325 57.1392 73.4898 65.0684C78.4472 72.9975 81.0752 82.1724 81.0713 91.5365C81.0674 100.901 78.4318 110.073 73.4679 117.998C68.504 125.923 61.4137 132.278 53.0134 136.332C44.6131 140.385 35.2443 141.972 25.9859 140.91C16.7274 139.848 7.95574 136.18 0.680862 130.328" stroke="#2D3E4E" stroke-width="2.82072" stroke-miterlimit="10" stroke-dasharray="6.35 6.35"/>
</svg>
