<svg width="87" height="78" viewBox="0 0 87 78" fill="none" xmlns="http://www.w3.org/2000/svg">
<path fill-rule="evenodd" clip-rule="evenodd" d="M36.654 8.17574C35.8708 8.03535 35.267 7.92803 34.6832 7.82342C34.7444 8.263 34.7938 8.60936 34.8604 9.0858C34.3667 8.91398 34.0707 8.811 33.7303 8.69283C33.8501 9.02293 33.9558 9.31617 34.0555 9.59152L33.6821 9.96497C33.3704 9.74654 33.0528 9.52322 32.6766 9.25871L31.4169 10.5184C30.0895 10.1059 29.2185 10.3644 29.3475 11.0691C29.554 11.0913 29.7892 11.0555 29.9475 11.1499C30.0928 11.2366 30.1551 11.4626 30.3616 11.8068C29.7139 11.8854 29.1811 11.8805 28.6997 12.0334C28.426 12.1206 28.2336 12.4648 27.91 12.7884C28.3848 12.8599 28.6347 12.8984 28.8661 12.9337C28.9995 14.2985 29.0006 14.3007 27.9246 14.6145C27.7891 15.0156 27.5019 15.4243 27.5859 15.7327C27.691 16.1154 28.0683 16.4124 27.5322 16.6829C27.1647 16.5962 26.8287 16.5159 26.3186 16.394C26.4731 17.5317 26.5961 18.4407 26.7197 19.3502C26.4482 19.367 26.2568 19.3795 25.9853 19.3974C26.0985 19.8771 26.2037 20.3215 26.3148 20.7871C26.1419 21.2603 25.9538 21.778 25.7636 22.2978C26.0178 22.3276 26.1929 22.3476 26.3907 22.3698C25.9614 23.1623 25.5603 23.9005 25.1473 24.6626C25.3749 24.6735 25.5722 24.6832 25.6806 24.6876C26.0812 25.6096 26.4666 26.4979 26.9322 27.5706C27.691 26.0193 26.7007 24.7255 26.9278 23.3927C27.1566 22.0625 27.1853 20.6982 27.3143 19.2055L27.9772 19.8684C27.9241 20.8852 28.0152 21.721 27.8027 22.4701C27.5804 23.2582 28.0536 24.0035 27.7837 24.719C27.4802 25.5245 27.9702 26.1933 28.0124 26.9305C28.0829 28.1533 28.8949 29.3512 28.136 30.5534C28.864 31.4851 29.3843 32.4532 29.3822 33.6728L30.5177 34.8083C30.3925 35.0788 30.2841 35.3119 30.173 35.5531C30.8212 35.655 31.3774 35.7959 31.392 36.6019C31.4126 37.7358 31.9465 38.6535 32.7812 39.357C33.4257 39.9007 33.6739 40.6682 34.1341 41.3083C34.481 41.7897 35.0989 42.0899 35.0496 42.8201C35.0453 42.8775 35.2583 42.9507 35.3705 43.0152C35.6025 42.9046 35.8345 42.794 36.0632 42.6846C36.1375 42.968 36.1532 43.2439 36.2795 43.4515C36.4188 43.683 36.641 43.8792 36.8622 44.0429C37.0844 44.2066 37.3852 44.2722 37.5858 44.4532C37.7592 44.6115 37.7901 44.9914 37.9701 45.0651C39.0102 45.4971 39.8981 46.1422 40.826 46.7666C41.986 47.5482 43.3698 47.9607 44.6517 48.0447C45.5986 46.7801 45.8176 45.412 46.603 44.2396C47.4377 42.9941 47.6464 41.3468 48.2551 39.9294C49.408 37.2437 49.4632 34.2181 50.8834 31.6174C50.9907 31.4212 50.8525 31.09 50.8281 30.8217C50.8069 30.5957 50.7251 30.3566 50.7728 30.1463C51.3999 27.3543 51.5739 24.5288 51.5029 21.6739C51.465 20.1313 51.1446 18.6521 50.7907 17.1642C50.5945 16.3392 50.0969 15.5728 50.0541 14.7657C49.9787 13.3266 49.0844 12.3217 48.3646 11.2875C47.5819 10.1623 46.5092 9.20343 45.4376 8.32479C44.327 7.41364 42.9659 6.89926 41.5415 6.67594C41.1209 6.60982 40.6499 6.93557 40.207 6.92094C39.7653 6.9063 39.3311 6.69003 38.8313 6.54369C38.8032 6.82663 38.7847 7.00767 38.7631 7.22122C38.382 7.23152 37.9825 7.2429 37.576 7.25375L36.654 8.17574ZM19.6479 16.4161C20.184 16.769 21.1331 16.5408 21.345 17.5452C21.1607 17.5647 20.9818 17.5831 20.8062 17.6015C21.1 18.355 20.8523 19.0276 20.5325 19.6195C20.5715 20.8185 20.6604 21.9654 20.6317 23.1086C20.6024 24.3075 20.4615 25.5043 20.3661 26.7336C20.2561 26.7396 20.0626 26.751 19.6663 26.7754C20.7829 27.7792 20.8122 29.0346 20.7396 30.2194C21.1791 30.3609 21.5499 30.4801 21.9217 30.5994C22.0204 30.5018 22.1185 30.4037 22.274 30.2482C22.0659 29.9414 21.848 29.6205 21.5683 29.2085C22.3846 28.6069 22.3039 27.764 22.1217 26.8426C21.8285 26.7911 21.5819 26.7483 21.3027 26.7C21.8968 25.7547 22.1429 24.8181 21.9738 23.6354C21.6355 21.27 22.0778 18.9057 22.5375 16.576C22.6139 16.1863 22.9407 15.8475 23.351 15.1434C22.512 15.3678 22.0708 15.4849 21.6832 15.5884C21.7391 15.963 21.7884 16.2996 21.8643 16.808C21.0816 16.4373 20.5097 16.1657 19.9373 15.8936C20.178 15.1087 20.4181 14.3244 20.6707 13.5016C20.8485 13.4799 21.0463 13.4566 21.2664 13.4306C21.5976 11.6165 22.9521 10.315 23.9245 8.73232C24.143 8.66131 24.5132 8.5426 24.8828 8.42336L25.5468 9.08734C25.73 8.95617 25.9262 8.81633 26.3349 8.52472C25.8211 8.2949 25.5045 8.15289 25.1793 8.00762C25.1788 7.84664 25.1793 7.63796 25.1788 7.43578C25.8845 6.6802 26.7013 7.28781 27.6363 7.23415C27.3799 6.87262 27.1767 6.58589 26.8937 6.18695C27.574 5.15981 28.8928 5.17336 29.7822 4.52671C30.1064 4.78906 30.3644 4.9972 30.9465 5.46659C30.7367 4.80586 30.6191 4.43566 30.5698 4.28226L31.8658 2.98627C31.9471 3.28438 32.004 3.48873 32.1238 3.9294C32.3623 3.53806 32.5124 3.28926 32.8029 2.8112C32.6403 2.90985 32.7184 2.83721 32.8105 2.81011C34.3645 2.35426 35.9006 1.81874 37.478 1.47184C39.6157 1.00245 41.8163 0.834419 43.9839 1.07128C45.8181 1.27183 47.6096 1.83175 49.4725 1.93419C49.8481 1.95533 50.2129 2.16184 50.6048 2.2903C50.6053 2.35481 50.6048 2.49411 50.6043 2.81228C51.3214 2.51253 52.0005 2.66485 52.5978 3.03776C54.6364 4.31099 54.6288 4.32291 54.9795 5.27201C55.7871 5.62541 56.4831 5.93003 57.1704 6.23032C57.017 6.68941 56.9189 6.98373 56.7834 7.39134C57.1552 7.47481 57.4674 7.54528 57.6046 7.57617C58.5688 8.98057 59.4588 10.2771 60.364 11.5953C60.1722 11.8349 59.9651 12.0929 59.6898 12.4376C60.7429 13.3694 60.6833 14.6648 60.647 16.144C61.1473 16.0015 61.4812 15.9072 61.9327 15.7787C62.021 16.163 62.1061 16.5365 62.2362 17.1012C61.8855 16.9283 61.685 16.8297 61.4085 16.6931C61.2649 17.0416 60.9467 17.4346 60.9825 17.7923C61.1007 18.9729 61.318 20.1464 61.5646 21.3079C61.627 21.6033 61.9408 21.8445 61.9918 21.9117C61.9327 22.902 61.6497 23.779 61.885 24.4826C62.5284 26.403 61.8356 28.1668 61.5359 29.982C61.453 30.4856 61.2725 30.9729 61.1305 31.4921C60.9527 31.4086 60.7196 31.2992 60.4714 31.1821C60.4345 31.2829 60.3407 31.446 60.37 31.4721C60.8058 31.858 61.1863 32.2548 60.7917 33.0971L59.9315 33.9573C59.9971 34.6332 60.0768 35.4554 60.1564 36.2723C59.6979 36.5238 59.3602 36.7097 58.9689 36.9243C59.5125 38.4295 58.6431 39.7629 58.0843 41.1923C57.8843 41.2145 57.6859 41.2362 57.4327 41.2638C57.4181 41.8378 57.4024 42.4357 57.3867 43.0465L56.2191 44.2141C56.4907 44.9973 56.6327 45.7301 55.6316 46.1047C55.4717 46.9356 55.3123 47.7671 55.1649 48.54C56.578 48.1492 58.1152 47.7232 59.6979 47.2852C59.7299 47.0928 59.7618 46.8993 59.796 46.6939C60.2659 46.4505 60.7538 46.1979 61.2351 45.9486L61.5576 46.2711C61.6557 46.2207 61.8329 46.1594 61.827 46.1274C61.7245 45.5155 62.2275 45.2607 62.5706 44.9762C63.0162 44.6054 63.5766 44.3767 64.0542 44.0401C64.4938 43.7306 64.8396 43.2254 65.316 43.0482C65.9708 42.8053 65.8461 42.1235 66.2754 41.7245C66.754 41.2806 67.4901 41.1874 67.7996 40.4367C68.0451 39.8421 68.6939 39.4047 69.1888 38.9239C70.7309 37.4262 71.7564 35.5779 72.7857 33.7247C73.4177 32.5886 74.202 31.5301 74.7603 30.3604C75.6476 28.5039 76.5057 26.6182 77.1686 24.675C77.4797 23.7622 78.3269 23.018 78.1074 21.9215C78.0396 21.5838 78.7448 21.2993 78.1767 20.8602C78.0824 20.7876 78.3561 20.2949 78.3865 19.9903C78.4271 19.5756 78.3686 19.1528 78.4028 18.7371C78.4645 17.9555 78.5627 17.1766 78.6667 16.2053L79.8267 17.3652C79.5763 18.2596 79.5763 18.2596 80.2771 20.0336L81.0099 19.3008C80.4733 18.1257 80.9292 16.8026 80.7096 15.512C80.9687 15.5196 81.1758 15.5261 81.5308 15.5375C81.6799 15.9717 81.8522 16.4736 82.0647 17.0937C82.2219 16.918 82.5124 16.7403 82.5097 16.5663C82.5032 16.073 82.3764 15.5819 82.2447 14.7629C82.7867 15.0654 83.0891 15.2345 83.4577 15.4394C83.8642 15.3613 84.3689 15.2643 85.1196 15.1196C84.816 15.8199 84.5889 16.344 84.3602 16.8709C84.6843 17.0443 85.0616 17.246 85.5223 17.492C85.4291 18.0774 85.3396 18.6319 85.2182 19.3854C85.6925 19.2504 86.0286 19.1561 86.3874 19.0542C86.3749 19.5512 86.3641 20.0347 86.3527 20.4971C86.0708 20.5762 85.77 20.6613 85.1288 20.8418C85.6925 21.1789 85.9857 21.354 86.2573 21.5161C86.2166 21.7323 86.1603 22.0315 86.1137 22.2798C86.0741 22.2532 85.9115 22.147 85.6161 21.9524C85.4529 22.7768 85.2995 23.559 85.1407 24.365C85.3922 24.3769 85.589 24.3872 85.5131 24.3829C85.6014 24.9287 85.6893 25.4685 85.7906 26.0989C85.4085 26.1342 85.1548 26.158 84.9017 26.1813C85.022 26.6225 85.1407 27.0632 85.2632 27.5152L84.4572 28.3212C84.1933 29.6096 84.042 30.7951 83.6919 31.9181C83.3802 32.9214 82.2382 33.5345 82.2268 34.8337C81.83 34.8218 81.4202 34.8099 80.9806 34.7963C80.7871 35.0191 80.5736 35.2652 80.1535 35.7492C80.766 35.527 81.0549 35.4213 81.4403 35.2809C80.9573 36.7113 81.1801 38.4366 79.2836 38.9954C79.2836 39.2925 79.2836 39.6415 79.283 40.0236C79.0998 40.0388 78.9139 40.0545 78.5941 40.0806C78.4309 41.0806 77.8624 41.8237 76.671 41.9874C76.6417 42.4655 76.6135 42.9273 76.5815 43.4504C76.2368 43.6314 75.8937 43.8108 75.4704 44.0336C75.4411 44.142 75.4482 44.4623 75.2937 44.5995C75.1229 44.7518 74.7625 44.6743 74.5581 44.8092C74.273 44.9957 74.0557 45.2867 73.8096 45.5328C73.6123 45.7301 73.4427 45.9735 73.2101 46.1106C72.9949 46.238 72.712 46.2521 72.332 46.348C72.4453 48.0701 70.5217 47.6522 69.7585 49.0777C69.6024 48.1411 69.5205 47.6473 69.4387 47.1546C68.9248 47.173 68.6701 48.0901 68.8668 49.3048C68.6582 49.1688 68.495 49.0631 68.295 48.9335C67.3936 48.9536 67.611 49.9103 67.2001 50.3862C66.7947 50.3981 66.3871 50.41 65.9876 50.4214C65.9751 50.6149 65.9627 50.8073 65.9464 51.0686C65.7339 50.9482 65.5653 50.8523 65.2764 50.6881C64.0162 51.3792 62.6671 52.1299 61.2849 52.8107C60.6042 53.1445 60.1743 53.015 59.7537 52.8275C59.3385 53.2275 59.0079 53.8291 58.5759 53.9153C56.1779 54.3923 53.754 54.7359 51.342 55.1457C50.9647 55.2097 50.6102 55.3972 50.2373 55.5002C49.7928 55.6227 49.3397 55.7159 48.834 55.8346C48.9083 55.9783 49.0172 56.1913 49.202 56.5507C48.3597 57.2152 47.8583 58.3388 46.5813 58.5621C46.4263 59.0532 46.2702 59.5475 46.1022 60.082C44.6186 60.3405 44.2376 62.2891 42.7812 62.5531C42.5454 62.9775 42.3291 63.3672 42.0917 63.7954C41.7773 63.6415 41.5464 63.5287 41.2998 63.4079C41.0662 64.2952 40.4195 64.635 39.6222 65.0356C38.8704 65.4145 38.285 66.1202 37.3289 66.0757C37.3191 66.2058 37.3088 66.3354 37.2888 66.6058C37.1208 66.6319 36.9153 66.6617 36.5874 66.711C36.518 66.9148 36.4356 67.1587 36.3662 67.3636C35.564 67.8536 34.7819 68.4037 33.9374 68.8309C32.2121 69.7041 30.7237 71.032 28.7383 71.4293C28.07 71.5632 27.4526 72.0267 26.8488 72.3985C23.3066 74.5791 19.352 75.5667 15.3485 76.4285C13.0839 76.9152 10.8031 77.1364 8.48591 77.0242C7.72923 76.9873 6.9189 76.8914 6.22131 77.1076C5.46084 77.3434 4.85431 76.8897 4.12908 76.983C2.16693 77.2345 0.253029 76.6236 -1.67876 76.3884C-3.55635 76.1596 -5.41659 75.7076 -7.24919 75.2225C-9.18315 74.7097 -11.1805 74.2528 -12.9573 73.379C-14.6327 72.5557 -16.4908 72.0538 -17.9765 70.8391C-18.157 70.6911 -18.5559 70.7952 -18.7174 70.6402C-19.6367 69.7577 -20.898 69.4309 -21.872 68.6661C-22.5789 68.11 -23.1653 67.401 -23.916 66.6503C-23.8851 66.2237 -23.8456 65.6844 -23.7984 65.0269C-23.2125 64.7055 -22.5328 64.3326 -21.9127 63.9933C-21.6748 64.1445 -21.5105 64.248 -21.3338 64.3597L-20.7528 63.7786C-20.124 63.8588 -19.5175 63.8518 -18.9722 64.0296C-18.4285 64.2079 -17.848 64.4751 -17.4518 64.8713C-16.0024 66.3218 -14.0029 66.6692 -12.2619 67.5105C-10.9968 68.1219 -9.63737 68.5588 -8.35114 69.1664C-7.65951 69.4938 -6.83888 69.5566 -6.07028 69.7106C-4.33633 70.0569 -2.6452 70.5903 -0.883063 70.8196C0.0898784 70.9459 1.03843 71.3014 2.01137 71.3779C4.1242 71.5426 6.24733 71.6852 8.36558 71.6743C12.8319 71.6527 17.0874 70.4813 21.2583 69.0076C22.1602 68.6888 22.9662 68.0747 23.7858 67.5479C24.8801 66.8449 26.214 66.6253 27.2369 65.7836C28.715 64.5678 30.5942 63.9493 31.9736 62.5655C32.4739 62.0642 33.1672 61.759 33.7542 61.3379C34.3418 60.9172 34.6361 60.1492 35.5516 60.0793C35.8638 60.0565 36.1776 59.4239 36.4042 59.0218C37.06 57.8597 37.7441 57.2157 39.0054 56.6851C39.0531 56.4282 39.1008 56.1712 39.168 55.8081C39.4233 55.7815 39.6786 55.743 39.9355 55.7322C40.1404 55.7235 40.3469 55.7479 40.4748 55.7533C40.4575 55.2471 40.4412 54.7723 40.4179 54.1321C39.6276 53.8524 38.6493 53.544 37.7023 53.1608C36.7478 52.7743 35.8421 52.2654 34.8805 51.899C33.9786 51.5553 33.1341 51.1607 32.0777 50.4068C32.1531 50.4073 31.804 50.4062 31.3883 50.4068C30.8359 49.8544 30.2717 49.2425 29.6548 48.6907C29.218 48.2993 28.9594 47.6592 28.167 47.7069C27.9323 47.7215 27.5236 47.3096 27.4455 47.0245C27.0932 45.7366 25.9457 45.1258 25.1826 44.1946C24.5056 43.368 23.8698 42.5099 24.0194 41.2524C23.3456 40.6719 22.7792 39.9678 22.4968 39.035C22.3131 38.4274 21.6984 37.8843 21.6881 37.3048C21.6746 36.5541 21.0924 36.2506 20.9054 35.7286C20.5087 34.6229 19.6441 33.5426 20.5217 32.1805C20.0756 32.1192 19.8197 32.0845 19.52 32.0439C19.5802 31.6737 19.643 31.2889 19.7661 30.5338C19.6631 30.2997 19.4062 29.7175 19.0072 28.8134C18.9162 27.7022 18.5107 26.1694 18.7552 24.7498C18.9958 23.3535 18.7308 22.0131 18.8761 20.6678C19.0305 19.2385 19.3829 17.8314 19.6479 16.4161Z" fill="#E09E50"/>
</svg>
