<svg width="147" height="239" viewBox="0 0 147 239" fill="none" xmlns="http://www.w3.org/2000/svg">
<path opacity="0.1" fill-rule="evenodd" clip-rule="evenodd" d="M144.704 144.818C144.769 144.537 144.882 144.422 144.899 144.242C144.98 143.376 144.891 142.513 144.865 141.65C144.839 140.811 144.8 139.964 144.656 139.14C144.509 138.301 144.645 137.466 144.545 136.624C144.418 135.556 144.378 134.491 144.07 133.443C143.902 132.868 143.409 132.478 143.321 131.884C143.311 131.819 143.286 131.755 143.258 131.695C143.222 131.617 143.191 131.508 143.038 131.645C143.22 132.305 143.393 132.989 143.54 133.674C143.761 134.706 143.987 135.728 144.132 136.776C144.193 137.215 144.241 137.654 144.235 138.086C144.229 138.562 144.376 139.007 144.383 139.482C144.399 140.688 144.414 141.896 144.494 143.102C144.528 143.624 144.372 144.157 144.704 144.818ZM94.848 179.554C94.5975 180.007 94.4876 180.435 94.468 180.785C94.4074 181.857 94.4098 182.931 94.3161 184.003C94.1903 185.438 94.0602 186.879 94.065 188.317C94.0672 189.073 93.8743 189.909 94.4641 190.64C94.5641 189.733 94.7374 188.866 94.7379 187.998C94.7378 186.705 94.8349 185.423 94.9498 184.139C94.9959 183.62 95.1142 183.087 95.0428 182.582C94.9625 182.015 95.0213 181.475 95.0492 180.918C95.0724 180.47 95.1997 179.973 94.848 179.554ZM135.444 254.526C135.634 254.622 135.693 254.651 135.753 254.681C135.523 254.978 135.562 255.486 135.02 255.516C135.1 255.758 135.14 255.956 135.229 256.13C135.345 256.352 135.224 256.514 135.127 256.677C134.993 256.903 134.798 256.665 134.636 256.715C134.652 257.119 134.668 257.52 134.683 257.919C134.457 257.932 134.537 257.503 134.123 257.703C134.38 258.053 133.818 258.272 133.958 258.698C134.109 258.749 134.257 258.817 134.412 258.849C134.599 258.887 134.54 258.569 134.722 258.586C134.837 258.674 134.819 258.85 134.978 258.871C134.869 258.656 135.271 258.347 134.839 258.178C135.037 257.794 135.178 257.366 135.445 257.041C135.714 256.714 135.772 256.322 135.956 255.974C136.159 255.593 136.441 255.22 136.513 254.813C136.589 254.387 136.816 254.043 136.933 253.648C137.041 253.284 137.185 252.928 137.35 252.587C137.533 252.209 137.63 251.793 137.737 251.405C137.838 251.041 138.053 250.694 138.168 250.096C137.105 251.152 136.96 252.535 136.021 253.33C136.007 253.604 136.217 253.787 136.157 253.988C135.931 254.159 135.736 254.306 135.444 254.526ZM175.646 135.091C175.441 135.553 175.977 135.654 176.065 135.99C176.462 137.516 177.362 138.857 177.725 140.399C177.763 140.561 177.78 140.778 177.889 140.862C178.29 141.173 178.366 141.634 178.471 142.062C178.582 142.518 178.928 142.835 179.077 143.247C179.472 144.343 179.873 145.441 180.171 146.564C180.474 147.714 181.177 148.685 181.489 149.827C181.744 150.757 182.084 151.663 182.393 152.577C182.442 152.724 182.435 152.914 182.848 153.064C182.284 152.273 182.484 151.463 182.207 150.736C181.959 150.083 181.749 149.416 181.546 148.747C181.338 148.063 180.882 147.504 180.666 146.812C180.368 145.855 180.171 144.857 179.572 143.994C179.281 143.575 179.253 142.982 179.038 142.497C178.82 142.002 178.802 141.453 178.383 140.994C178.056 140.635 178.016 140.013 177.849 139.507C177.734 139.16 177.712 138.721 177.482 138.486C177.107 138.103 177.126 137.574 176.851 137.198C176.535 136.767 176.348 136.301 176.211 135.808C176.118 135.475 175.83 135.336 175.646 135.091ZM180.347 157.699C180.449 156.582 180.015 155.59 179.682 154.576C179.215 153.152 178.69 151.746 178.283 150.306C177.724 148.336 176.788 146.513 176.159 144.573C176.138 144.51 176.127 144.441 176.094 144.385C175.916 144.076 175.681 143.802 175.574 143.451C175.438 143.005 175.229 142.574 175.152 142.12C175.076 141.671 174.663 141.451 174.557 141.033C174.443 140.583 174.306 140.131 174.115 139.709C173.921 139.276 174.014 138.698 173.493 138.418C173.452 138.397 173.416 138.274 173.44 138.238C173.729 137.802 173.314 137.62 173.137 137.347C172.913 137.002 172.609 136.698 172.556 136.258C172.551 136.221 172.458 136.193 172.406 136.16C172.316 136.194 172.208 136.203 172.165 136.396C172.115 136.628 172.489 136.588 172.561 136.839C172.825 137.742 173.228 138.597 173.58 139.467C174.069 140.675 174.773 141.805 175.041 143.101C175.054 143.166 175.062 143.258 175.106 143.286C175.535 143.571 175.592 144.055 175.689 144.481C175.795 144.945 176.152 145.247 176.307 145.663C176.937 147.355 177.413 149.093 178.166 150.751C178.863 152.288 179.268 153.959 179.802 155.57C179.855 155.728 179.982 155.906 179.947 156.041C179.778 156.678 180.206 157.148 180.347 157.699ZM79.563 154.849C79.4335 154.73 79.227 154.717 79.2382 154.48C79.4382 154.208 79.4756 153.81 79.786 153.59C79.8788 153.525 79.9575 153.459 79.9084 153.37C79.7288 153.046 80.0538 152.798 80.0325 152.55C80.0028 152.201 80.2072 151.996 80.3192 151.739C80.4173 151.513 80.5232 151.296 80.7443 151.11C80.8989 150.98 80.833 150.589 80.8655 150.315C80.8946 150.066 81.2035 150.033 81.2578 149.816C81.2743 149.637 80.9727 149.422 81.2857 149.306C81.5824 149.198 81.3962 148.971 81.4388 148.816C81.5045 148.577 81.8837 148.571 81.8083 148.312C81.6588 147.796 82.0223 147.405 82.0507 146.916C82.26 147.012 82.4315 147.09 82.6037 147.168C82.7455 146.841 82.4626 146.685 82.3231 146.508C82.5096 146.16 82.8312 146.146 83.2016 146.109C82.7978 145.939 82.8307 145.594 82.7477 145.312C82.9075 144.975 83.0886 144.655 83.3203 144.111C82.0724 145.002 82.1379 146.314 81.5832 147.305C81.4465 147.228 81.3362 147.144 81.1244 147.262C81.2929 147.916 80.7356 148.376 80.5025 148.95C80.6427 149.032 80.7265 149.081 80.8117 149.13C80.6167 149.667 80.2501 150.131 80.1613 150.73C80.1221 150.995 80.0038 151.366 79.7352 151.475C79.2209 151.685 79.1155 152.133 79.0376 152.558C78.999 152.769 78.8909 152.798 78.7823 152.891C78.7048 152.958 78.7216 153.008 78.8181 153.026C79.0052 153.078 79.1752 152.828 79.3593 152.985C79.3835 153.058 79.435 153.13 79.4199 153.181C79.3077 153.562 78.9255 153.794 78.8091 154.143C78.6867 154.509 78.8813 154.948 78.6645 155.326C78.6482 155.355 78.6343 155.386 78.6195 155.415C78.3685 155.485 78.1019 154.93 77.789 155.481C78.146 155.673 78.4672 155.846 78.7631 156.005C79.0742 155.595 79.1144 155.089 79.563 154.849ZM177.684 159.735C177.759 159.563 177.883 159.418 177.851 159.327C177.668 158.807 177.788 158.253 177.585 157.722C177.135 156.541 176.773 155.326 176.375 154.124C176.071 153.208 175.783 152.285 175.459 151.376C175.144 150.49 174.908 149.584 174.416 148.749C174.013 148.065 173.88 147.24 173.463 146.523C173.044 145.803 172.963 144.931 172.487 144.194C172.137 143.653 171.985 142.959 171.846 142.312C171.698 141.624 171.17 141.142 170.994 140.468C170.709 139.375 170 138.51 169.312 137.584C169.18 138.151 169.685 138.352 169.811 138.74C169.979 139.257 170.193 139.746 170.47 140.231C170.865 140.923 171.03 141.733 171.428 142.455C171.861 143.243 171.962 144.181 172.473 144.97C172.814 145.498 172.88 146.173 173.263 146.728C173.553 147.149 173.675 147.713 173.776 148.231C173.879 148.766 174.302 149.107 174.463 149.602C175.392 152.452 176.334 155.297 177.291 158.137C177.456 158.626 177.24 159.181 177.684 159.735ZM139.662 255.83C139.771 255.294 139.817 254.728 140.139 254.291C140.895 253.265 140.833 251.88 141.671 250.9C141.538 250.217 141.993 249.686 142.177 249.093C142.439 248.251 142.632 247.385 142.927 246.56C143.195 245.813 143.366 245.05 143.576 244.292C143.788 243.535 143.993 242.771 144.254 242.034C144.582 241.111 144.653 240.135 144.968 239.21C145.185 238.573 145.469 237.924 145.391 237.211C145.382 237.127 145.488 237.038 145.516 236.943C145.744 236.16 146.021 235.385 146.181 234.587C146.479 233.093 146.789 231.603 147.175 230.127C147.224 229.941 147.438 229.651 147.11 229.365C147.011 229.563 146.859 229.742 146.833 229.937C146.679 231.116 146.298 232.24 146.044 233.393C145.851 234.27 145.66 235.149 145.477 236.028C145.221 237.253 144.749 238.43 144.476 239.657C144.297 240.455 143.993 241.232 143.845 242.018C143.578 243.437 143.057 244.778 142.743 246.181C142.497 247.281 142.065 248.347 141.724 249.428C141.389 250.492 141.039 251.583 140.504 252.584C140.381 252.815 140.306 253.048 140.299 253.311C140.29 253.591 139.784 253.633 139.951 254.008C139.576 254.554 139.542 255.241 139.206 255.802C139.158 255.882 139.148 255.922 139.238 255.955C139.392 255.983 139.53 255.894 139.662 255.83ZM185.232 151.46C185.248 151.143 185.611 150.783 185.119 150.543C185.374 150.274 184.986 150.277 184.939 150.131C184.875 149.932 185.077 149.791 184.986 149.57C184.857 149.254 185.159 148.818 184.656 148.578C184.456 148.482 184.888 148.131 184.609 147.982C184.328 147.832 184.367 147.694 184.443 147.434C184.497 147.249 184.282 147.007 184.471 146.793C183.878 146.395 183.996 145.673 183.717 145.13C183.589 144.884 183.589 144.566 183.291 144.423C183.493 144.04 183.317 143.565 183.088 143.456C182.629 143.238 182.957 142.809 182.68 142.522C182.429 142.261 182.329 141.801 182.088 141.455C181.924 141.219 181.886 140.895 181.792 140.611C181.687 140.295 181.533 139.985 181.494 139.661C181.462 139.398 180.993 139.309 181.247 138.967C181.042 138.725 180.826 138.5 180.762 138.162C180.706 137.87 180.591 137.588 180.485 137.308C180.339 136.922 180.186 136.554 179.95 136.193C179.682 135.782 179.289 135.388 179.247 134.841C179.236 134.695 179.09 134.647 179.019 134.553C178.793 134.257 178.523 133.946 178.443 133.601C178.348 133.191 178.091 132.834 177.85 132.647C177.47 132.35 177.525 131.899 177.231 131.584C176.859 131.184 176.515 130.705 176.277 130.224C175.772 129.207 174.774 128.524 174.449 127.395C174.396 127.209 174.032 127.249 173.915 127.011C173.452 126.075 172.761 125.301 172.092 124.506C172.234 124.877 172.124 125.382 172.672 125.528C172.87 125.582 172.867 125.772 172.924 125.919C173.006 126.134 173.023 126.42 173.174 126.554C173.957 127.247 174.395 128.188 175.024 128.984C175.278 129.305 175.313 129.711 175.57 129.973C176.163 130.578 176.613 131.268 177.085 131.965C177.483 132.552 177.866 133.176 178.208 133.778C178.563 134.402 179.033 135.028 179.144 135.789C179.159 135.886 179.177 136.031 179.241 136.065C179.653 136.283 179.672 136.715 179.761 137.074C179.86 137.471 180.213 137.682 180.329 138.062C180.477 138.548 180.687 139.006 180.946 139.463C181.354 140.182 181.484 141.051 181.954 141.771C182.112 142.014 182.152 142.334 182.247 142.618C182.33 142.871 182.461 143.119 182.486 143.377C182.513 143.672 182.882 143.813 182.816 144.076C182.721 144.456 183.008 144.574 183.173 144.786C183.247 144.881 183.174 144.973 183.13 145.058C183.035 145.237 183.149 145.48 183.218 145.508C183.524 145.632 183.546 145.903 183.622 146.145C183.716 146.441 183.906 146.728 183.743 147.06C184.161 147.229 184.057 147.678 184.233 147.977C184.428 148.31 184.256 148.765 184.589 149.053C184.43 149.956 185.033 150.651 185.232 151.46ZM75.1587 194.149C75.2205 193.973 75.2484 193.936 75.2395 193.914C74.6632 192.48 74.413 190.955 74.0168 189.428C74.0327 189.347 74.1531 189.358 74.2835 189.288C74.3426 188.977 74.0006 188.656 74.209 188.293C74.2574 188.209 74.1186 188.024 73.9814 187.9C73.6976 187.643 73.5924 187.306 73.8717 186.942C74.0886 186.885 73.9691 187.234 74.1813 187.2C74.4306 186.793 73.9212 186.714 73.8323 186.482C73.7616 186.204 74.094 186.298 74.1119 186.121C74.0183 185.965 73.892 186.089 73.7828 186.077C73.136 184.843 73.3345 184.982 73.3211 183.682C73.0806 183.313 72.7266 183.566 72.3551 183.516C72.9224 183.092 71.9968 182.84 72.3631 182.392C72.6261 182.415 72.8453 182.684 73.2014 182.707C73.0777 182.425 73.1454 182.1 72.8078 181.95C72.3816 181.761 72.2785 181.444 72.3979 181.001C72.4335 180.87 72.3325 180.702 72.2981 180.564C72.1246 180.56 72.0019 180.556 71.882 180.553C71.9106 180.489 71.9206 180.41 71.9585 180.393C72.1376 180.312 72.3794 180.297 72.4924 180.166C72.6086 180.031 72.8733 179.754 72.5142 179.606C72.2575 179.501 72.6621 179.145 72.2754 179.128C72.2334 179.126 72.4229 178.998 72.5101 178.921C72.6015 178.685 72.0857 178.702 72.2862 178.418C72.3729 178.296 72.3872 178.155 72.298 178.052C71.7473 177.416 71.9626 176.793 72.3066 176.165C72.3173 176.145 72.2808 176.103 72.2799 176.072C72.2782 176.01 72.2864 175.949 72.2935 175.847C72.4759 176.025 72.6405 176.185 72.7897 176.33C72.856 176.762 72.3547 176.809 72.2917 177.174C72.4598 177.382 72.6216 177.63 72.9083 177.733C73.3061 177.53 72.9045 177.252 72.964 176.992C73.0185 176.755 73.1273 176.453 72.9527 176.156C72.7885 175.875 72.7309 175.532 72.6042 175.149C73.0717 175.06 73.2779 174.717 73.3699 174.282C73.2434 173.91 72.8875 174.055 72.6387 173.959C72.705 173.623 73.2922 173.674 73.8091 174.071C74.3759 173.509 73.5497 173.27 73.5238 172.842C73.5539 172.542 73.9581 172.71 74.019 172.447C73.9386 172.009 73.5335 172.156 73.3282 172.063C73.3277 171.771 73.1239 171.528 73.2215 171.277C73.0915 171.073 72.7034 171.395 72.7003 170.983C72.817 170.715 72.9962 170.808 73.1794 170.91C73.4881 170.629 73.2641 170.146 73.5935 169.882C73.3994 169.715 73.1999 169.645 72.89 169.713C72.9962 169.146 71.965 168.914 72.5194 168.207C72.709 168.239 72.7009 168.712 73.0715 168.397C73.146 168.05 72.6696 167.984 72.6111 167.641C72.5543 167.31 72.6224 167.018 72.6278 166.709C72.797 166.705 72.986 166.984 73.1262 166.669C73.1498 166.521 73.0848 166.432 72.9525 166.365C72.7503 166.262 72.6622 166.026 72.7505 165.876C73.0289 165.408 72.897 164.891 72.9956 164.406C73.0785 163.998 72.9101 163.503 73.417 163.244C73.4481 163.229 73.4596 163.118 73.439 163.068C73.3078 162.748 73.511 162.445 73.4837 162.147C73.4536 161.823 73.7128 161.61 73.7007 161.328C73.6853 160.967 74.0974 160.677 74.008 160.44C73.8642 160.058 74.5019 160.047 74.2458 159.717C74.5503 159.544 74.6426 159.221 74.8007 158.931L74.5565 158.194C74.7273 157.86 74.9883 157.73 75.3563 157.793C75.5276 157.525 75.247 157.311 75.267 157.039C75.3492 156.974 75.4459 156.897 75.5718 156.797L75.3698 156.188C75.4922 156.083 75.5858 156.003 75.6913 155.913C75.6903 155.586 75.0901 155.547 75.3162 155.094C75.3929 155.019 75.4425 155.184 75.5863 155.126C75.4742 154.87 75.7396 154.526 75.3837 154.249C75.6409 154.02 76.1589 154.125 76.1721 153.534L75.892 152.688C76.4008 152.163 76.64 151.441 77.2188 150.986C77.1107 150.844 76.983 150.961 76.8281 150.933C76.749 150.686 77.1351 150.512 76.9873 150.266C76.8138 149.978 77.0811 149.904 77.1913 149.733C77.3305 149.519 77.4314 149.283 77.6669 149.144L77.5448 148.776C77.568 148.656 77.6388 148.605 77.7397 148.575C77.8319 148.548 77.9192 148.505 77.9983 148.474C78.0861 148.21 77.8653 148.028 77.8939 147.68C77.9546 147.468 78.4162 147.279 78.214 146.812C78.1777 146.728 78.485 146.603 78.5706 146.406C78.8197 145.831 79.2145 145.33 79.4148 144.724C79.514 144.425 79.7 144.166 79.9422 143.931C80.1691 143.712 80.1109 143.332 80.2255 143.031C80.3355 142.74 80.7646 142.654 80.6616 142.25C80.6255 142.107 80.8767 142.116 80.9192 142.008C81.0159 141.763 81.2695 141.653 81.3096 141.315C81.3696 140.809 81.9307 140.509 82.0998 140.001C82.2435 139.569 82.4986 139.181 82.8487 138.897C83.1467 138.655 82.9434 138.126 83.4072 138.014C83.6051 137.415 84.1115 137.001 84.3577 136.432C84.4617 136.192 84.5977 135.981 84.8186 135.835C84.9625 135.74 84.8524 135.286 85.2404 135.537C85.3478 135.236 85.3267 134.878 85.6915 134.698C85.7666 134.66 85.6293 134.455 85.8129 134.303C86.1955 133.988 86.3722 133.477 86.7739 133.157C86.8916 133.062 87.058 132.909 87.0878 132.832C87.4805 131.814 88.4167 131.226 88.9904 130.358C89.0449 130.276 89.0621 130.161 89.1292 130.094C89.6312 129.594 90.2679 129.222 90.65 128.612C91.0221 128.018 91.5415 127.564 92.0626 127.138C92.363 126.893 92.4611 126.503 92.8024 126.324C93.1835 126.124 93.3735 125.752 93.5525 125.378C93.7336 125.432 93.8482 125.466 93.9622 125.5C93.9439 124.888 94.397 124.55 94.7865 124.219C94.9258 124.101 95.069 123.96 95.1846 123.835C95.9833 122.97 96.8485 122.186 97.8076 121.503C97.9057 121.433 97.9631 121.308 98.049 121.218C98.4717 120.774 98.9428 120.426 99.5649 120.283C100.043 120.174 101.28 119.3 101.733 118.846C102.625 117.95 103.501 117.036 104.42 116.168C105.068 115.556 105.77 115.001 106.458 114.433C107.196 113.824 107.947 113.232 108.59 112.496C109.086 112.754 109.353 112.288 109.721 112.092C110.145 111.866 109.856 111.277 110.273 111.069C110.51 110.8 110.775 111.152 111.012 111.032C111.209 110.835 110.955 110.665 110.998 110.466C111.101 110.292 111.244 110.305 111.428 110.431C111.474 110.471 111.511 110.45 111.534 110.352C111.614 110.018 111.888 109.807 112.127 109.63C112.31 109.495 112.495 109.407 112.601 109.184C112.757 108.856 113.023 108.832 113.328 108.99C113.524 108.579 113.68 108.177 114.226 108.033C114.459 107.971 114.49 107.441 114.9 107.423C114.965 107.147 115.2 107.058 115.423 107.05C115.839 107.034 115.477 106.619 115.779 106.479C116.598 106.098 117.3 105.506 118.095 105.062C118.514 104.829 119.056 104.735 119.357 104.272C119.456 104.12 119.641 104.298 119.786 104.31C119.864 104.156 119.939 104.007 120.026 103.834C120.32 103.782 120.589 103.506 120.934 103.659C121.097 103.731 121.075 103.597 121.121 103.539C121.628 102.915 122.388 102.651 123.01 102.193C123.468 101.855 124.083 101.813 124.467 101.481C125.102 100.932 126.038 101.059 126.579 100.396C127.212 100.288 127.75 99.8468 128.464 99.9556C128.787 100.005 129.148 99.722 129.504 99.6434C130.791 99.3599 132.094 99.1496 133.404 99.4119C134.012 99.5334 134.626 99.772 135.23 99.7346C135.891 99.6938 136.509 99.9081 137.172 99.8716C137.706 99.842 138.259 100.137 138.802 100.294C139.699 100.553 140.587 100.846 141.549 100.741C141.673 100.727 141.859 100.763 142.002 100.803C142.575 100.96 143.182 100.941 143.736 101.076C144.31 101.214 144.93 101.244 145.466 101.513C146.138 101.85 146.951 101.826 147.532 102.437C147.834 102.754 148.358 102.847 148.726 103.118C149.066 103.368 149.365 103.643 149.788 103.772C150.013 103.841 150.189 104.067 150.392 104.215C151.012 104.672 151.777 104.845 152.427 105.242C152.76 105.445 153.12 105.587 153.449 105.811C153.736 106.007 154.148 106.072 154.464 106.268C156.057 107.255 157.757 108.091 159.061 109.491C159.255 109.7 159.629 109.588 159.739 109.735C159.894 109.941 160.102 109.995 160.273 110.131C161.155 110.832 162.05 111.517 162.895 112.26C163.08 112.423 163.388 112.599 163.366 112.948C163.349 113.197 163.606 113.272 163.729 113.358C164.304 113.76 164.587 114.341 164.875 114.939C165.008 115.215 165.22 115.452 165.397 115.706L165.652 116.576C165.61 117.186 166.126 117.509 166.475 117.773C166.979 118.156 167.4 118.615 167.871 119.022C168.384 119.467 168.885 119.938 169.361 120.417C169.945 121.004 170.514 121.619 171.054 122.246C172.017 123.366 172.957 124.512 173.771 125.755C174.209 126.425 174.71 127.056 175.199 127.691C175.767 128.427 176.4 129.115 176.796 129.971C177.279 130.102 177.093 130.652 177.395 130.92C177.642 131.14 177.814 131.451 178.007 131.73C178.488 132.426 178.845 133.197 179.304 133.905C179.393 134.042 179.298 134.068 179.282 134.137C179.238 134.316 179.301 134.493 179.404 134.588C179.585 134.754 179.99 134.745 179.777 135.163C179.991 135.36 180.081 135.643 180.24 135.863C180.873 136.741 180.92 137.933 181.782 138.677C181.803 138.696 181.807 138.738 181.814 138.771C182.082 140.032 182.909 141.074 183.219 142.324C183.267 142.518 183.097 142.751 183.229 142.827C183.475 142.97 183.485 143.199 183.554 143.406C183.62 143.604 183.714 143.736 183.907 143.84C184.109 143.948 183.74 144.198 183.961 144.315C184.177 144.429 184.173 144.637 184.233 144.813C184.525 145.664 184.773 146.53 185.101 147.366C185.217 147.662 185.027 148.018 185.321 148.254C185.124 148.608 185.411 148.883 185.484 149.189C185.57 149.544 185.824 149.896 185.794 150.232C185.756 150.682 185.854 151.073 186.027 151.446C186.212 151.847 185.981 152.286 186.206 152.67C186.292 152.817 186.207 152.983 186.211 153.13C186.231 153.783 186.27 154.443 186.389 155.085C186.595 156.197 186.55 157.314 186.525 158.43C186.508 159.166 186.455 159.913 186.309 160.633C186.023 162.043 185.731 163.452 185.245 164.819C184.961 165.619 184.683 166.427 184.448 167.249C184.199 168.115 183.742 168.92 183.379 169.752C183.08 170.438 182.618 171.049 182.489 171.815C182.448 172.061 182.284 172.285 182.01 172.417C182.107 172.477 182.182 172.524 182.286 172.588C182.042 172.873 182.042 173.295 181.661 173.531C181.366 173.713 181.536 174.138 181.357 174.42C180.869 175.189 180.734 176.158 180.014 176.798C179.956 177.246 179.82 177.654 179.429 177.931C179.582 178.421 178.949 178.354 178.946 178.734C178.834 178.855 179.029 178.774 179.032 178.938C178.737 179.172 178.656 179.631 178.391 179.957C178.119 180.292 178.016 180.718 177.611 181.008C177.275 181.248 177.166 181.805 176.934 182.266L176.325 182.468C176.365 182.656 176.399 182.812 176.43 182.961C176.103 183.345 175.593 183.519 175.393 184.044C175.225 184.482 174.718 184.683 174.514 185.148C174.372 185.473 174.063 185.741 173.787 185.987C173.652 186.107 173.421 186.121 173.218 186.188C172.84 187.091 172.253 187.815 171.384 188.288C170.867 189.16 169.875 189.598 169.367 190.46C169.198 190.745 168.919 190.783 168.723 191.001C167.815 192.016 166.848 192.976 165.958 194.011C165.255 194.828 164.458 195.565 163.676 196.309C163.19 196.771 162.799 197.285 162.449 197.858C161.72 199.05 161.02 200.257 160.309 201.459C159.581 202.689 158.883 203.939 158.135 205.154C157.003 206.99 156.146 208.959 155.149 210.859C154.477 212.14 153.965 213.497 153.349 214.807C152.784 216.006 152.32 217.258 151.805 218.484C151.136 220.078 150.552 221.71 149.985 223.345C149.347 225.19 148.827 227.074 148.333 228.962C147.869 230.736 147.538 232.545 147.108 234.325C146.727 235.904 146.309 237.483 145.886 239.055C145.578 240.201 145.331 241.363 145.022 242.508C144.627 243.969 144.215 245.427 143.709 246.857C143.498 247.454 143.37 248.076 143.145 248.675C143.036 248.964 142.978 249.304 142.802 249.557C142.619 249.821 142.693 250.115 142.578 250.386C142.161 251.365 141.85 252.382 141.416 253.361C140.931 254.452 140.544 255.59 140.033 256.674C139.897 256.962 139.647 257.212 139.526 257.47C139.386 257.77 139.374 258.116 139.082 258.37C138.864 258.56 139.078 258.984 138.674 259.159C138.545 259.216 138.548 259.609 138.457 259.847C138.208 260.5 137.687 260.976 137.398 261.6C137.105 262.234 136.834 262.891 136.448 263.468C135.835 264.382 135.342 265.369 134.721 266.27C134.129 267.128 133.713 268.13 132.892 268.803C132.67 268.985 132.983 269.3 132.639 269.335C131.618 270.694 130.605 272.059 129.569 273.407C129.135 273.972 128.592 274.45 128.11 274.971C127.483 275.646 126.945 276.417 126.2 276.989C125.296 277.683 124.687 278.713 123.65 279.261C123.49 279.83 122.837 279.938 122.57 280.414C122.464 280.601 122.288 280.504 122.157 280.428C121.576 281.153 120.946 281.809 120.19 282.365C119.249 283.057 118.405 283.879 117.47 284.579C116.032 285.655 114.595 286.732 113.038 287.645C112.41 288.013 111.798 288.382 111.141 288.704C110.534 289.001 109.987 289.445 109.36 289.738C109.283 289.773 109.247 289.931 109.179 289.942C108.385 290.065 107.834 290.752 107.045 290.863C106.441 290.948 106.066 291.473 105.482 291.608C104.933 291.735 104.332 291.846 103.882 292.153C102.844 292.86 101.642 293.1 100.488 293.415C99.7483 293.618 98.9949 293.847 98.2361 293.977C97.0376 294.181 95.8178 294.399 94.6049 294.336C92.9273 294.251 91.2814 293.981 89.6654 293.407C88.4184 292.964 87.4376 292.22 86.4404 291.433C85.7539 290.891 85.1976 290.212 84.6743 289.545C84.285 289.048 83.9796 288.433 83.6226 287.886C83.1077 287.097 82.7477 286.227 82.2229 285.442C81.9294 285.003 81.7377 284.464 81.5363 283.972C80.6625 281.842 79.7865 279.707 79.1312 277.491C79.0105 277.084 79.179 276.666 78.9619 276.264C78.7751 275.918 78.5893 275.51 78.5982 275.133C78.6116 274.59 78.3357 274.127 78.3117 273.63C78.2863 273.099 78.0864 272.629 78.0122 272.128C77.856 271.071 77.9119 269.986 77.577 268.952C77.7708 267.135 77.4147 265.324 77.5802 263.492C77.7021 262.147 77.8243 260.794 77.8958 259.444C77.9517 258.392 78.1829 257.369 78.2479 256.322C78.2728 255.914 78.5486 255.526 78.6142 255.142C78.6772 254.775 78.5487 254.359 78.6077 253.941C78.6588 253.58 78.7571 253.299 79.0157 253.129C78.5986 252.568 79.192 252.089 79.0781 251.544C78.9708 251.032 79.1811 250.451 79.2682 249.903C79.3559 249.353 79.4888 248.81 79.5565 248.258C79.628 247.674 79.7167 247.097 79.8135 246.517C79.9041 245.974 79.8838 245.413 79.9105 244.86C79.9376 244.297 80.1701 243.778 80.2575 243.222C80.3445 242.668 80.2724 242.111 80.4054 241.562C80.5333 241.033 80.5592 240.478 80.6288 239.945C80.3608 239.848 80.4403 240.096 80.325 240.126C79.9982 239.944 80.2184 239.715 80.3323 239.558C80.5061 239.318 80.2344 239.127 80.3242 238.901C80.4026 238.702 80.4892 238.462 80.4447 238.27C80.3912 238.037 80.4394 237.836 80.4453 237.617C80.4513 237.413 80.2223 237.169 80.6155 237.088C80.7216 236.842 80.5167 236.654 80.4885 236.43C80.6872 236.266 80.8121 236.059 80.7688 235.711C80.9168 235.892 80.9946 235.987 81.0734 236.084C81.4112 235.758 81.3152 235.325 81.0585 235.152C80.6396 234.869 80.837 234.539 80.8463 234.284C80.6891 234.029 80.3009 234.351 80.2964 233.914C80.7241 233.657 81.1901 233.384 80.9456 232.733C81.3366 232.188 80.9671 231.571 81.1162 230.982C81.2563 230.43 81.0459 229.82 81.2209 229.233C81.3116 228.929 80.9779 228.662 81.0551 228.296C81.1427 227.88 80.9656 227.455 81.0444 226.998C81.0951 226.701 80.938 226.319 80.9682 225.946C80.9903 225.674 80.8331 225.387 80.7543 225.099C80.8537 225.04 80.9336 224.993 81.0373 224.932C80.6467 224.555 80.7918 224.051 80.7593 223.6C80.7242 223.114 80.7566 222.605 80.87 222.133C80.9522 221.793 80.878 221.501 80.6681 221.35C80.4532 221.195 80.7157 220.867 80.3965 220.828C80.6857 220.479 80.0957 220.074 80.473 219.72C80.647 219.556 80.4519 219.269 80.6328 219.089C80.368 219.068 80.3725 218.716 80.1236 218.676C80.1666 217.942 80.1666 217.942 80.417 217.68C80.0729 217.381 79.831 217.075 80.1402 216.553C80.3156 216.258 79.8333 215.864 80.038 215.47C79.919 215.415 79.7211 215.323 79.7853 215.22C79.999 214.877 79.6298 214.572 79.7452 214.289C79.8845 213.948 79.6565 213.719 79.6005 213.442C79.5392 213.138 79.2558 212.933 79.2905 212.553C79.3207 212.225 78.994 211.909 79.1767 211.525C79.2686 211.33 78.8328 211.389 78.941 211.105C79.0153 210.908 78.5695 210.838 78.7598 210.498C78.902 210.244 78.6362 209.943 78.5614 209.662C78.4935 209.406 78.3981 209.157 78.3142 208.904C78.1189 209.003 78.1189 209.003 78.07 209.089C77.9607 209.073 77.9318 208.989 77.8883 208.902C77.7524 208.628 78.0017 208.351 77.8405 208.054C77.7273 207.847 77.5862 207.605 77.6871 207.309C77.7647 207.083 77.4012 207.049 77.3918 206.798C77.3844 206.607 77.5461 206.458 77.4402 206.24C76.9348 205.2 77.0592 203.991 76.5469 202.968C76.6879 202.75 76.7729 202.987 76.8801 202.957C76.8915 202.935 76.9264 202.897 76.9185 202.876C76.5033 201.843 76.5496 200.69 76.0917 199.67C75.9755 199.413 76.1812 199.078 75.8406 198.867C75.6137 198.726 75.986 198.336 75.6409 198.184C75.8565 197.834 75.569 197.555 75.499 197.25C75.4322 196.959 75.3162 196.679 75.2219 196.395C75.1172 196.079 75.073 195.72 74.8913 195.458C74.6929 195.17 75.2038 194.693 74.6144 194.56C74.8703 194.219 74.5848 193.931 74.5094 193.629C74.4213 193.275 74.2854 192.932 74.1702 192.584C74.0655 192.268 73.9294 191.959 73.8632 191.634C73.7543 191.103 73.7996 190.539 73.5354 190.041C73.2823 189.563 73.5871 189.029 73.2549 188.593L73.5418 188.498C74.0825 190.344 74.3272 192.273 75.1587 194.149Z" fill="#2D3E4E"/>
<path opacity="0.32" d="M114.909 167.27L114.477 167.737C116.063 164.321 118.048 161.104 120.389 158.154C123.749 154.007 127.697 150.375 132.108 147.376C136.43 144.444 140.953 141.822 145.643 139.53C152.51 136.217 159.197 132.539 165.674 128.513C170.992 125.155 175.601 120.782 179.236 115.645C180.673 113.601 182.078 111.53 183.388 109.328C183.651 109.814 183.132 109.959 183.123 110.499C183.498 109.851 184.061 109.319 184.011 108.854C183.963 108.595 183.985 108.328 184.075 108.08C184.165 107.832 184.319 107.612 184.522 107.444C186.03 106.5 186.294 104.792 187.118 103.445C187.745 102.359 187.866 101.035 188.571 99.9468C189.475 98.5689 190.039 97.0018 191.299 95.8138C191.853 95.1451 192.221 94.3415 192.364 93.4852C192.554 92.6382 193.015 91.8761 193.678 91.3161C194.767 90.5739 195.043 89.3553 195.814 88.4374C197.681 86.1816 199.68 84.0388 201.801 82.0202C204.882 79.1945 208.251 76.7025 211.853 74.5858C217.799 71.0102 224.22 70.2161 230.958 71.077C237.695 71.938 243.135 74.9931 247.094 80.5879C249.173 83.5482 251.252 86.5085 253.058 89.646C254.234 91.643 255.142 93.7876 255.757 96.0242C256.294 98.0243 257.421 99.7028 258.495 101.405C261.406 105.819 263.582 110.678 264.938 115.793C266.159 120.995 266.375 126.385 265.574 131.673C264.599 138.741 262.111 145.349 259.162 151.815C254.926 161.128 250.664 170.433 248.183 180.417C246.443 187.464 245.285 194.567 245.677 201.848C245.937 205.033 246.64 208.164 247.765 211.152C249.598 216.501 251.749 221.73 253.328 227.158C254.561 231.033 255.376 235.031 255.759 239.082C256.256 246.221 255.851 253.308 253.67 260.178C251.321 267.528 247.801 274.217 241.823 279.355C236.125 284.234 229.704 287.154 222.041 286.537C217.851 286.198 214.019 284.647 210.405 282.584C203.777 278.804 197.538 274.376 190.924 270.612C186.417 268.064 182.009 265.333 177.195 263.465C171.259 261.189 165.152 260.903 158.914 261.904C154.719 262.597 150.57 263.449 146.395 264.2C141.394 265.104 136.36 265.702 131.262 265.282C122.292 264.534 115.734 260 111.084 252.472C108.408 248.075 106.412 243.297 105.162 238.299C104.611 236.174 104.233 234.017 103.819 231.87C103.441 229.911 103.261 227.918 103.28 225.921C103.297 224.319 102.972 222.73 102.954 221.107C102.887 215.242 103.21 209.377 103.921 203.553C104.378 200.071 105.051 196.621 105.762 193.184C106.331 190.437 107.074 187.712 107.91 185.026C108.604 182.802 109.249 180.542 110.029 178.345C110.448 177.162 111.293 176.155 111.753 174.956C112.606 172.566 113.634 170.242 114.828 168.002C114.918 167.904 114.973 167.779 114.987 167.647C115 167.514 114.971 167.381 114.903 167.267C115.978 166.011 116.577 164.488 117.338 163.05C116.375 164.363 115.561 165.779 114.909 167.27ZM242.611 271.844L242.76 271.883C243.329 271.005 243.96 270.154 244.453 269.232C246.058 266.265 247.786 263.299 248.217 259.795C248.331 258.871 248.956 257.963 248.995 256.942C249.037 255.525 249.715 254.243 249.758 252.796C249.862 250.519 250.035 248.283 250.276 246.024C250.357 244.554 250.336 243.079 250.215 241.612C250.138 240.453 249.995 239.3 249.787 238.157C249.53 236.022 249.094 233.913 248.483 231.852C247.851 229.774 247.13 227.715 246.378 225.669C245.626 223.623 244.816 221.652 244.123 219.625C243.327 217.231 242.378 214.891 241.282 212.619C240.717 211.514 240.663 210.276 240.152 209.132C239.66 208.164 239.287 207.141 239.039 206.083C238.671 204.158 238.448 202.207 238.372 200.247C238.244 193.746 239.013 187.257 240.657 180.962C241.142 179.007 241.488 176.995 242.57 175.229C242.939 174.697 243.196 174.096 243.326 173.462C243.502 172.253 243.866 171.078 244.404 169.981C245.505 167.657 246.297 165.21 247.342 162.862C249.043 159.055 250.773 155.265 252.687 151.573C253.856 149.32 254.693 146.929 255.918 144.701C256.73 143.293 257.004 141.582 257.493 139.996C259.817 132.515 260.622 124.936 258.59 117.268C258.336 116.296 258.871 115.437 258.478 114.517C256.648 110.346 254.884 106.127 253.296 101.846C251.625 97.3453 248.536 93.6464 246.186 89.541C245.713 88.7071 245.679 88.7262 245.799 87.6433C245.809 87.5322 245.666 87.403 245.58 87.2832C243.952 84.9805 242.526 82.5296 240.69 80.3716C239.549 79.0274 238.5 77.5497 236.934 76.6455C231.526 73.4141 225.854 73.1533 220.019 75.3133C216.79 76.6224 213.751 78.3623 210.986 80.4857C205.154 84.6532 200.266 90.0078 196.644 96.1974C192.989 102.42 189.78 108.891 185.907 114.995C182.169 120.979 177.276 126.158 171.516 130.227C164.508 135.144 156.961 139.087 149.398 142.991C144.136 145.551 139.116 148.582 134.396 152.045C127.968 157.014 122.829 163.461 119.416 170.838C117.266 175.321 115.426 179.947 113.908 184.681C109.708 197.565 107.583 211.032 107.612 224.575C107.639 230.821 108.321 236.914 110.425 242.817C111.839 246.795 113.511 250.634 116.105 254.008C117.526 256.039 119.477 257.64 121.747 258.636C124.646 259.794 127.733 260.415 130.857 260.47C137.212 260.595 143.385 259.222 149.573 258.037C155.761 256.852 161.758 255.837 167.996 256.783C171.572 257.306 175.054 258.338 178.336 259.848C186.719 263.777 194.394 268.917 202.096 274.01C205.654 276.36 209.005 279.026 212.875 280.887C215.414 282.216 218.192 283.026 221.048 283.27C226.187 283.488 231.246 281.899 235.348 278.778C235.453 278.679 235.575 278.599 235.709 278.543C237.299 278.114 238.169 276.849 239.12 275.645C239.368 275.337 239.607 274.883 239.929 274.796C241.077 274.501 241.045 273.159 242.003 272.614C242.422 272.373 242.649 271.375 243.118 270.805L242.611 271.844ZM178.092 123.059C180.931 120.223 183.421 117.057 185.509 113.628C188.044 109.532 190.373 105.324 192.658 101.084C193.892 98.7983 195.217 96.5573 196.449 94.2626C196.762 93.7195 197.494 93.3791 197.382 92.512C196.254 93.9633 195.253 95.5085 194.389 97.1306C191.6 102.124 188.954 107.231 186.007 112.093C183.695 115.974 181.047 119.644 178.092 123.059ZM247.251 271.229C244.644 274.865 241.539 278.116 238.027 280.886C241.864 278.499 245.036 275.178 247.248 271.235L247.251 271.229ZM246.148 181.118C244.64 186.051 243.877 191.18 243.883 196.335C244.35 191.224 245.176 186.164 246.145 181.124L246.148 181.118ZM264.446 126.38C264.588 121.79 264.299 117.223 262.445 112.945C263.621 117.331 264.292 121.838 264.446 126.38ZM120.385 166.149C122.689 161.888 125.959 158.364 129.118 154.76C125.431 157.891 122.453 161.774 120.385 166.149ZM250.468 265.712C250.109 265.769 249.992 265.756 249.978 265.795C249.353 267.34 248.564 268.814 247.625 270.191C247.548 270.326 247.509 270.474 247.641 270.582C247.773 270.689 247.995 270.599 248.077 270.444C248.895 268.946 249.638 267.405 250.485 265.722L250.468 265.712ZM239.126 194.235C238.768 196.177 238.708 198.162 238.95 200.121L239.126 194.235ZM187.289 104.548C186.031 106.041 185.724 106.923 186.338 107.66C185.554 106.194 187.291 105.835 187.289 104.548ZM188.254 100.9L188.37 100.968L190.521 97.2415L190.405 97.1743L188.254 100.9Z" fill="#2D3E4E"/>
</svg>
