<svg width="60" height="74" viewBox="0 0 60 74" fill="none" xmlns="http://www.w3.org/2000/svg">
<path fill-rule="evenodd" clip-rule="evenodd" d="M47.5337 19.085C47.1478 19.746 45.5655 19.4942 46.1429 20.9096C46.1826 21.009 46.0284 21.3059 45.9228 21.3301C44.6208 21.6345 44.517 22.9121 43.9603 23.7848C42.8693 25.499 41.9499 27.321 40.8758 29.047C39.7905 30.7905 38.9775 32.6727 37.4351 34.1813C36.3268 35.2647 35.6336 36.8518 34.9969 38.3186C34.3163 39.8893 32.7726 40.7731 32.1023 42.2775C31.1775 44.3572 29.1672 45.6624 28.3154 47.7744C28.2844 47.8525 28.2496 47.9445 28.1865 47.9921C26.1842 49.5132 24.9978 51.764 23.2506 53.5154C22.5952 54.1727 21.5664 54.5713 21.5763 55.7378C22.0354 56.3575 22.7658 56.0818 23.3361 56.285C25.0687 56.9016 26.9252 57.1619 28.5538 58.0764C29.5363 57.4462 30.1297 58.6585 31.1072 58.6194C31.9308 58.5873 32.9964 58.9611 33.8089 59.413C34.6226 59.8666 35.6531 59.4743 36.3253 60.2234C37.6365 59.8079 38.5075 61.0005 39.7578 61.1458C41.994 61.4054 44.1851 62.1671 46.4277 62.6116C47.7279 62.8686 48.7914 62.6991 49.7004 62.4631C50.7186 61.3416 50.7674 60.1465 50.7512 59.0713C50.7076 56.1265 50.6533 53.1572 50.2467 50.2475C49.6096 45.6948 49.2569 41.1219 48.871 36.5504C48.5548 32.8102 48.3336 29.0623 48.0897 25.3164C47.9533 23.2341 48.1599 21.1235 47.5337 19.085ZM43.5247 70.8347C42.7478 71.0436 42.0916 71.2187 41.4363 71.3943C41.4116 71.3176 41.3879 71.2392 41.3632 71.1624C41.312 71.0122 41.2351 70.7253 41.2118 70.7302C38.9502 71.1305 37.262 68.8539 34.958 69.3817C34.8109 69.0467 34.7753 68.427 34.314 68.498C33.4569 68.6293 32.8444 68.5289 32.5855 67.611C32.5383 67.4426 32.3736 67.3712 32.2245 67.5362C31.4133 68.4334 30.8236 67.8235 30.038 67.4088C29.3088 67.0254 28.355 67.0945 27.5187 66.8854C25.2795 66.3265 23.2309 65.1147 20.9074 64.8682C20.159 64.7885 20.3605 63.5846 19.2723 63.8175C18.7677 63.926 17.8554 63.9306 17.2098 63.3391C16.694 62.8678 15.8574 63.068 15.1531 62.7778C13.8693 62.2479 12.4765 62.4202 11.3374 63.4244C11.2937 63.2612 11.2499 63.098 11.2066 62.9361C10.1749 62.7274 9.69003 63.052 10.0114 64.1623C9.68297 64.2496 9.35529 64.3374 9.0246 64.4267C8.94968 64.1981 8.87475 63.9695 8.80222 63.7498C7.83753 63.6659 7.28702 65.0488 6.37056 64.6145C5.61177 64.2562 4.86201 64.082 4.1397 64.0357C3.61001 63.316 4.66884 62.953 4.34192 62.3526C3.95413 62.369 3.53364 62.7352 3.13007 62.0323C3.38343 61.4479 3.51946 60.6168 4.52317 60.4127C4.08984 59.4254 3.33969 58.7907 2.40927 58.2406C1.43069 57.6638 0.643624 56.871 0.909609 55.5049C1.11078 54.4733 -0.214767 53.7414 0.444145 52.531C0.539151 52.4878 0.827661 52.3558 1.10883 52.2067C2.18701 51.6329 3.22567 51.3272 4.60085 51.7548C6.75559 52.4244 9.16041 52.3341 11.2679 53.095C13.0451 53.7352 13.8328 52.6844 14.7364 51.8363C15.3585 51.2535 15.9616 50.5336 16.4546 49.8515C17.9795 47.7422 20.0398 46.0553 21.255 43.7154C23.0218 42.746 23.2593 40.5929 24.6939 39.3195C26.0887 38.0835 26.4444 36.0225 27.6939 34.7133C29.9999 32.2985 31.2232 29.2574 32.9299 26.503C34.6269 23.7634 36.1718 20.9307 37.7833 18.1396C39.4372 15.2749 41.4251 12.5449 42.6528 9.50748C43.886 6.45491 45.6815 3.77437 47.1103 0.926313C48.1673 0.643099 49.1503 0.3797 49.9994 0.152173C50.1836 0.839392 50.3698 1.53426 50.5694 2.27677C51.6846 1.76205 52.4396 2.27989 52.8154 2.80508C54.3634 4.96622 55.4831 7.2455 55.413 10.0998C55.3044 14.4581 55.5156 18.8263 55.6422 23.1899C55.7377 26.5376 55.979 29.8886 56.2768 33.1958C56.6613 37.4561 56.8584 41.7591 57.6936 45.9854C58.0211 47.6434 57.7153 49.4499 58.3946 51.0136C58.7329 51.7941 57.2655 52.2748 58.3655 53.0036C59.0708 53.4712 58.4017 54.3986 58.6689 55.0745C58.9768 55.8536 58.8161 56.7125 59.002 57.4676C59.1869 58.2188 58.81 58.9313 59.1319 59.6507C59.4339 60.3241 59.3129 61.0862 59.3938 61.8011C59.5811 63.4741 59.6066 65.1454 59.5591 66.8143C59.5015 68.8126 58.5111 70.3284 56.8079 71.3669C56.6052 71.4902 56.3565 71.6764 56.2029 71.7128C55.4019 71.9056 55.244 73.0377 54.5733 73.0438C52.9085 73.0601 51.211 73.5922 49.6007 73.1108C48.796 72.8693 48.038 72.8326 47.2587 72.8364C46.4928 72.8415 46.0804 72.0419 45.1889 72.1803C44.5689 72.2761 43.7129 71.8994 43.5247 70.8347Z" fill="#F3922A"/>
</svg>
