<svg width="314" height="348" viewBox="0 0 314 348" fill="none" xmlns="http://www.w3.org/2000/svg">
<path opacity="0.4" fill-rule="evenodd" clip-rule="evenodd" d="M273.445 82.7948C273.207 82.9703 273.041 83.1284 272.945 83.3528C272.919 83.4142 272.883 83.4843 272.956 83.5281C272.991 83.5487 273.093 83.5275 273.093 83.5235C273.099 83.2406 273.556 83.208 273.445 82.7948M290.172 97.2844C290.205 97.3119 290.238 97.3393 290.272 97.3668C290.719 97.0418 291.092 96.647 291.383 96.1747C291.17 96.3316 290.998 96.5305 290.811 96.7124C290.606 96.911 290.385 97.0943 290.172 97.2844M277.365 86.8025C277.801 86.1449 278.34 85.5545 278.57 84.7866C277.933 85.3212 277.67 86.0793 277.365 86.8025M286.95 91.4368C286.543 91.9483 285.96 92.3508 285.892 93.078C286.366 92.6109 286.799 92.1175 286.95 91.4368M273.983 82.2936C274.981 81.441 276.134 80.7837 277.042 79.8179C275.89 80.478 274.801 81.215 273.983 82.2936M289.553 91.8501C288.611 93.0612 287.696 94.2389 286.78 95.4166C288.553 93.9095 289.414 92.7846 289.553 91.8501M274.348 86.8792C274.395 86.8477 274.457 86.8299 274.47 86.7945C274.935 85.4659 275.867 84.4982 276.881 83.5729C277.385 83.1133 277.719 82.4953 278.16 81.825C276.752 82.2781 274.409 85.4689 274.348 86.8792M280.931 101.079C275.606 100.988 271.973 97.9923 270.468 93.2224C269.605 90.4857 269.98 87.8304 271.223 85.3206C272.478 82.7857 274.35 80.7617 276.899 79.4654C277.964 78.9239 279.105 78.5282 280.226 78.1054C280.663 77.9405 281.128 77.981 281.588 78.1444C282.171 78.3517 282.793 78.4382 283.407 78.4173C284.77 78.3715 285.988 78.8081 287.116 79.5025C287.877 79.9709 288.697 80.3493 289.378 80.9422C291.494 82.7845 292.961 85.0509 293.793 87.7283C294.106 88.7375 293.996 89.7691 293.899 90.7895C293.842 91.3774 293.612 91.9586 293.52 92.5225C293.448 92.961 293.09 93.2792 293.118 93.5717C293.161 94.0137 292.98 94.2932 292.802 94.6014C291.127 97.4998 288.504 99.1441 285.413 100.166C284.318 100.529 283.208 100.832 282.067 101.003C281.626 101.069 281.175 101.064 280.931 101.079" fill="#E09E50"/>
<path opacity="0.4" fill-rule="evenodd" clip-rule="evenodd" d="M271.993 277.366C271.431 277.265 270.997 277.188 270.579 277.113C270.623 277.428 270.658 277.677 270.706 278.019C270.351 277.895 270.139 277.821 269.895 277.737C269.981 277.974 270.057 278.184 270.128 278.382L269.86 278.65C269.637 278.493 269.409 278.333 269.139 278.143L268.235 279.047C267.282 278.751 266.657 278.936 266.75 279.442C266.898 279.458 267.067 279.432 267.18 279.5C267.285 279.562 267.329 279.724 267.478 279.971C267.013 280.027 266.631 280.024 266.285 280.134C266.089 280.196 265.951 280.443 265.719 280.675C266.059 280.727 266.239 280.754 266.405 280.78C266.5 281.759 266.501 281.761 265.729 281.986C265.632 282.274 265.426 282.567 265.486 282.788C265.561 283.063 265.832 283.276 265.447 283.47C265.184 283.408 264.943 283.35 264.577 283.263C264.687 284.079 264.776 284.731 264.864 285.384C264.67 285.396 264.532 285.405 264.337 285.418C264.419 285.762 264.494 286.081 264.574 286.415C264.45 286.754 264.315 287.126 264.178 287.499C264.361 287.52 264.486 287.535 264.628 287.551C264.32 288.119 264.033 288.649 263.736 289.196C263.899 289.203 264.041 289.21 264.119 289.214C264.406 289.875 264.683 290.513 265.017 291.282C265.561 290.169 264.851 289.241 265.014 288.284C265.178 287.33 265.199 286.351 265.291 285.28L265.767 285.756C265.729 286.485 265.794 287.085 265.642 287.622C265.482 288.188 265.822 288.723 265.628 289.236C265.41 289.814 265.762 290.294 265.792 290.823C265.843 291.7 266.425 292.56 265.881 293.423C266.403 294.091 266.776 294.786 266.775 295.661L267.59 296.476C267.5 296.67 267.422 296.837 267.342 297.01C267.807 297.083 268.206 297.184 268.217 297.763C268.232 298.576 268.615 299.235 269.214 299.74C269.676 300.13 269.854 300.68 270.185 301.14C270.433 301.485 270.877 301.701 270.841 302.224C270.838 302.266 270.991 302.318 271.072 302.364C271.238 302.285 271.405 302.206 271.569 302.127C271.622 302.331 271.633 302.529 271.724 302.678C271.824 302.844 271.983 302.984 272.142 303.102C272.302 303.219 272.517 303.266 272.661 303.396C272.786 303.51 272.808 303.782 272.937 303.835C273.683 304.145 274.32 304.608 274.986 305.056C275.819 305.617 276.812 305.913 277.731 305.973C278.411 305.066 278.568 304.084 279.131 303.243C279.73 302.349 279.88 301.167 280.317 300.15C281.144 298.223 281.184 296.052 282.203 294.186C282.28 294.045 282.181 293.808 282.163 293.615C282.148 293.453 282.089 293.281 282.124 293.13C282.574 291.127 282.698 289.1 282.647 287.051C282.62 285.944 282.39 284.883 282.136 283.815C281.996 283.223 281.639 282.673 281.608 282.094C281.554 281.062 280.912 280.341 280.396 279.598C279.834 278.791 279.064 278.103 278.295 277.473C277.498 276.819 276.522 276.45 275.5 276.289C275.198 276.242 274.86 276.476 274.542 276.465C274.225 276.455 273.914 276.3 273.555 276.195C273.535 276.398 273.522 276.528 273.506 276.681C273.233 276.688 272.946 276.696 272.654 276.704L271.993 277.366ZM259.79 283.278C260.174 283.531 260.855 283.368 261.007 284.088C260.875 284.102 260.747 284.115 260.621 284.129C260.832 284.669 260.654 285.152 260.424 285.577C260.452 286.437 260.516 287.26 260.496 288.08C260.475 288.941 260.374 289.799 260.305 290.681C260.226 290.686 260.087 290.694 259.803 290.711C260.604 291.432 260.625 292.332 260.573 293.183C260.888 293.284 261.154 293.37 261.421 293.455C261.492 293.385 261.562 293.315 261.674 293.203C261.525 292.983 261.368 292.753 261.168 292.457C261.753 292.026 261.695 291.421 261.565 290.76C261.354 290.723 261.177 290.692 260.977 290.657C261.403 289.979 261.58 289.307 261.459 288.458C261.216 286.761 261.533 285.064 261.863 283.393C261.918 283.113 262.152 282.87 262.447 282.365C261.845 282.526 261.528 282.61 261.25 282.684C261.29 282.953 261.326 283.194 261.38 283.559C260.818 283.293 260.408 283.098 259.997 282.903C260.17 282.34 260.342 281.777 260.524 281.187C260.651 281.171 260.793 281.155 260.951 281.136C261.189 279.834 262.161 278.9 262.858 277.765C263.015 277.714 263.281 277.629 263.546 277.543L264.022 278.019C264.154 277.925 264.295 277.825 264.588 277.616C264.219 277.451 263.992 277.349 263.759 277.245C263.758 277.129 263.759 276.979 263.758 276.834C264.265 276.292 264.851 276.728 265.522 276.69C265.338 276.43 265.192 276.224 264.989 275.938C265.477 275.201 266.423 275.211 267.062 274.747C267.294 274.935 267.479 275.085 267.897 275.421C267.746 274.947 267.662 274.682 267.627 274.572L268.557 273.642C268.615 273.856 268.656 274.002 268.742 274.318C268.913 274.038 269.021 273.859 269.229 273.516C269.112 273.587 269.168 273.535 269.234 273.515C270.35 273.188 271.452 272.804 272.584 272.555C274.117 272.218 275.697 272.098 277.252 272.268C278.568 272.411 279.853 272.813 281.19 272.887C281.46 272.902 281.721 273.05 282.003 273.142C282.003 273.189 282.003 273.288 282.002 273.517C282.517 273.302 283.004 273.411 283.433 273.679C284.895 274.592 284.89 274.601 285.142 275.282C285.721 275.535 286.221 275.754 286.714 275.969C286.604 276.299 286.533 276.51 286.436 276.802C286.703 276.862 286.927 276.913 287.025 276.935C287.717 277.943 288.356 278.873 289.005 279.819C288.868 279.991 288.719 280.176 288.521 280.423C289.277 281.092 289.234 282.021 289.208 283.083C289.567 282.981 289.807 282.913 290.131 282.821C290.194 283.096 290.255 283.364 290.349 283.77C290.097 283.646 289.953 283.575 289.755 283.477C289.652 283.727 289.423 284.009 289.449 284.266C289.534 285.113 289.69 285.955 289.867 286.788C289.911 287 290.137 287.173 290.173 287.221C290.131 287.932 289.928 288.561 290.097 289.066C290.558 290.444 290.061 291.71 289.846 293.012C289.787 293.374 289.657 293.723 289.555 294.096C289.428 294.036 289.26 293.957 289.082 293.873C289.056 293.946 288.989 294.063 289.01 294.081C289.322 294.358 289.595 294.643 289.312 295.247L288.695 295.865C288.742 296.35 288.799 296.94 288.856 297.526C288.527 297.706 288.285 297.84 288.004 297.994C288.394 299.074 287.77 300.03 287.369 301.056C287.226 301.072 287.084 301.088 286.902 301.107C286.891 301.519 286.88 301.948 286.869 302.387L286.031 303.224C286.226 303.786 286.328 304.312 285.61 304.581C285.495 305.177 285.38 305.774 285.275 306.328C286.289 306.048 287.392 305.742 288.527 305.428C288.55 305.29 288.573 305.151 288.598 305.004C288.935 304.829 289.285 304.648 289.63 304.469L289.862 304.7C289.932 304.664 290.059 304.62 290.055 304.597C289.982 304.158 290.342 303.975 290.589 303.771C290.908 303.505 291.31 303.341 291.653 303.099C291.969 302.877 292.217 302.515 292.559 302.388C293.028 302.213 292.939 301.724 293.247 301.438C293.59 301.119 294.119 301.053 294.341 300.514C294.517 300.087 294.982 299.773 295.337 299.428C296.444 298.354 297.18 297.028 297.918 295.698C298.372 294.883 298.935 294.123 299.335 293.284C299.972 291.952 300.588 290.599 301.063 289.204C301.286 288.549 301.894 288.015 301.737 287.228C301.688 286.986 302.194 286.782 301.787 286.467C301.719 286.415 301.915 286.061 301.937 285.843C301.966 285.545 301.924 285.242 301.949 284.944C301.993 284.383 302.064 283.824 302.138 283.127L302.971 283.959C302.791 284.601 302.791 284.601 303.294 285.874L303.82 285.348C303.435 284.505 303.762 283.555 303.604 282.629C303.79 282.635 303.939 282.639 304.193 282.648C304.3 282.959 304.424 283.319 304.576 283.764C304.689 283.638 304.898 283.511 304.896 283.386C304.891 283.032 304.8 282.68 304.706 282.092C305.094 282.309 305.312 282.43 305.576 282.577C305.868 282.521 306.23 282.452 306.768 282.348C306.551 282.85 306.388 283.226 306.224 283.604C306.456 283.729 306.727 283.874 307.057 284.05C306.991 284.47 306.926 284.868 306.839 285.409C307.18 285.312 307.421 285.244 307.678 285.171C307.669 285.528 307.661 285.875 307.653 286.206C307.451 286.263 307.235 286.324 306.775 286.454C307.18 286.696 307.39 286.821 307.585 286.938C307.556 287.093 307.515 287.307 307.482 287.486C307.453 287.466 307.337 287.39 307.125 287.251C307.008 287.842 306.898 288.403 306.784 288.982C306.964 288.99 307.105 288.998 307.051 288.995C307.114 289.386 307.177 289.774 307.25 290.226C306.976 290.251 306.794 290.268 306.612 290.285C306.698 290.602 306.784 290.918 306.872 291.242L306.293 291.821C306.104 292.745 305.995 293.596 305.744 294.401C305.52 295.121 304.701 295.561 304.693 296.494C304.408 296.485 304.114 296.476 303.799 296.467C303.66 296.627 303.507 296.803 303.205 297.15C303.645 296.991 303.852 296.915 304.128 296.814C303.782 297.841 303.942 299.079 302.581 299.48C302.581 299.693 302.581 299.943 302.58 300.218C302.449 300.228 302.316 300.24 302.086 300.258C301.969 300.976 301.561 301.509 300.706 301.627C300.685 301.97 300.665 302.301 300.642 302.676C300.395 302.806 300.148 302.935 299.845 303.095C299.824 303.173 299.829 303.402 299.718 303.501C299.595 303.61 299.337 303.555 299.19 303.651C298.986 303.785 298.83 303.994 298.653 304.171C298.511 304.312 298.39 304.487 298.223 304.585C298.068 304.677 297.865 304.687 297.593 304.756C297.674 305.991 296.294 305.691 295.746 306.714C295.634 306.042 295.575 305.688 295.517 305.334C295.148 305.347 294.965 306.006 295.106 306.877C294.957 306.78 294.84 306.704 294.696 306.611C294.049 306.625 294.205 307.312 293.91 307.653C293.62 307.662 293.327 307.67 293.04 307.678C293.031 307.817 293.023 307.955 293.011 308.143C292.858 308.056 292.737 307.988 292.53 307.87C291.626 308.366 290.658 308.904 289.666 309.393C289.178 309.632 288.869 309.539 288.567 309.405C288.269 309.692 288.032 310.124 287.722 310.185C286.002 310.528 284.262 310.774 282.532 311.068C282.261 311.114 282.007 311.249 281.739 311.323C281.42 311.41 281.095 311.477 280.732 311.563C280.785 311.666 280.863 311.818 280.996 312.076C280.392 312.553 280.032 313.359 279.116 313.52C279.004 313.872 278.892 314.227 278.772 314.61C277.707 314.796 277.434 316.194 276.389 316.383C276.22 316.688 276.064 316.968 275.894 317.275C275.669 317.164 275.503 317.083 275.326 316.997C275.158 317.633 274.694 317.877 274.122 318.165C273.583 318.436 273.163 318.943 272.477 318.911C272.47 319.004 272.462 319.097 272.448 319.291C272.327 319.31 272.18 319.331 271.945 319.367C271.895 319.513 271.836 319.688 271.786 319.835C271.21 320.187 270.649 320.581 270.043 320.888C268.805 321.514 267.737 322.467 266.312 322.752C265.833 322.848 265.39 323.181 264.957 323.448C262.415 325.012 259.577 325.721 256.705 326.34C255.08 326.689 253.443 326.847 251.781 326.767C251.238 326.741 250.656 326.672 250.156 326.827C249.61 326.996 249.175 326.67 248.654 326.737C247.246 326.918 245.873 326.48 244.487 326.311C243.14 326.147 241.805 325.822 240.49 325.474C239.102 325.106 237.669 324.778 236.394 324.151C235.192 323.561 233.859 323.2 232.793 322.329C232.663 322.223 232.377 322.297 232.261 322.186C231.601 321.553 230.696 321.318 229.997 320.77C229.49 320.371 229.069 319.862 228.531 319.323C228.553 319.017 228.581 318.63 228.615 318.158C229.036 317.928 229.523 317.66 229.968 317.417C230.139 317.525 230.257 317.6 230.384 317.68L230.801 317.263C231.252 317.32 231.687 317.315 232.078 317.443C232.468 317.571 232.885 317.762 233.169 318.047C234.209 319.088 235.644 319.337 236.893 319.94C237.801 320.379 238.776 320.693 239.699 321.129C240.196 321.364 240.784 321.409 241.336 321.519C242.58 321.768 243.793 322.15 245.058 322.315C245.756 322.406 246.437 322.661 247.135 322.715C248.651 322.834 250.174 322.936 251.694 322.928C254.899 322.913 257.952 322.072 260.945 321.015C261.592 320.786 262.171 320.345 262.759 319.967C263.544 319.463 264.501 319.305 265.235 318.701C266.296 317.829 267.644 317.385 268.634 316.392C268.993 316.033 269.49 315.814 269.912 315.511C270.333 315.21 270.544 314.658 271.201 314.608C271.425 314.592 271.651 314.138 271.813 313.849C272.284 313.016 272.775 312.554 273.68 312.173C273.714 311.988 273.748 311.804 273.796 311.544C273.979 311.524 274.163 311.497 274.347 311.489C274.494 311.483 274.642 311.5 274.734 311.504C274.721 311.141 274.71 310.8 274.693 310.341C274.126 310.14 273.424 309.919 272.745 309.644C272.06 309.367 271.41 309.001 270.72 308.739C270.073 308.492 269.467 308.209 268.709 307.668C268.763 307.668 268.512 307.667 268.214 307.668C267.818 307.272 267.413 306.832 266.97 306.436C266.657 306.156 266.471 305.696 265.903 305.731C265.734 305.741 265.441 305.445 265.385 305.241C265.132 304.317 264.309 303.878 263.761 303.21C263.275 302.617 262.819 302.002 262.926 301.099C262.443 300.683 262.037 300.177 261.834 299.508C261.702 299.072 261.261 298.682 261.254 298.267C261.244 297.728 260.826 297.51 260.692 297.136C260.407 296.342 259.787 295.567 260.417 294.59C260.097 294.546 259.913 294.521 259.698 294.492C259.741 294.226 259.786 293.95 259.875 293.408C259.801 293.24 259.616 292.822 259.33 292.174C259.265 291.376 258.974 290.276 259.149 289.258C259.322 288.256 259.132 287.294 259.236 286.329C259.347 285.303 259.6 284.294 259.79 283.278V283.278Z" fill="#E09E50"/>
<circle opacity="0.1" cx="43.4593" cy="64.4594" r="170.206" transform="rotate(-75 43.4593 64.4594)" fill="#E09E50"/>
<circle opacity="0.1" cx="172.316" cy="195.065" r="78.9418" transform="rotate(-75 172.316 195.065)" fill="#E09E50"/>
</svg>
