<svg width="238" height="294" viewBox="0 0 238 294" fill="none" xmlns="http://www.w3.org/2000/svg">
<path opacity="0.4" fill-rule="evenodd" clip-rule="evenodd" d="M4.73863 197.593C4.41158 197.834 4.18226 198.052 4.05118 198.36C4.01547 198.445 3.9657 198.541 4.06629 198.601C4.11346 198.63 4.25366 198.6 4.25392 198.595C4.26252 198.206 4.89134 198.161 4.73863 197.593M27.7355 217.516C27.7813 217.554 27.8269 217.592 27.8725 217.63C28.4883 217.183 29.0007 216.64 29.4012 215.99C29.1072 216.206 28.8719 216.48 28.6142 216.73C28.3322 217.003 28.0292 217.255 27.7355 217.516M10.1269 203.104C10.7268 202.199 11.4671 201.388 11.784 200.332C10.9076 201.067 10.5467 202.109 10.1269 203.104M23.3074 209.476C22.7485 210.179 21.9471 210.732 21.8525 211.732C22.5048 211.09 23.1008 210.412 23.3074 209.476M5.47559 196.904C6.8471 195.731 8.43335 194.828 9.68082 193.5C8.0977 194.407 6.59928 195.421 5.47559 196.904M26.8835 210.044C25.5892 211.709 24.3302 213.329 23.0713 214.948C25.5089 212.876 26.692 211.329 26.8835 210.044M5.97867 203.209C6.04382 203.166 6.12956 203.141 6.1465 203.093C6.78652 201.266 8.06735 199.935 9.46206 198.663C10.1547 198.031 10.6142 197.181 11.2208 196.259C9.28511 196.883 6.06337 201.27 5.97867 203.209M15.0305 222.734C7.70826 222.609 2.71238 218.49 0.644028 211.931C-0.542465 208.168 -0.027788 204.517 1.68094 201.066C3.40686 197.58 5.98129 194.797 9.48604 193.015C10.9501 192.27 12.5194 191.726 14.0611 191.145C14.6623 190.918 15.3005 190.974 15.9329 191.199C16.7356 191.484 17.5901 191.603 18.4352 191.574C20.3088 191.511 21.9829 192.111 23.5345 193.066C24.5803 193.71 25.7089 194.23 26.6452 195.046C29.5548 197.579 31.571 200.695 32.7148 204.376C33.1463 205.764 32.9952 207.183 32.8607 208.586C32.783 209.394 32.4669 210.193 32.34 210.968C32.2413 211.571 31.7487 212.009 31.7878 212.411C31.8462 213.019 31.5976 213.403 31.3529 213.827C29.0503 217.812 25.4426 220.073 21.1923 221.479C19.6868 221.977 18.1605 222.394 16.592 222.629C15.9858 222.72 15.3651 222.713 15.0305 222.734" fill="#E09E50"/>
<path opacity="0.4" fill-rule="evenodd" clip-rule="evenodd" d="M154.17 29.5804C154.167 30.1266 153.099 30.5355 153.961 31.2043C154.021 31.2516 154.032 31.49 153.975 31.5426C153.279 32.1954 153.671 33.022 153.638 33.76C153.576 35.2087 153.657 36.6627 153.61 38.1128C153.561 39.5775 153.73 41.0308 153.315 42.5135C153.017 43.5785 153.155 44.8068 153.284 45.9404C153.424 47.154 152.786 48.251 152.908 49.42C153.079 51.0352 152.302 52.5592 152.529 54.1684C152.538 54.2277 152.549 54.297 152.527 54.3489C151.832 56.0035 151.902 57.8178 151.447 59.5236C151.277 60.1637 150.783 60.7772 151.206 61.4946C151.711 61.7137 152.064 61.2827 152.489 61.2048C153.779 60.9677 155.02 60.4661 156.352 60.4502C156.735 59.7101 157.534 60.2477 158.124 59.8747C158.622 59.5609 159.414 59.4117 160.077 59.4011C160.742 59.3911 161.239 58.781 161.921 59.0041C162.584 58.2794 163.547 58.7057 164.372 58.3494C165.847 57.7119 167.472 57.4009 169.017 56.8753C169.912 56.5703 170.509 56.086 170.987 55.6158C171.216 54.5594 170.819 53.8034 170.426 53.1447C169.348 51.3403 168.255 49.5246 166.966 47.8714C164.947 45.285 163.098 42.5848 161.228 39.8972C159.698 37.6985 158.224 35.4611 156.737 33.2331C155.909 31.9949 155.284 30.6168 154.17 29.5804M170.156 62.9937C169.75 63.4 169.407 63.7424 169.065 64.0848C169.022 64.0461 168.979 64.0062 168.937 63.9675C168.852 63.8929 168.702 63.7431 168.689 63.7544C167.434 64.8088 165.578 64.0042 164.343 65.1525C164.132 64.9979 163.889 64.6276 163.63 64.8361C163.147 65.2231 162.732 65.3796 162.245 64.9047C162.156 64.8174 162.028 64.8321 161.995 64.9873C161.814 65.8312 161.232 65.6647 160.598 65.6887C160.011 65.712 159.446 66.095 158.854 66.2641C157.271 66.7177 155.573 66.6997 154.049 67.3765C153.558 67.5943 153.253 66.7783 152.663 67.3105C152.39 67.5576 151.828 67.886 151.218 67.7508C150.731 67.6436 150.285 68.0659 149.747 68.1378C148.764 68.2683 147.965 68.8718 147.619 69.8989C147.534 69.8136 147.449 69.7284 147.364 69.6438C146.652 69.8829 146.468 70.2566 147.063 70.8281C146.891 70.9992 146.72 71.1704 146.547 71.3436C146.42 71.229 146.292 71.1145 146.168 71.0046C145.542 71.297 145.696 72.348 144.974 72.4067C144.377 72.4559 143.852 72.6158 143.389 72.8449C142.805 72.5892 143.33 71.987 142.913 71.7326C142.68 71.8811 142.55 72.2575 142.05 71.967C141.998 71.5154 141.786 70.9533 142.333 70.469C141.713 70.0135 141.023 69.8889 140.252 69.8809C139.441 69.8736 138.672 69.6644 138.349 68.7253C138.105 68.0159 137.025 68.0366 137 67.0534C137.043 66.9928 137.175 66.8083 137.295 66.6158C137.757 65.8765 138.29 65.317 139.292 65.0905C140.863 64.7355 142.317 63.8217 143.891 63.5399C145.217 63.3014 145.329 62.3709 145.585 61.5244C145.762 60.9422 145.877 60.2821 145.939 59.6847C146.129 57.837 146.8 56.0592 146.716 54.1796C147.462 52.95 146.841 51.5346 147.273 50.2358C147.694 48.9742 147.178 47.5735 147.483 46.3186C148.047 44.0033 147.718 41.6874 147.79 39.3761C147.861 37.0775 147.805 34.7756 147.805 32.4756C147.805 30.1151 148.059 27.7186 147.734 25.4033C147.407 23.0767 147.561 20.7794 147.427 18.5094C147.98 17.9573 148.493 17.4437 148.937 17.0001C149.296 17.3591 149.659 17.7221 150.047 18.1098C150.553 17.3938 151.204 17.4444 151.624 17.6349C153.351 18.4182 154.857 19.4273 155.832 21.2164C157.32 23.9486 159.009 26.5729 160.644 29.2245C161.898 31.2594 163.243 33.2443 164.607 35.1819C166.364 37.6777 168.022 40.2667 170.046 42.5806C170.84 43.4885 171.295 44.714 172.273 45.4381C172.761 45.7997 172.025 46.6203 172.965 46.6783C173.568 46.7156 173.485 47.5275 173.892 47.8499C174.36 48.2216 174.567 48.8097 174.951 49.21C175.334 49.6083 175.355 50.1832 175.811 50.5129C176.238 50.8213 176.435 51.3355 176.74 51.7484C177.453 52.7156 178.065 53.7393 178.631 54.7877C179.308 56.0433 179.237 57.3334 178.555 58.583C178.474 58.7315 178.386 58.9353 178.304 59.0126C177.878 59.4176 178.185 60.1736 177.772 60.4167C176.749 61.0208 175.89 61.9553 174.723 62.2324C174.14 62.3703 173.658 62.6181 173.178 62.8985C172.706 63.1749 172.166 62.8279 171.664 63.2315C171.315 63.5119 170.652 63.5845 170.156 62.9937" fill="#E09E50"/>
<circle opacity="0.1" cx="292" cy="221" r="221" fill="#E09E50"/>
</svg>
