<svg id="Group_68" data-name="Group 68" xmlns="http://www.w3.org/2000/svg" width="20" height="25" viewBox="0 0 28 32">
  <g id="Group_67" data-name="Group 67">
    <g id="Group_66" data-name="Group 66">
      <path id="Path_301" data-name="Path 301" d="M6.75,19.4H5.415v1.991H6.75a1,1,0,0,0,0-1.991Z" fill="#2D3E4E"/>
      <path id="Path_302" data-name="Path 302" d="M12.123,19.442H10.8v3.582h1.327C14.282,23.024,14.377,19.442,12.123,19.442Z" fill="#2D3E4E"/>
      <path id="Path_303" data-name="Path 303" d="M23,15H1a1,1,0,0,0-1,1V26a1,1,0,0,0,1,1H23a1,1,0,0,0,1-1V16A1,1,0,0,0,23,15ZM6.75,22.393H5.415v1.056A.5.5,0,0,1,4.9,24a.539.539,0,0,1-.543-.552v-4.5a.551.551,0,0,1,.543-.553H6.75a2,2,0,0,1,0,4ZM12.195,24h-1.9a.5.5,0,0,1-.552-.5V18.963a.543.543,0,0,1,.552-.5h1.831C15.777,18.467,15.7,24,12.195,24Zm7.125-4.494H16.992v1.271h2.039a.618.618,0,0,1,.576.568.554.554,0,0,1-.576.479H16.992V23.5a.475.475,0,0,1-.479.5.51.51,0,0,1-.568-.5V18.962a.506.506,0,0,1,.568-.5H19.32a.5.5,0,0,1,.559.5A.551.551,0,0,1,19.32,19.506Z" fill="#2D3E4E"/>
    </g>
    <path id="Path_304" data-name="Path 304" d="M27,7.586,20.414,1A3.739,3.739,0,0,0,18,0H7A3,3,0,0,0,4,3V13a1,1,0,0,0,2,0V3A1,1,0,0,1,7,2h9a2,2,0,0,1,2,2V7.75A2.257,2.257,0,0,0,20.25,10H24a2,2,0,0,1,2,2V29a1,1,0,0,1-1,1H7a1,1,0,0,1-1-1,1,1,0,0,0-2,0,3,3,0,0,0,3,3H25a3,3,0,0,0,3-3V10A3.743,3.743,0,0,0,27,7.586Z" fill="#2D3E4E"/>
  </g>
</svg>
