<svg width="178" height="173" viewBox="0 0 178 173" fill="none" xmlns="http://www.w3.org/2000/svg">
<path fill-rule="evenodd" clip-rule="evenodd" d="M154.735 91.1994C154.434 90.9389 154.221 90.6364 154.104 90.6698C152.098 91.2441 150.114 91.8931 148.105 92.4574C146.336 92.955 144.646 93.6705 142.899 94.2244C141.959 94.5234 140.986 94.723 140.037 95.0002C139.335 95.2061 138.629 95.6993 137.958 95.6441C137.01 95.5668 136.538 96.3594 135.685 96.4835C134.311 96.6819 133.001 97.3019 131.656 97.7152C129.484 98.3826 127.301 99.014 125.131 99.6859C123.872 100.075 122.547 100.312 121.463 101.215C121.995 101.254 122.52 101.217 123.01 101.067C124.473 100.62 125.917 100.114 127.377 99.6582C128.084 99.4371 128.815 99.2925 129.528 99.0854C130.292 98.8627 131.047 98.6096 131.807 98.3694C132.566 98.1292 133.318 97.8619 134.086 97.6549C135.684 97.2237 137.284 96.8061 138.792 96.105C139.012 96.0024 139.254 95.9469 139.487 95.8705C140.707 95.4692 142.057 95.4673 143.155 94.6809C143.3 94.5775 143.494 94.4527 143.65 94.4702C145.034 94.6307 146.281 94.0147 147.471 93.5582C148.704 93.0849 150.183 93.1189 151.169 92.0401C151.861 92.333 152.381 91.5918 152.907 91.6587C153.595 91.7453 154.02 91.444 154.735 91.1994ZM135.5 90.5474C134.207 90.741 132.921 91.0314 131.622 91.111C126.75 91.4078 121.873 91.6552 116.997 91.8796C114.741 91.9842 112.499 92.4296 110.219 92.1149C109.519 92.0178 108.78 92.1665 108.065 92.2527C107.357 92.3388 106.702 91.8197 105.898 92.3336C105.43 92.6334 104.562 92.2761 103.874 92.2718C102.728 92.2638 101.56 92.2481 100.44 92.3027C97.614 92.4396 94.7687 91.9595 91.9621 92.5504C91.8352 92.5778 91.6673 92.6271 91.5749 92.5717C90.7672 92.0824 89.9315 92.5295 89.1132 92.4797C88.2958 92.4299 87.4756 92.3757 86.6569 92.3782C84.9882 92.3827 83.3075 92.5498 81.6526 92.404C80.5563 92.308 79.4832 92.4452 78.4085 92.3804C75.8221 92.2251 73.242 92.0658 70.6457 92.0673C69.636 92.0674 68.5735 92.2033 67.6102 92.0069C65.8066 91.6384 63.9934 91.8052 62.1909 91.6336C59.6834 91.3949 57.1431 91.4993 54.637 91.2524C52.2763 91.0197 49.9117 90.885 47.5512 90.684C45.4437 90.5029 43.3403 90.2852 41.2344 90.0835C39.4401 89.9113 37.6453 89.733 35.8499 89.5732C35.5688 89.5481 35.2814 89.6074 34.9751 89.6292C35.028 89.8193 35.0367 89.9271 35.0621 89.932C36.0333 90.0885 37.0062 90.3554 37.9777 90.3508C38.9207 90.3472 39.7664 91.2134 40.7437 90.614C42.7261 90.7984 44.7082 90.992 46.6914 91.1666C48.8043 91.3515 50.916 91.5497 53.0324 91.6831C54.7958 91.7951 56.5856 91.6806 58.328 91.9215C60.8164 92.2658 63.3157 92.2815 65.8088 92.4398C67.898 92.5726 70.005 92.4448 72.0923 92.5931C74.6144 92.7718 77.1313 92.9203 79.66 92.8745C80.8702 92.8524 82.1013 92.7511 83.2894 92.9219C84.9323 93.1585 86.57 92.9618 88.2081 93.0807C89.4785 93.1729 90.7626 93.0679 92.0352 93.139C92.257 93.1509 92.4558 93.6022 92.7598 93.9642C92.9616 93.3627 93.5969 92.9968 94.0768 93.2783C95.0573 93.8536 96.0501 93.4071 97.022 93.5584C97.4063 93.6186 97.86 93.2012 98.2535 93.2463C99.9563 93.4414 101.657 93.5706 103.364 93.4037C103.916 93.3502 104.456 93.0335 104.997 93.0478C105.917 93.0719 106.935 93.5683 107.725 93.3045C108.676 92.9857 109.643 93.3706 110.54 92.933C110.75 92.8301 111.118 93.1032 111.414 93.1051C111.743 93.1068 112.235 92.8288 112.373 92.9633C112.901 93.4813 113.547 93.3678 114.014 93.1735C114.63 92.9169 115.339 92.6322 115.836 92.8604C116.614 93.2183 117.1 92.4718 117.795 92.6469C118.641 92.8604 119.539 92.7061 120.409 92.7225C121.342 92.7405 122.276 92.379 123.218 92.2966C125.571 92.0905 127.929 91.949 130.284 91.7816C131.265 91.7118 132.249 91.6634 133.227 91.5652C134.066 91.4815 134.865 91.2559 135.5 90.5474ZM124.706 101.827C125.315 102.828 126.1 102.93 126.813 102.874C127.456 102.824 128.063 102.281 128.744 102.772C129.284 102.057 130.038 102.812 130.61 102.511C131.317 102.139 131.824 102.899 132.47 102.752C132.611 102.208 132.611 102.208 134.266 102.101C135.34 102.03 135.34 102.03 136.242 102.524C136.524 102.296 136.809 102.067 137.13 101.808C137.165 102.08 137.189 102.265 137.253 102.772C137.507 102.231 137.643 101.938 137.821 101.559C138.255 101.912 139.051 101.852 139.319 102.677C139.345 102.755 140.026 102.619 140.514 102.573C140.33 103.385 140.164 104.126 139.978 104.954C138.759 105.427 137.453 105.788 136.06 105.897C134.659 106.008 133.275 106.332 131.874 106.435C130.605 106.529 129.323 106.471 128.047 106.443C126.831 106.417 125.619 106.903 124.401 106.467C122.308 107.356 120.193 106.111 118.058 106.55C116.944 106.779 115.725 106.435 114.633 105.99C114.178 105.805 113.801 105.427 113.388 105.136L112.649 102.815C112.625 102.697 112.597 102.58 112.574 102.46C112.24 100.712 112.217 100.67 113.658 99.8755C114.558 99.3798 115.541 99.0353 116.505 98.6148C116.844 98.8792 117.192 99.1511 117.658 99.5144C117.673 99.2351 117.632 99.0549 117.698 98.9351C118.15 98.1234 118.673 97.3957 119.775 97.5507C120.411 96.6062 121.601 96.9145 122.44 96.3734C123.248 95.8526 124.181 95.5244 125.06 95.1161C125.282 95.0134 125.512 94.9285 125.759 94.8281C125.638 94.1093 125.089 94.0962 124.467 94.1435C122.179 94.3179 119.889 94.4689 117.6 94.6378C115.699 94.778 113.802 94.7768 111.901 94.603C111.512 94.5678 111.102 94.8256 110.699 94.8358C109.293 94.8734 107.885 94.8778 106.478 94.8642C105.136 94.8512 103.812 95.2926 102.443 94.9076C101.909 94.7573 101.259 95.0613 100.691 94.9708C100.203 94.8929 99.7973 95.0006 99.3414 95.0483C98.2859 95.1597 97.1796 95.1324 96.1408 94.9239C95.6157 94.8191 94.9176 95.5183 94.55 94.6437C93.9459 94.7654 93.3462 94.9425 92.7364 94.9982C90.7702 95.1784 88.8086 95.0636 86.8437 94.8887C85.6412 94.7808 84.4235 94.8556 83.2123 94.8491C80.7909 94.8351 78.3672 94.8688 75.9467 94.7953C72.7368 94.6992 69.5281 94.5401 66.3212 94.3701C63.5691 94.2231 60.8069 94.1294 58.071 93.8216C54.048 93.368 49.9989 93.31 45.9734 92.8141C42.8391 92.4282 39.683 92.0664 36.5395 91.8311C33.2468 91.5849 30.0016 91.0273 26.721 90.7419C24.5901 90.5558 22.4932 90.0056 20.3684 89.7178C18.5411 89.4692 16.7464 89.0397 14.9168 88.8179C14.6909 88.791 14.4722 88.7006 14.2416 88.6372C14.4582 87.5538 15.2513 87.6591 15.9297 87.6467C16.5637 87.6359 17.1988 87.7273 18.2914 87.8066C16.9127 86.9261 15.7744 87.0373 14.7189 86.9184C14.1341 86.8526 13.7354 86.7618 13.5057 86.0783C13.7799 85.9637 14.0506 85.8498 14.3486 85.7243C14.0041 85.2393 13.625 84.7062 13.2004 84.1077C13.6317 83.9001 14.0192 83.8332 14.0923 83.6454C14.1743 83.4319 13.9744 83.1095 13.8903 82.8111C14.348 82.594 15.0389 82.9152 15.3714 82.2542C15.4198 82.1577 15.8178 82.115 15.8277 82.1399C16.2056 83.0655 16.9022 82.108 17.4597 82.4024C17.7913 82.5773 18.4398 83.0222 18.9844 82.4306C19.0548 82.355 19.6477 82.9036 19.9256 82.8409C20.2704 82.7617 20.5348 82.3807 20.8791 82.8417C20.9521 82.9403 21.146 83.0846 21.1706 83.0639C22.2746 82.1885 23.1208 83.3416 24.0958 83.4155C24.6035 83.4546 25.1516 83.8336 25.6304 83.3223C26.2327 83.9879 26.9602 82.6303 27.4755 83.3896C27.972 84.1211 28.848 82.8511 29.2739 83.8137C29.3032 83.8791 30.0317 83.615 30.4421 83.5393C30.9339 83.4491 31.2942 84.5304 31.8819 83.7106C32.3877 83.9171 32.9607 84.0339 33.3847 84.3511C34.0384 84.8397 34.5235 84.799 35.0393 84.1977C35.1423 84.0778 35.398 83.9844 35.5435 84.0237C35.951 84.1364 36.3317 84.4332 36.7325 84.4512C37.139 84.4704 37.8361 84.0377 37.9227 84.1559C38.5918 85.0704 39.3335 83.9773 40.0537 84.344C40.1685 84.6202 40.3074 84.9546 40.506 85.4315C41.9351 84.5678 43.5481 85.3345 45.0179 84.7476C45.4277 84.5835 45.8801 84.6301 46.2547 85.0428C47.0193 85.8826 47.8581 86.0552 48.7658 85.1947C48.9248 85.0433 49.3381 84.906 49.445 84.993C50.4995 85.8531 51.6745 84.6954 52.7913 85.2523C53.3476 85.5294 54.2012 84.9163 54.7722 85.6465C54.8099 85.6945 55.0792 85.5469 55.246 85.511C55.5527 85.4437 55.9207 85.4764 56.1615 85.3155C56.8433 84.8619 57.0317 86.0521 57.7119 85.705C58.1423 85.4852 58.6867 85.4301 59.1833 85.4137C59.738 85.3953 60.3023 85.5772 60.8519 85.5371C61.463 85.4931 61.9182 85.7436 62.4516 85.9435C62.8851 86.1056 63.7168 85.4516 64.0219 85.6636C64.8394 86.2331 65.5433 85.7023 66.286 85.7303C67.1045 85.7601 67.9228 85.8088 68.7421 85.8298C69.3023 85.8448 69.8979 85.5963 70.3759 86.1464C70.4361 86.2158 70.7745 85.9897 70.9819 85.9939C71.784 86.0095 72.6243 85.4613 73.3967 86.1665C73.4963 86.2576 73.8025 86.1039 74.0147 86.0959C75.8676 86.0266 77.7199 85.9645 79.5721 85.9004C80.1972 86.728 80.9269 86.0056 81.6018 86.0236C82.943 86.0607 84.2854 86.0272 85.6271 86.0341C85.7406 86.0342 85.8596 86.104 85.9659 86.1599C87.5696 87.0034 87.5691 87.004 89.2475 86.9046C89.6602 87.4221 89.9867 88.1369 90.5317 88.4061C90.9065 88.5918 91.5857 88.1588 92.0891 87.7205C91.5078 87.6309 90.9249 87.5408 89.8611 87.3766C90.6574 86.9946 91.2455 87.2009 91.4287 86.972C91.8219 86.4802 92.092 86.9341 92.4138 86.9276C94.7377 86.88 97.0597 86.7687 99.3827 86.7432C99.9868 86.737 100.672 85.9952 101.216 86.8727C102.18 86.6154 103.333 87.1815 104.134 86.2059C104.172 86.1603 104.233 86.1007 104.282 86.1018C105.61 86.1368 106.936 86.1786 108.264 86.2192C108.704 86.834 109.328 86.5676 109.882 86.5282C112.201 86.3634 114.524 86.2555 116.818 85.7932C117.52 85.6507 118.368 85.3357 119.001 86.127C119.075 86.2189 119.394 86.185 119.56 86.1164C120.006 85.9298 120.421 85.5484 120.868 85.5166C121.314 85.4848 121.817 85.9719 122.238 85.899C123.328 85.712 124.409 85.4085 125.449 85.0262C126.418 84.6699 127.91 84.6615 128.912 85.2056L129.702 84.2942C131.093 84.1462 132.522 84.2339 133.936 84.0152C135.356 83.7956 136.816 83.6519 138.246 83.7257C139.321 83.7818 140.316 83.9233 141.229 83.2047C141.357 83.1035 141.612 83.1703 141.808 83.1497C144.444 82.8702 147.083 82.6049 149.717 82.3036C151.43 82.1077 153.116 81.7152 154.847 81.6499C155.06 81.6414 155.266 81.4237 155.463 81.3089L156.397 82.1187C156.674 82.0054 156.998 81.9445 157.227 81.7641C157.898 81.2387 158.529 81.0531 159.433 81.2983C160.544 81.5994 160.578 81.4655 160.889 82.5493C160.939 82.7237 161.02 82.8898 161.087 83.0594C161.319 83.6435 162.308 83.0423 162.385 83.9053C162.444 84.5599 162.909 84.621 163.481 84.7148C164.05 84.8084 164.101 85.1137 164.224 86.3648C163.923 86.6348 163.681 86.8505 163.44 87.0661C163.631 87.188 163.809 87.3723 164.016 87.4143C164.264 87.4648 164.537 87.3937 164.806 87.3746C164.817 87.4796 164.875 87.6116 164.832 87.6873C164.464 88.3334 164.203 89.1258 163.659 89.562C163.176 89.9498 162.344 89.8697 161.715 90.1186C159.501 90.9931 157.293 91.8789 155.002 92.539C153.76 92.8968 152.609 93.5306 151.287 93.6634C150.902 93.7026 150.562 94.1968 150.176 94.2345C149.797 94.2727 149.382 93.8602 149.068 94.438C149 94.5647 148.756 94.6173 148.582 94.6619C147.034 95.0589 145.542 95.6586 144.007 96.0541C142.805 96.3636 141.649 96.7716 140.484 97.1644C138.973 97.6733 137.355 97.8477 135.932 98.6312C135.881 98.6599 135.803 98.6506 135.738 98.6465C135.199 98.6117 134.662 98.5732 134.123 98.5358C133.994 99.2702 133.405 99.2973 132.837 99.4256C132.305 99.5458 131.81 99.8633 131.277 99.9412C129.67 100.175 128.194 100.844 126.642 101.251C126.053 101.405 125.475 101.597 124.706 101.827Z" fill="#E09E50"/>
</svg>
