<svg xmlns="http://www.w3.org/2000/svg" xmlns:xlink="http://www.w3.org/1999/xlink" xmlns:serif="http://www.serif.com/" viewBox="0 0 32 40" version="1.1" xml:space="preserve" style="" x="0px" y="0px" fill-rule="evenodd" clip-rule="evenodd" stroke-linejoin="round" stroke-miterlimit="2"><g transform="matrix(1,0,0,1,-144,-48)"><path d="M174,60C174,59.204 173.684,58.441 173.121,57.879C172.559,57.316 171.796,57 171,57C171,57 161.07,57 161.07,57C160.736,57 160.424,56.833 160.238,56.555L157.426,52.336C156.869,51.501 155.933,51 154.93,51C153.471,51 150.831,51 149,51C148.204,51 147.441,51.316 146.879,51.879C146.316,52.441 146,53.204 146,54C146,58.52 146,69.48 146,74C146,74.796 146.316,75.559 146.879,76.121C147.441,76.684 148.204,77 149,77L171,77C171.796,77 172.559,76.684 173.121,76.121C173.684,75.559 174,74.796 174,74L174,60ZM159.606,52L161.606,55L171,55C171.695,55 172.375,55.145 173,55.417L173,55C173,54.204 172.684,53.441 172.121,52.879C171.559,52.316 170.796,52 170,52L159.606,52Z"/></g><text x="0" y="47" fill="#000000" font-size="5px" font-weight="bold" font-family="'Helvetica Neue', Helvetica, Arial-Unicode, Arial, Sans-serif">Created by Yudhi Restu Pebriyanto</text><text x="0" y="52" fill="#000000" font-size="5px" font-weight="bold" font-family="'Helvetica Neue', Helvetica, Arial-Unicode, Arial, Sans-serif">from the Noun Project</text></svg>