<svg xmlns="http://www.w3.org/2000/svg" xmlns:xlink="http://www.w3.org/1999/xlink" width="600" zoomAndPan="magnify" viewBox="0 0 450 112.499997" height="150" preserveAspectRatio="xMidYMid meet" version="1.0"><defs><clipPath id="ab0fd60d53"><path d="M 24.5625 5 L 425.53125 5 L 425.53125 83 L 24.5625 83 Z M 24.5625 5 " clip-rule="nonzero"/></clipPath><clipPath id="3824cb19b4"><path d="M 173 106 L 179 106 L 179 110.398438 L 173 110.398438 Z M 173 106 " clip-rule="nonzero"/></clipPath><clipPath id="2d22d35db5"><path d="M 45.570312 31.226562 L 67.035156 31.226562 L 67.035156 52.691406 L 45.570312 52.691406 Z M 45.570312 31.226562 " clip-rule="nonzero"/></clipPath><clipPath id="965de509ed"><path d="M 56.304688 31.226562 C 50.375 31.226562 45.570312 36.03125 45.570312 41.957031 C 45.570312 47.882812 50.375 52.691406 56.304688 52.691406 C 62.230469 52.691406 67.035156 47.882812 67.035156 41.957031 C 67.035156 36.03125 62.230469 31.226562 56.304688 31.226562 Z M 56.304688 31.226562 " clip-rule="nonzero"/></clipPath></defs><g clip-path="url(#ab0fd60d53)"><path fill="#e09e50" d="M 151.699219 64.859375 C 151.484375 65.792969 151.269531 66.730469 151.023438 67.792969 C 153.40625 69.15625 153.515625 68.152344 155.152344 66.644531 C 156.507812 66.828125 157.421875 65.820312 158.574219 65.515625 C 161.222656 65.199219 159.648438 67.882812 158.488281 68.90625 C 158.769531 69.445312 159.042969 69.964844 159.332031 70.507812 C 160.769531 70.070312 162.152344 69.648438 163.738281 69.164062 C 162.65625 64.269531 166.667969 69.898438 167.871094 66.695312 C 167.921875 66.363281 167.457031 65.625 167.261719 65.640625 C 165.214844 65.796875 165.261719 63.769531 164.082031 62.710938 C 163.429688 62.925781 162.664062 63.175781 161.660156 63.503906 C 160.921875 62.121094 158.753906 61.722656 159.167969 59.296875 C 157.816406 59.792969 156.460938 58.796875 155.5625 60.246094 C 154.761719 59.320312 154.140625 58.601562 153.355469 57.691406 C 153.613281 56.855469 153.929688 55.847656 154.296875 54.675781 C 153.0625 54.070312 151.933594 54.355469 150.457031 54.640625 C 153.769531 58.753906 147.074219 59.238281 148.597656 54.601562 C 148.035156 54.511719 147.464844 54.421875 146.945312 54.34375 C 145.609375 56.902344 147.804688 57.933594 144.027344 58.414062 C 141.207031 59.785156 138.769531 58.855469 136.214844 57.449219 C 134.09375 57.527344 134.96875 61.050781 136.84375 61.277344 C 137.730469 61.453125 138.578125 61.832031 139.519531 62.144531 C 139.019531 63.507812 138.089844 62.367188 137.421875 62.613281 C 136.792969 62.84375 136.003906 62.664062 135.269531 62.664062 C 134.828125 63.292969 134.421875 63.875 134.019531 64.453125 C 134.671875 66.980469 134.671875 66.980469 133.050781 69.4375 C 133.40625 70.121094 133.78125 70.847656 134.097656 71.453125 C 133.667969 72.535156 130.796875 73.117188 127.964844 72.785156 C 127.273438 74.390625 124.902344 74.390625 124.179688 76.453125 C 125.171875 77.460938 126.164062 78.46875 127.011719 79.328125 C 127.164062 84.421875 119.25 83.074219 121.628906 77.511719 C 118 75.015625 122.859375 73.605469 122.988281 70.816406 C 121.589844 70.222656 119.773438 69.695312 120.894531 68.121094 C 121.390625 67.296875 121.746094 66.511719 121.265625 65.757812 C 120.589844 64.703125 121.503906 63.90625 121.484375 62.964844 C 121.472656 62.324219 121.992188 61.675781 122.332031 60.902344 C 125.140625 62.324219 121.9375 63.609375 123.636719 65.171875 C 126.257812 67.332031 122.273438 67.613281 123.183594 69.914062 C 125.152344 69.570312 126.742188 70.140625 128.34375 71.488281 C 129.3125 70.496094 130.1875 69.71875 131.433594 68.90625 C 130.878906 68.421875 130.433594 68.03125 129.953125 67.617188 C 130.246094 66.234375 130.542969 64.832031 130.894531 63.160156 C 129.964844 62.847656 129.015625 62.703125 128.21875 62.125 C 128.550781 61.527344 129.4375 62.386719 130.085938 62.253906 C 130.660156 60.734375 131.242188 59.195312 131.914062 57.417969 C 131.765625 57.25 131.175781 56.875 131.203125 56.554688 C 131.414062 54.097656 128.804688 54.660156 127.933594 53.402344 C 125.394531 53.269531 122.851562 52.816406 120.117188 53.324219 C 120.921875 56.710938 119.3125 56.390625 117.140625 57.140625 C 116.511719 58.367188 115.378906 57.40625 114.835938 58.210938 C 114.835938 58.210938 114.875 58.234375 114.875 58.234375 C 115.808594 58.058594 115.328125 56.535156 115.808594 56.148438 C 117.648438 56.09375 117.6875 54.300781 118.660156 53.429688 C 88.476562 51.460938 57.101562 54.757812 26.5625 55.414062 C 25.867188 54.253906 25.246094 53.222656 24.5625 52.085938 C 26.019531 49 29.003906 47.558594 31.441406 45.265625 C 31.171875 43.941406 30.667969 41.742188 32.5 41.339844 C 36.195312 39.71875 39.152344 36.894531 42.835938 35.167969 C 45.535156 33.941406 47.804688 32.023438 50.039062 30.199219 C 53.03125 30.109375 54.050781 27.308594 56.304688 26.011719 C 58.429688 25.8125 60.65625 30.378906 61.578125 28.671875 L 61.539062 28.632812 C 58.417969 31.007812 77.925781 31.195312 79.722656 31.671875 C 80.378906 29.632812 81.796875 29.574219 81.953125 31.839844 C 95.523438 34.050781 109.078125 34.160156 122.785156 33.71875 C 125.464844 33.664062 128.132812 33.839844 130.761719 32.738281 C 133.171875 31.574219 136.902344 33.71875 138.664062 31 C 139.582031 29.46875 141.4375 31.023438 142.460938 31.796875 C 144.957031 30.445312 144.035156 28.617188 146.765625 31.375 C 147.730469 31.519531 147.726562 30.722656 148.089844 30.292969 C 149.074219 28.960938 149.933594 30.601562 150.847656 31.296875 C 152.074219 31.082031 153.558594 31.375 154.875 30.464844 C 155.136719 30.285156 155.652344 30.152344 155.875 30.285156 C 162.160156 31.964844 168.546875 30.300781 175.125 30.453125 C 174.617188 29.003906 174.429688 28.195312 174.339844 26.804688 C 173.082031 26.210938 172.21875 26.847656 171.269531 27.433594 C 167.355469 28.804688 167.996094 23.746094 172.398438 23.234375 C 174.238281 23.742188 174.148438 25.296875 174.242188 26.652344 C 175.570312 27.191406 177.398438 27.183594 178.121094 28.4375 C 178.980469 32.390625 188.84375 30.386719 191.480469 29.421875 C 197.390625 31.058594 203.871094 29.996094 210.039062 30.605469 C 211.246094 30.652344 212.488281 30.792969 213.515625 29.792969 C 213.738281 29.578125 214.402344 29.726562 214.828125 29.832031 C 219.074219 31.179688 221.011719 26.847656 220.5625 23.320312 C 223.164062 22.445312 225.652344 23.152344 228.269531 23.398438 C 228.578125 22.707031 228.90625 21.972656 229.304688 21.082031 C 230.667969 21.425781 231.929688 21.746094 233.5625 22.160156 C 233.855469 21.359375 234.707031 20.40625 235.285156 21.574219 C 235.507812 22.835938 234.5625 24.203125 235.8125 25.488281 C 236.398438 25.742188 236.597656 25.082031 237.03125 24.679688 C 239.257812 22.382812 240.261719 25.929688 242.40625 25.785156 C 244.867188 26.894531 243.773438 28.355469 246.96875 26.335938 C 248.160156 27.246094 249.203125 27.910156 249.5625 29.351562 C 250.078125 30.671875 248.5 31.304688 247.675781 30.28125 C 246.785156 28.871094 246.78125 27.269531 244.773438 26.640625 C 244.773438 28.65625 244.773438 29.917969 244.773438 31.863281 C 249.234375 32.574219 253.601562 31.933594 258.132812 32.121094 C 258.351562 31.523438 258.585938 30.875 258.824219 30.222656 C 257.933594 29.605469 257.277344 30.527344 256.449219 30.417969 C 255.53125 30.253906 254.660156 29.816406 253.683594 29.460938 C 253.648438 27.902344 254.691406 26.972656 255.464844 25.757812 C 256.667969 26.472656 257.804688 27.148438 259.132812 27.9375 C 259.71875 27.019531 260.070312 26.304688 260.417969 25.375 C 262.445312 24.503906 266.171875 25.273438 266.863281 22.933594 C 265.1875 20.703125 261.804688 23.867188 260.644531 18.546875 C 258.667969 19.433594 258.285156 22.878906 257.984375 24.960938 C 257.226562 24.917969 256.328125 24.863281 255.171875 24.796875 C 255.347656 23.484375 255.484375 22.457031 255.621094 21.4375 C 254.289062 19.746094 252.996094 23.1875 251.1875 21.160156 C 250.242188 20.683594 248.75 19.253906 247.925781 20.542969 L 247.980469 20.585938 C 248.945312 19.851562 248.378906 19.003906 248.191406 17.980469 C 249.316406 17.199219 250.375 16.464844 251.441406 15.726562 C 252.492188 16.058594 251.820312 16.996094 252.195312 17.828125 C 253.015625 18.390625 254.007812 19.078125 255.136719 19.859375 C 256.851562 18.023438 258.132812 17.542969 260.71875 18.5625 C 263.625 13.929688 264.707031 17.203125 268.566406 16.96875 C 267.078125 20.222656 267.867188 21.164062 269.417969 24.09375 C 276.5 21.304688 271.40625 27.96875 275.578125 27.59375 C 279.351562 24.851562 277.015625 32.863281 282.097656 30.410156 C 284.144531 29.671875 284.210938 29.585938 284.90625 26.652344 C 282.550781 24.054688 281.566406 24.070312 280.015625 27.484375 C 278.863281 25.433594 278.175781 24.335938 276.0625 23.667969 C 276.703125 21.066406 276.703125 21.066406 278.285156 19.878906 C 277.796875 18.210938 277.308594 16.546875 276.8125 14.871094 C 276.066406 14.90625 275.449219 15.070312 274.90625 14.9375 C 273.234375 14.253906 272.84375 17.292969 271.171875 15.886719 C 270.605469 15.484375 270.628906 14.410156 271.425781 14.074219 C 272.929688 13.4375 272.605469 12.136719 273.023438 10.863281 C 271.523438 10.480469 269.835938 10.941406 268.464844 9.492188 C 268.761719 8.402344 269.101562 7.152344 269.4375 5.917969 C 272.933594 4.046875 273.363281 8.480469 273.054688 10.914062 C 274.03125 12.417969 276.183594 12.570312 277.105469 14.21875 C 279.164062 14.441406 279.316406 16.460938 279.753906 18.035156 C 279.34375 18.574219 278.933594 19.117188 278.472656 19.722656 C 279.421875 20.503906 280.054688 21.585938 281.613281 20.921875 C 283.292969 20.003906 283.894531 22.660156 285.332031 22.460938 C 286.074219 21.9375 286.027344 21.074219 285.839844 20.320312 C 286.375 19.5625 287.566406 20.226562 286.980469 21.109375 C 285.273438 22.335938 287.398438 23.667969 287.152344 25.566406 C 291.367188 25.605469 295.609375 25.625 297.761719 30.125 C 307.160156 30.125 316.621094 30.125 326.128906 30.125 C 326.835938 28.644531 324.613281 29.683594 324.824219 28.058594 C 325.085938 26.921875 325.484375 25.1875 325.914062 23.3125 C 330.871094 21.472656 331.425781 26.683594 330.46875 30.386719 C 333.132812 30.460938 335.710938 30.425781 338.265625 30.648438 C 339.804688 30.78125 340.191406 29.203125 341.539062 28.9375 C 343.183594 30.511719 345.183594 31.019531 347.449219 30.597656 C 351.695312 29.628906 369.328125 31.6875 370.046875 27.792969 C 372.46875 29.496094 372.46875 29.457031 375.054688 29.371094 C 385.640625 29.03125 396.222656 28.710938 406.808594 28.402344 C 411.121094 29.179688 424.632812 25.464844 425.136719 31.039062 C 425.402344 36.179688 418.003906 36.328125 414.867188 39.03125 C 410.363281 41.121094 406.304688 44.113281 400.988281 44.1875 C 388.308594 51.109375 374.789062 46.835938 360.929688 48.398438 C 359.964844 48.46875 358.785156 49.34375 357.867188 49.171875 C 353.492188 47.425781 348.933594 47.898438 344.328125 48.410156 C 344.21875 50.367188 342.878906 50.488281 342.277344 48.714844 C 336.339844 48.65625 330.574219 49.367188 327.796875 50.507812 C 327.988281 51.140625 328.179688 51.773438 328.554688 53.019531 C 327.488281 52.308594 326.9375 51.941406 326.230469 51.472656 C 323.117188 54.824219 317.988281 52.625 313.96875 53.175781 C 303.269531 53.472656 292.464844 52.667969 281.539062 53.390625 C 280.90625 54.609375 281.070312 56.933594 279.671875 56.28125 C 278.558594 55.820312 277.84375 56.964844 276.703125 56.339844 C 277.054688 55.421875 278.53125 55.488281 278.335938 54.546875 C 277.496094 53.207031 275.65625 53.882812 274.261719 53.746094 C 273.558594 55.011719 273.121094 56.386719 271.710938 57.21875 C 270.691406 57.511719 270.902344 61.234375 269.292969 59.839844 C 270.613281 57.960938 271.164062 56.421875 271.023438 53.96875 C 262.804688 53.855469 254.699219 54.234375 246.367188 54.902344 C 245.269531 57.277344 243.953125 59.535156 240.792969 58.835938 C 240.269531 59.917969 239.828125 60.835938 239.382812 61.753906 C 237.398438 60.8125 238.773438 59.566406 238.804688 58.558594 C 237.84375 57.292969 235.839844 57.109375 235.710938 54.925781 C 234.578125 55.511719 233.527344 55.886719 232.589844 56.441406 C 232.34375 58.289062 231.175781 59.992188 232.039062 61.828125 C 231.570312 62.304688 231.054688 62.828125 230.601562 63.285156 C 226.738281 61.957031 230.175781 60.898438 229.292969 59.382812 C 228.199219 58.863281 228.269531 56.945312 226.714844 57.25 C 225.601562 57.464844 224.707031 57.503906 223.945312 56.480469 C 223.007812 55.28125 221.316406 57.066406 222.402344 58.117188 C 223.816406 59.9375 223.800781 59.949219 223.453125 62.347656 C 222.78125 62.589844 222.109375 62.832031 221.320312 63.117188 C 221.515625 67.597656 219.207031 68.707031 218.824219 63.523438 C 217.933594 63.644531 217.261719 63.734375 216.394531 63.855469 C 215.246094 61.746094 218.671875 59.824219 217.152344 57.972656 C 214.742188 57.523438 216.652344 55.628906 215.363281 54.601562 C 213.421875 54.351562 211.273438 54.167969 208.96875 54.363281 C 208.960938 56.292969 210.738281 57.765625 209.90625 59.84375 C 208.328125 60.296875 207.324219 59.117188 206.140625 58.289062 C 204.601562 58.363281 203.023438 58.4375 201.269531 58.523438 C 200.460938 56.9375 198.917969 55.789062 199.140625 53.570312 C 191.023438 51.992188 191.277344 53.863281 185.605469 58.808594 C 187.960938 62.074219 190.21875 58.253906 192.503906 60.734375 C 193.335938 62.152344 195.824219 61.890625 195.617188 63.644531 C 194.9375 64.019531 193.867188 63.882812 193.757812 65.191406 C 196.085938 69.925781 197.386719 63.601562 198.121094 61.328125 C 199.132812 61.269531 199.972656 61.222656 200.730469 61.179688 C 200.996094 61.394531 201.285156 61.507812 201.335938 61.691406 C 201.839844 63.425781 203.355469 63.78125 204.773438 64.273438 C 206.679688 63.488281 207.730469 64.839844 208.792969 65.988281 C 209.859375 65.96875 211.410156 64.871094 211.457031 66.59375 C 211.464844 67.070312 211.253906 67.519531 211.839844 67.851562 C 212.601562 68.410156 211.8125 69.710938 210.980469 68.910156 C 210.136719 68.132812 209.277344 69.710938 208.300781 68.847656 C 207.449219 68.28125 206.109375 67.414062 205.042969 67.554688 C 202.867188 69.820312 199.222656 65.398438 198.160156 68.796875 C 198.011719 69.597656 197.148438 70.265625 196.507812 71.121094 C 196.0625 69.949219 195.6875 68.960938 195.28125 67.886719 C 193.863281 67.960938 192.425781 68.511719 191.449219 67.070312 C 189.832031 67.472656 188.203125 67.875 186.363281 68.332031 C 185.972656 67.722656 185.546875 67.054688 184.996094 66.191406 C 184.125 66.742188 183.253906 67.296875 182.378906 67.847656 C 179.789062 66.125 181.3125 62.683594 180.738281 60.039062 C 180.464844 56.734375 181.414062 56.582031 182.394531 53.816406 C 181.863281 52.8125 180.867188 53.019531 180.1875 53.335938 C 178.308594 54.207031 176.574219 53.839844 174.613281 53.546875 C 171.304688 53.03125 167.871094 53.878906 164.507812 53.894531 C 161.492188 53.859375 158.265625 53.425781 155.707031 55.378906 C 155.914062 56.398438 156.097656 57.300781 156.292969 58.25 C 158.300781 57.960938 158.777344 57.121094 159.351562 55.292969 C 161.367188 54.847656 162.757812 55.800781 163.96875 57.640625 C 166.636719 55.882812 170.617188 56.746094 172.320312 53.433594 C 176.007812 54.523438 172.957031 58.054688 175.148438 58.753906 C 176.226562 58.980469 176.066406 57.851562 176.507812 57.375 C 179.109375 55.8125 178.8125 59.257812 175.589844 59.429688 C 176.570312 61.351562 175.878906 63.121094 176.824219 64.789062 C 177.414062 67.125 179.582031 66.257812 179.0625 69.449219 C 180.164062 69.753906 181.277344 70.058594 182.421875 70.375 C 182.855469 70.894531 181.683594 71.8125 182.816406 72.203125 L 182.851562 72.160156 C 179.242188 69.292969 179.746094 74.4375 176.675781 74.476562 C 176.496094 74.515625 176.375 74.8125 176.226562 74.996094 C 176.214844 77.347656 179.648438 75.6875 179.914062 78.496094 C 178.699219 79.640625 177.410156 80.855469 176.023438 82.15625 C 172.0625 80.34375 175.066406 78.011719 176.636719 75.902344 C 176.347656 74.355469 174.96875 74.367188 174.574219 74.585938 C 173.359375 75.253906 172.234375 74.542969 171.117188 74.660156 C 169.046875 84.988281 162.433594 81.214844 155.035156 81.261719 C 154.363281 80.25 153.703125 79.261719 152.925781 78.097656 C 153.40625 77.46875 154.042969 76.671875 154.503906 76.195312 C 153.585938 75.046875 155.144531 74.03125 154.667969 72.925781 C 155.226562 72.902344 155.78125 72.875 156.375 72.851562 C 156.707031 73.351562 157.042969 73.863281 157.664062 74.804688 C 157.984375 73.414062 158.1875 72.535156 158.417969 71.542969 C 157.351562 71.300781 156.546875 71.121094 155.644531 70.917969 C 155.300781 71.714844 155.019531 72.359375 154.738281 73.003906 C 152.230469 73.351562 150.683594 75.15625 148.203125 73.632812 C 147.839844 74.058594 147.457031 74.507812 146.988281 75.058594 C 146.496094 74.46875 146.011719 73.890625 145.351562 73.097656 C 143.328125 76.410156 142.394531 75.015625 140.042969 73.085938 C 140.167969 72.300781 140.296875 71.476562 140.421875 70.691406 C 139.828125 69.359375 137.6875 69.882812 137.265625 70.4375 C 137.660156 70.59375 140.183594 70.195312 140.445312 69.363281 C 140.722656 67.75 142.234375 68.5 143.25 67.808594 C 142.179688 65.792969 141.734375 62.914062 145.003906 63.636719 C 145.515625 63.847656 145.859375 64.574219 146.582031 64.171875 L 146.539062 64.128906 C 146.460938 65.421875 147.777344 65.695312 148.25 67.027344 C 149.378906 65.460938 150.011719 64.988281 151.753906 64.914062 C 151.753906 64.914062 151.699219 64.859375 151.699219 64.859375 Z M 172.804688 62.703125 C 172.042969 64.582031 171.378906 66.214844 170.660156 67.976562 C 171.464844 68.355469 173.210938 69.457031 171.273438 69.554688 C 171.070312 68.910156 170.863281 68.265625 170.636719 67.558594 C 169.832031 67.472656 169.148438 67.402344 168.285156 67.3125 C 168.203125 68.589844 168.136719 69.644531 168.066406 70.738281 C 168.875 71.601562 169.671875 72.449219 170.464844 73.289062 C 171.140625 72.691406 171.671875 72.226562 172.132812 71.820312 C 173.097656 72.21875 173.933594 72.566406 174.773438 72.917969 C 175.363281 71.867188 175.832031 71.03125 176.363281 70.078125 C 176.023438 69.191406 175.152344 68.277344 175.921875 67.109375 C 176.082031 66.867188 176.066406 66.1875 175.953125 66.140625 C 174.484375 65.546875 175.289062 64.09375 174.960938 63.105469 C 174.199219 62.964844 173.609375 62.851562 172.804688 62.703125 Z M 234.714844 31.199219 C 235.820312 28.539062 236.117188 29.097656 238.746094 29.769531 C 238.851562 29.203125 238.9375 28.75 238.980469 28.535156 C 237.816406 27.644531 236.824219 26.886719 235.75 26.066406 C 231.527344 32.265625 227.078125 22.675781 227.191406 30.738281 C 228.652344 31.5625 229.621094 30.53125 230.667969 30.132812 C 232.527344 31.265625 232.527344 31.265625 234.714844 31.199219 Z M 185.71875 59.453125 C 185.382812 57.898438 185.148438 56.800781 184.835938 55.359375 C 180.914062 58.335938 179.324219 61.019531 185.71875 59.453125 Z M 221.625 30.195312 C 222.75 30.535156 224.25 31.625 225.21875 29.5625 C 223.863281 29.800781 222.746094 30 221.625 30.195312 Z M 273.976562 26.957031 C 272.355469 26.695312 270.878906 26.664062 269.492188 27.582031 C 269.695312 31.003906 273.066406 28.746094 273.976562 26.957031 Z M 149.074219 70.988281 C 149.425781 69.910156 151.1875 68.132812 149.691406 67.351562 C 147.039062 66.449219 145.796875 69.453125 149.074219 70.988281 Z M 217.988281 56.207031 C 219.257812 56.160156 223.339844 57.097656 221.929688 55.039062 C 220.328125 55.109375 218.097656 53.722656 217.988281 56.207031 Z M 263.757812 29.171875 C 266.847656 29.15625 264.886719 26.296875 263.460938 26.746094 C 262.410156 27.308594 263.332031 28.617188 263.757812 29.171875 Z M 130.875 53.492188 C 129.621094 54.816406 130.921875 55.628906 131.851562 54.273438 C 131.601562 54.070312 131.347656 53.871094 130.875 53.492188 Z M 143.152344 70.128906 C 143.050781 70.230469 142.96875 70.3125 142.886719 70.394531 C 143.179688 70.539062 143.410156 70.78125 143.628906 70.394531 C 143.464844 70.304688 143.304688 70.214844 143.152344 70.128906 Z M 133.386719 55.714844 C 133.484375 55.816406 133.566406 55.898438 133.648438 55.980469 C 133.792969 55.6875 134.035156 55.457031 133.648438 55.238281 C 133.558594 55.402344 133.472656 55.5625 133.386719 55.714844 Z M 133.386719 55.714844 " fill-opacity="1" fill-rule="nonzero"/></g><path fill="#e09e50" d="M 116.066406 72.167969 C 115.492188 71.355469 114.859375 70.457031 114.164062 69.476562 C 113.273438 70.0625 112.605469 70.5 111.816406 71.019531 C 110.617188 70.0625 109.347656 69.742188 107.804688 69.863281 C 107.519531 69.300781 107.25 68.769531 106.863281 68.007812 C 102.167969 70.054688 103.179688 63.597656 106.085938 66.195312 C 106.445312 67.035156 106.578125 67.378906 107.53125 67.933594 C 108.304688 66.75 109.015625 65.664062 109.734375 64.558594 C 110.324219 64.617188 110.910156 64.675781 111.628906 64.746094 C 112.046875 64.238281 112.5 63.683594 112.90625 63.191406 C 114.550781 63.75 114.828125 65.886719 116.851562 66.335938 C 119.289062 67.792969 119.503906 70.398438 116.066406 72.167969 Z M 116.066406 72.167969 " fill-opacity="1" fill-rule="nonzero"/><path fill="#e09e50" d="M 247.925781 20.542969 C 246.707031 20.671875 247.832031 22.277344 246.621094 22.476562 C 245.433594 22.605469 244.34375 21.359375 242.933594 22.066406 C 241.570312 22.496094 241.339844 20.332031 241.289062 19.417969 C 239.253906 17.675781 236.484375 18.601562 234.472656 16.929688 C 234.984375 15.457031 235.398438 13.777344 235.632812 12.21875 C 237.917969 10.769531 239.28125 13.496094 241.492188 13.21875 C 244.488281 13.664062 245.554688 16.125 244.164062 18.84375 C 244.832031 20.75 246.46875 20.527344 247.976562 20.582031 C 247.980469 20.585938 247.925781 20.542969 247.925781 20.542969 Z M 247.925781 20.542969 " fill-opacity="1" fill-rule="nonzero"/><path fill="#e09e50" d="M 93.113281 62.902344 C 94.574219 61.171875 96.921875 63.347656 94.558594 64.199219 C 91.78125 63.355469 90.632812 68.304688 87.628906 65.519531 C 83.835938 60.714844 90.070312 57.308594 93.113281 62.902344 Z M 93.113281 62.902344 " fill-opacity="1" fill-rule="nonzero"/><path fill="#e09e50" d="M 190.441406 74.839844 C 190.773438 74.078125 190.988281 73.574219 191.308594 72.839844 C 192.378906 73.535156 193.140625 74.011719 193.679688 74.984375 C 194.632812 75.375 195.265625 73.980469 196.128906 74.972656 C 196.960938 75.984375 195.734375 76.421875 195.359375 77.304688 C 199.816406 81.964844 192.683594 83.027344 191.074219 80.246094 C 190.355469 76.300781 194.597656 78.027344 194.15625 75.988281 C 193.5625 74.503906 191.902344 75.222656 190.441406 74.839844 Z M 190.441406 74.839844 " fill-opacity="1" fill-rule="nonzero"/><path fill="#e09e50" d="M 182.816406 72.203125 C 183.691406 73.101562 185.121094 72.972656 185.949219 74.175781 C 186.65625 75.199219 187.222656 76.542969 188.648438 76.996094 C 189.203125 78.417969 187.128906 79.214844 186.207031 79.9375 C 184.339844 79.742188 185.589844 77.761719 184.40625 77.019531 C 183.859375 77.019531 183.171875 77.019531 182.46875 77.019531 C 182.40625 76.851562 182.242188 76.628906 182.273438 76.433594 C 182.898438 75.246094 182.878906 73.5625 182.851562 72.160156 C 182.851562 72.160156 182.816406 72.203125 182.816406 72.203125 Z M 182.816406 72.203125 " fill-opacity="1" fill-rule="nonzero"/><path fill="#e09e50" d="M 209.921875 24.933594 C 210.238281 26.039062 208.949219 26.824219 209.722656 27.808594 C 209 29.503906 207.886719 28.414062 207.777344 26.898438 C 206.792969 26.988281 205.996094 27.0625 205.171875 27.136719 C 204.558594 25.917969 205.296875 24.941406 203.898438 24.25 C 200.992188 22.695312 203.609375 21.25 205.707031 20.652344 C 207.070312 22.453125 205.566406 24.105469 207.078125 25.679688 C 207.347656 27.734375 209.542969 27.316406 209.355469 25.308594 C 209.347656 25.253906 209.546875 25.175781 209.921875 24.933594 Z M 209.921875 24.933594 " fill-opacity="1" fill-rule="nonzero"/><path fill="#e09e50" d="M 69.050781 55.246094 C 70.730469 56.792969 71.605469 57.472656 73.449219 58.582031 C 72.921875 59.941406 71.875 60.703125 70.761719 61.691406 C 69.683594 60.546875 68.414062 59.988281 66.597656 60.601562 C 67.039062 58.402344 67.910156 57.023438 69.050781 55.246094 Z M 69.050781 55.246094 " fill-opacity="1" fill-rule="nonzero"/><path fill="#e09e50" d="M 87.226562 71.6875 C 86.71875 67.511719 92.375 67.636719 92.621094 70.824219 C 92.847656 73.753906 87.21875 75.476562 87.226562 71.6875 Z M 87.226562 71.6875 " fill-opacity="1" fill-rule="nonzero"/><path fill="#e09e50" d="M 300.527344 21.082031 C 301.296875 21.804688 301.660156 22.78125 303.03125 22.894531 C 303.578125 22.941406 304.03125 24.074219 304.558594 24.746094 C 309.648438 22.003906 309.140625 29.265625 305.265625 27.367188 C 304.566406 26.601562 304.285156 25.484375 302.785156 25.675781 C 300.632812 25.183594 302.90625 22.296875 300.527344 21.082031 Z M 300.527344 21.082031 " fill-opacity="1" fill-rule="nonzero"/><path fill="#e09e50" d="M 233.117188 71.261719 C 232.953125 74.710938 228.886719 75.449219 227.53125 72.152344 C 226.222656 68.507812 232.40625 68.273438 233.117188 71.261719 Z M 233.117188 71.261719 " fill-opacity="1" fill-rule="nonzero"/><path fill="#e09e50" d="M 317.828125 61.976562 C 320.195312 64.761719 319.710938 68.320312 315.375 66.929688 C 312.4375 65.109375 315.222656 62.167969 317.828125 61.976562 Z M 317.828125 61.976562 " fill-opacity="1" fill-rule="nonzero"/><path fill="#e09e50" d="M 214.066406 23.398438 C 214.253906 20.992188 216.296875 19.910156 217.679688 21.984375 C 218.027344 23.535156 220.394531 24.964844 218.515625 26.371094 C 217.914062 26.820312 216.71875 26.84375 216.5625 26.246094 C 216.214844 24.898438 214.875 24.554688 214.066406 23.398438 Z M 214.066406 23.398438 " fill-opacity="1" fill-rule="nonzero"/><path fill="#e09e50" d="M 91.492188 81.058594 C 90.210938 79.910156 89.253906 79.050781 88.148438 78.058594 C 89.511719 75.660156 91.183594 76.96875 92.421875 78.707031 C 93.878906 75.632812 96.292969 77.410156 94.929688 78.476562 C 93.5625 78.757812 92.53125 79.441406 91.492188 81.058594 Z M 91.492188 81.058594 " fill-opacity="1" fill-rule="nonzero"/><path fill="#e09e50" d="M 282.085938 4.652344 C 289.851562 1.382812 288.21875 8.503906 283.667969 7.035156 C 282.753906 6.621094 282.042969 5.9375 282.085938 4.652344 Z M 282.085938 4.652344 " fill-opacity="1" fill-rule="nonzero"/><path fill="#e09e50" d="M 218.6875 70.210938 C 217.683594 70.445312 216.90625 70.628906 216.066406 70.828125 C 215.378906 67.613281 222.417969 67.613281 222.644531 70.121094 C 222.441406 72.972656 219.734375 72.332031 218.6875 70.210938 Z M 218.6875 70.210938 " fill-opacity="1" fill-rule="nonzero"/><path fill="#e09e50" d="M 225.957031 65.644531 C 227.695312 64.109375 227.695312 64.109375 229.082031 65.488281 C 227.789062 66.738281 225.90625 65.914062 225.027344 67.769531 C 222.496094 69.890625 221.429688 63.621094 225.957031 65.644531 Z M 225.957031 65.644531 " fill-opacity="1" fill-rule="nonzero"/><path fill="#e09e50" d="M 279.128906 64.167969 C 282.660156 63.625 283.214844 67.578125 280.792969 68.125 C 278.175781 68.003906 278.636719 66.03125 279.128906 64.167969 Z M 279.128906 64.167969 " fill-opacity="1" fill-rule="nonzero"/><g clip-path="url(#3824cb19b4)"><path fill="#e09e50" d="M 178.609375 108.703125 C 177.894531 109.53125 177.425781 110.070312 176.925781 110.652344 C 175.753906 110.292969 174.648438 109.953125 173.324219 109.546875 C 173.890625 108.425781 174.40625 107.398438 175.050781 106.125 C 176.265625 107.003906 177.285156 107.746094 178.609375 108.703125 Z M 178.609375 108.703125 " fill-opacity="1" fill-rule="nonzero"/></g><path fill="#e09e50" d="M 104.492188 25.46875 C 104.917969 27.800781 100.851562 29.035156 100.601562 26.390625 C 100.15625 23.628906 104.1875 23.1875 104.492188 25.46875 Z M 104.492188 25.46875 " fill-opacity="1" fill-rule="nonzero"/><path fill="#e09e50" d="M 179.703125 90.820312 C 179.40625 91.058594 178.117188 91.039062 178.109375 90.171875 C 178.351562 88.554688 180.804688 89.050781 182.03125 88.65625 C 182.9375 88.75 182.792969 90.25 182.25 90.546875 C 181.605469 90.777344 180.859375 90.722656 179.703125 90.820312 Z M 179.703125 90.820312 " fill-opacity="1" fill-rule="nonzero"/><path fill="#e09e50" d="M 83.570312 21.050781 C 86.246094 20.960938 85.597656 24.613281 83.320312 24.484375 C 81.238281 24.367188 81.828125 20.960938 83.570312 21.050781 Z M 83.570312 21.050781 " fill-opacity="1" fill-rule="nonzero"/><path fill="#e09e50" d="M 236.789062 65.710938 C 235.820312 66.820312 233.300781 67.316406 233.046875 65.488281 C 232.898438 62.957031 236.550781 63.210938 236.789062 65.710938 Z M 236.789062 65.710938 " fill-opacity="1" fill-rule="nonzero"/><path fill="#e09e50" d="M 252.875 9.433594 C 254.105469 11.421875 251.746094 13.042969 250.304688 11.523438 C 248.824219 9.652344 251.667969 9.507812 252.875 9.433594 Z M 252.875 9.433594 " fill-opacity="1" fill-rule="nonzero"/><path fill="#e09e50" d="M 296.625 15.457031 C 297.894531 15.457031 298.929688 15.457031 300.207031 15.457031 C 300.941406 18.570312 296.484375 18.269531 296.625 15.457031 Z M 296.625 15.457031 " fill-opacity="1" fill-rule="nonzero"/><path fill="#e09e50" d="M 152.03125 103.003906 C 154.007812 103.28125 156.042969 105.78125 153.863281 106.902344 C 153.054688 105.832031 152.390625 104.675781 152.03125 103.003906 Z M 152.03125 103.003906 " fill-opacity="1" fill-rule="nonzero"/><path fill="#e09e50" d="M 299.335938 7.273438 C 298.585938 9.144531 295.386719 9.902344 295.179688 7.964844 C 296.292969 6.78125 297.648438 7.398438 299.335938 7.273438 Z M 299.335938 7.273438 " fill-opacity="1" fill-rule="nonzero"/><path fill="#e09e50" d="M 254.550781 24.609375 C 253.941406 26.011719 252.671875 26.855469 252.46875 28.421875 C 252.339844 29.417969 251.488281 29.355469 250.347656 28.265625 C 251.421875 27.019531 252.566406 21.636719 254.550781 24.609375 Z M 254.550781 24.609375 " fill-opacity="1" fill-rule="nonzero"/><path fill="#e09e50" d="M 108.835938 57.65625 C 108.96875 59.898438 105.902344 59.246094 106.085938 57.484375 C 106.3125 54.792969 108.75 54.984375 108.835938 57.65625 Z M 108.835938 57.65625 " fill-opacity="1" fill-rule="nonzero"/><path fill="#e09e50" d="M 303.460938 7.730469 C 303.613281 7.273438 303.867188 6.898438 304.21875 6.570312 C 305.648438 6.617188 306.808594 7.722656 306.136719 8.332031 C 305.316406 9.441406 304.683594 8.183594 303.953125 8.125 C 303.777344 8.113281 303.625 7.871094 303.460938 7.730469 Z M 303.460938 7.730469 " fill-opacity="1" fill-rule="nonzero"/><path fill="#e09e50" d="M 366.011719 51.863281 C 367.132812 52.773438 367.164062 55.070312 365.132812 54.558594 C 363.460938 53.839844 363.875 51.679688 366.011719 51.863281 Z M 366.011719 51.863281 " fill-opacity="1" fill-rule="nonzero"/><path fill="#e09e50" d="M 338.058594 67.390625 C 336.953125 69.792969 335.6875 68.425781 334.261719 68.246094 C 334.695312 67.394531 335.050781 66.699219 335.515625 65.785156 C 336.429688 66.363281 337.191406 66.84375 338.058594 67.390625 Z M 338.058594 67.390625 " fill-opacity="1" fill-rule="nonzero"/><path fill="#e09e50" d="M 371.382812 51.996094 C 370.453125 52.90625 369.773438 53.277344 369.09375 52.132812 C 369.085938 51.1875 369.742188 50.707031 370.527344 50.238281 C 370.789062 50.777344 371.042969 51.300781 371.382812 51.996094 Z M 371.382812 51.996094 " fill-opacity="1" fill-rule="nonzero"/><path fill="#e09e50" d="M 309.300781 59.25 C 309.503906 59.988281 309.726562 60.441406 309.710938 60.886719 C 309.425781 61.554688 308.402344 61.394531 308.398438 60.632812 C 308.9375 59.796875 309.375 59.003906 308.644531 58.050781 C 308.597656 57.992188 308.695312 57.820312 308.722656 57.699219 C 309.996094 55.386719 311.570312 58.523438 309.300781 59.25 Z M 309.300781 59.25 " fill-opacity="1" fill-rule="nonzero"/><path fill="#e09e50" d="M 295.578125 57.730469 C 295.730469 57.042969 295.898438 56.300781 296.074219 55.53125 C 298.980469 55.570312 297.945312 59.566406 295.578125 57.730469 Z M 295.578125 57.730469 " fill-opacity="1" fill-rule="nonzero"/><path fill="#e09e50" d="M 262.273438 10.457031 C 261.503906 10.347656 260.730469 10.242188 259.832031 10.113281 C 260.890625 9.207031 261.46875 8.363281 262.867188 8.871094 C 262.667969 9.398438 262.683594 10.050781 262.273438 10.457031 Z M 262.273438 10.457031 " fill-opacity="1" fill-rule="nonzero"/><path fill="#e09e50" d="M 98.734375 58.535156 C 98.957031 60.820312 96.140625 60.839844 96.1875 58.839844 C 96.328125 57.136719 98.117188 57.417969 98.734375 58.535156 Z M 98.734375 58.535156 " fill-opacity="1" fill-rule="nonzero"/><path fill="#e09e50" d="M 115.652344 85.210938 C 116.960938 86.132812 117.632812 87.507812 115.753906 88.015625 C 113.394531 87.925781 114.425781 86.304688 115.652344 85.210938 Z M 115.652344 85.210938 " fill-opacity="1" fill-rule="nonzero"/><path fill="#e09e50" d="M 378.144531 56.589844 C 376.925781 57.292969 376.054688 57.796875 374.855469 58.488281 C 375.371094 56.53125 376.707031 56.886719 378.144531 56.589844 Z M 378.144531 56.589844 " fill-opacity="1" fill-rule="nonzero"/><path fill="#e09e50" d="M 223.726562 21.546875 C 221.742188 21.273438 219.753906 19.621094 222.082031 18.691406 C 223.484375 19.230469 223.265625 19.75 223.726562 21.546875 Z M 223.726562 21.546875 " fill-opacity="1" fill-rule="nonzero"/><path fill="#e09e50" d="M 165.367188 100.738281 C 167.0625 100.550781 167.222656 102.179688 166.050781 102.832031 C 164.496094 103.1875 164.535156 101.515625 165.367188 100.738281 Z M 165.367188 100.738281 " fill-opacity="1" fill-rule="nonzero"/><path fill="#e09e50" d="M 242.894531 9.105469 C 241.457031 10.324219 240.523438 9.832031 239.175781 8.960938 C 240.585938 8.605469 241.53125 8.820312 242.894531 9.105469 Z M 242.894531 9.105469 " fill-opacity="1" fill-rule="nonzero"/><path fill="#e09e50" d="M 156.503906 25.945312 C 157.363281 25.414062 158.105469 24.953125 158.996094 24.402344 C 158.847656 26.597656 158.480469 26.820312 156.503906 25.945312 Z M 156.503906 25.945312 " fill-opacity="1" fill-rule="nonzero"/><path fill="#e09e50" d="M 257.027344 56.191406 C 257.558594 56.851562 257.46875 57.355469 256.785156 57.808594 C 254.601562 59.101562 254.636719 56.109375 257.027344 56.191406 Z M 257.027344 56.191406 " fill-opacity="1" fill-rule="nonzero"/><path fill="#e09e50" d="M 112.082031 31.414062 C 111.351562 30.347656 111.125 29.707031 112.183594 28.894531 C 113.90625 29.15625 113.324219 30.691406 112.082031 31.414062 Z M 112.082031 31.414062 " fill-opacity="1" fill-rule="nonzero"/><path fill="#e09e50" d="M 283.214844 11.640625 C 282.980469 13.035156 280.476562 12.519531 281.179688 11.0625 C 281.757812 9.953125 283.480469 10.140625 283.214844 11.640625 Z M 283.214844 11.640625 " fill-opacity="1" fill-rule="nonzero"/><path fill="#e09e50" d="M 273.894531 67.855469 C 272.648438 68.152344 272.066406 67.570312 271.65625 66.703125 C 272.222656 65.613281 273.53125 66.871094 273.894531 67.855469 Z M 273.894531 67.855469 " fill-opacity="1" fill-rule="nonzero"/><path fill="#e09e50" d="M 139.484375 27.984375 C 140.375 26.992188 141.863281 26.492188 141.941406 27.941406 C 141.375 29.417969 140.675781 28.75 139.484375 27.984375 Z M 139.484375 27.984375 " fill-opacity="1" fill-rule="nonzero"/><path fill="#e09e50" d="M 104.535156 78.25 C 105.195312 79.148438 105.859375 80.257812 104.464844 80.488281 C 102.785156 80.285156 103.363281 79.003906 104.535156 78.25 Z M 104.535156 78.25 " fill-opacity="1" fill-rule="nonzero"/><path fill="#e09e50" d="M 255.199219 12.433594 C 256.113281 13.570312 256.4375 14.085938 255.375 14.847656 C 253.71875 15.085938 254.492188 13.542969 255.199219 12.433594 Z M 255.199219 12.433594 " fill-opacity="1" fill-rule="nonzero"/><path fill="#e09e50" d="M 257.84375 68.214844 C 256.746094 69.175781 255.222656 69.597656 255.335938 67.820312 C 255.957031 66.378906 257.074219 67.066406 257.84375 68.214844 Z M 257.84375 68.214844 " fill-opacity="1" fill-rule="nonzero"/><path fill="#e09e50" d="M 143.726562 79.277344 C 142.871094 80.394531 142.300781 80.890625 141.492188 79.78125 C 141.15625 78.351562 142.695312 78.796875 143.726562 79.277344 Z M 143.726562 79.277344 " fill-opacity="1" fill-rule="nonzero"/><path fill="#e09e50" d="M 94.863281 15.375 C 93.960938 16.34375 93.203125 16.664062 92.78125 15.453125 C 93.15625 14.277344 93.902344 14.460938 94.863281 15.375 Z M 94.863281 15.375 " fill-opacity="1" fill-rule="nonzero"/><path fill="#e09e50" d="M 136.640625 77.890625 C 135.675781 76.875 135.402344 76.429688 136.636719 75.914062 C 137.746094 76.234375 137.175781 76.945312 136.640625 77.890625 Z M 136.640625 77.890625 " fill-opacity="1" fill-rule="nonzero"/><path fill="#e09e50" d="M 228.339844 15.542969 C 229.175781 14.570312 229.808594 14.144531 230.589844 15.167969 C 230.679688 16.71875 229.320312 16.617188 228.339844 15.542969 Z M 228.339844 15.542969 " fill-opacity="1" fill-rule="nonzero"/><path fill="#e09e50" d="M 151.753906 64.914062 C 152.964844 64.425781 151.363281 63.414062 152.332031 62.707031 C 153.257812 62.859375 154.417969 64.390625 152.832031 64.582031 C 152.492188 64.5625 151.703125 64.265625 151.753906 64.914062 Z M 151.753906 64.914062 " fill-opacity="1" fill-rule="nonzero"/><path fill="#e09e50" d="M 241.667969 66.066406 C 241.183594 66.679688 240.464844 66.484375 239.773438 66.496094 C 239.488281 65.320312 241.339844 65.125 241.667969 66.066406 Z M 241.667969 66.066406 " fill-opacity="1" fill-rule="nonzero"/><path fill="#e09e50" d="M 274.082031 20.078125 C 273.308594 18.921875 273.992188 18.191406 274.878906 19.265625 C 274.65625 19.492188 274.433594 19.71875 274.082031 20.078125 Z M 274.082031 20.078125 " fill-opacity="1" fill-rule="nonzero"/><path fill="#e09e50" d="M 232.769531 12.335938 C 231.753906 11.597656 231.507812 10.851562 232.589844 10.367188 C 233.8125 10.617188 233.632812 11.402344 232.769531 12.335938 Z M 232.769531 12.335938 " fill-opacity="1" fill-rule="nonzero"/><path fill="#e09e50" d="M 245.941406 60.828125 C 244.816406 61.609375 244.21875 60.835938 245.222656 60.007812 C 245.429688 60.242188 245.632812 60.480469 245.941406 60.828125 Z M 245.941406 60.828125 " fill-opacity="1" fill-rule="nonzero"/><path fill="#e09e50" d="M 263.84375 59.398438 C 263.25 59.605469 262.816406 60.019531 262.542969 59.199219 C 263.132812 58.859375 263.40625 58.609375 263.84375 59.398438 Z M 263.84375 59.398438 " fill-opacity="1" fill-rule="nonzero"/><path fill="#e09e50" d="M 288.957031 69.1875 C 289.382812 68.285156 290.691406 68.078125 290.578125 69.175781 C 290.132812 70.023438 289.625 69.914062 288.957031 69.1875 Z M 288.957031 69.1875 " fill-opacity="1" fill-rule="nonzero"/><path fill="#e09e50" d="M 341.933594 52.691406 C 341.015625 53.050781 340.117188 53.863281 339.777344 52.5625 C 340.101562 51.378906 341.359375 51.476562 341.933594 52.691406 Z M 341.933594 52.691406 " fill-opacity="1" fill-rule="nonzero"/><path fill="#e09e50" d="M 61.578125 28.671875 C 62.238281 28.457031 61.941406 27.933594 62.015625 27.496094 C 62.066406 27.1875 62.402344 26.929688 62.808594 26.378906 C 63.242188 26.726562 63.59375 27.007812 64.261719 27.542969 C 62.929688 28.074219 62.234375 28.355469 61.539062 28.632812 C 61.539062 28.632812 61.578125 28.671875 61.578125 28.671875 Z M 61.578125 28.671875 " fill-opacity="1" fill-rule="nonzero"/><path fill="#e09e50" d="M 294.542969 14.507812 C 293.5 13.453125 293.878906 13.203125 294.851562 12.714844 C 295.886719 13.199219 295.285156 13.886719 294.542969 14.507812 Z M 294.542969 14.507812 " fill-opacity="1" fill-rule="nonzero"/><path fill="#e09e50" d="M 295.238281 23.019531 C 294.257812 24.164062 293.902344 24.421875 293.160156 23.242188 C 293.460938 22.234375 294.1875 22.566406 295.238281 23.019531 Z M 295.238281 23.019531 " fill-opacity="1" fill-rule="nonzero"/><path fill="#e09e50" d="M 149.683594 88.679688 C 148.746094 89.308594 148.609375 88.507812 148.238281 87.8125 C 149.007812 87.171875 150.09375 87.449219 149.683594 88.679688 Z M 149.683594 88.679688 " fill-opacity="1" fill-rule="nonzero"/><path fill="#e09e50" d="M 329.261719 62.0625 C 328.398438 62.742188 328.0625 63.195312 327.351562 62.195312 C 328.070312 61.339844 328.199219 61.007812 329.261719 62.0625 Z M 329.261719 62.0625 " fill-opacity="1" fill-rule="nonzero"/><path fill="#e09e50" d="M 121.777344 24.964844 C 121.585938 24.859375 121.390625 24.753906 121.199219 24.652344 C 121.398438 24.433594 121.597656 24.21875 121.796875 24.003906 C 122.28125 24.375 122.277344 24.613281 121.777344 24.964844 Z M 121.777344 24.964844 " fill-opacity="1" fill-rule="nonzero"/><path fill="#e09e50" d="M 89.234375 56.191406 C 88.582031 56.464844 88.234375 56.683594 87.867188 56.71875 C 86.859375 55.765625 88.214844 54.875 89.234375 56.191406 Z M 89.234375 56.191406 " fill-opacity="1" fill-rule="nonzero"/><path fill="#e09e50" d="M 325.757812 55.960938 C 324.992188 56.40625 324.566406 57.171875 324 56.464844 C 323.761719 55.238281 324.746094 55.273438 325.757812 55.960938 Z M 325.757812 55.960938 " fill-opacity="1" fill-rule="nonzero"/><path fill="#e09e50" d="M 114.835938 58.210938 C 113.429688 60.21875 112.46875 58.589844 113.660156 58.328125 C 114.089844 58.433594 114.507812 58.855469 114.875 58.234375 C 114.875 58.234375 114.835938 58.210938 114.835938 58.210938 Z M 114.835938 58.210938 " fill-opacity="1" fill-rule="nonzero"/><path fill="#e09e50" d="M 100.722656 63.84375 C 99.777344 63.253906 100.015625 63.199219 100.449219 62.539062 C 101.355469 62.878906 101.25 63.226562 100.722656 63.84375 Z M 100.722656 63.84375 " fill-opacity="1" fill-rule="nonzero"/><path fill="#e09e50" d="M 264.332031 61.421875 C 265.097656 61.847656 264.796875 62.105469 264.460938 62.652344 C 263.636719 62.371094 264.097656 61.980469 264.332031 61.421875 Z M 264.332031 61.421875 " fill-opacity="1" fill-rule="nonzero"/><path fill="#e09e50" d="M 146.582031 64.171875 C 146.8125 63.957031 147.234375 63.746094 147.242188 63.523438 C 147.121094 62.65625 147.886719 62.199219 148.472656 62.871094 C 148.226562 64.230469 147.109375 62.945312 146.539062 64.128906 C 146.539062 64.128906 146.582031 64.171875 146.582031 64.171875 Z M 146.582031 64.171875 " fill-opacity="1" fill-rule="nonzero"/><path fill="#e09e50" d="M 116.4375 75.378906 C 116 76.042969 114.574219 76.335938 114.804688 75.09375 C 115.078125 74.152344 116.398438 73.925781 116.4375 75.378906 Z M 116.4375 75.378906 " fill-opacity="1" fill-rule="nonzero"/><path fill="#e09e50" d="M 202.710938 71.1875 C 201.65625 71.933594 199.910156 72.074219 201.476562 70.886719 C 201.628906 70.808594 201.902344 70.976562 202.710938 71.1875 Z M 202.710938 71.1875 " fill-opacity="1" fill-rule="nonzero"/><path fill="#e09e50" d="M 185.871094 70.664062 C 185.683594 70.578125 185.492188 70.488281 185.304688 70.402344 C 185.503906 70.199219 185.703125 69.992188 185.902344 69.789062 C 186.046875 69.945312 186.191406 70.101562 186.335938 70.257812 C 186.179688 70.394531 186.027344 70.527344 185.871094 70.664062 Z M 185.871094 70.664062 " fill-opacity="1" fill-rule="nonzero"/><path fill="#e09e50" d="M 206.5625 75.796875 C 207.332031 76.425781 207.175781 77.621094 206.152344 77.328125 C 205.5 76.695312 205.707031 76.226562 206.5625 75.796875 Z M 206.5625 75.796875 " fill-opacity="1" fill-rule="nonzero"/><path fill="#e09e50" d="M 280.453125 29.957031 C 280.550781 29.046875 279.46875 27.269531 280.671875 26.964844 C 281.847656 27.285156 280.835938 29.046875 280.953125 29.953125 C 280.785156 29.953125 280.617188 29.957031 280.453125 29.957031 Z M 280.453125 29.957031 " fill-opacity="1" fill-rule="nonzero"/><path fill="#e09e50" d="M 302.832031 59.027344 C 302.738281 58.996094 302.644531 58.964844 302.550781 58.933594 C 302.710938 58.722656 302.726562 58.3125 303.058594 58.554688 C 302.984375 58.710938 302.90625 58.871094 302.832031 59.027344 Z M 302.832031 59.027344 " fill-opacity="1" fill-rule="nonzero"/><path fill="#e09e50" d="M 266.992188 11.59375 C 267.671875 12.113281 267.921875 12.636719 267.15625 12.996094 C 266.246094 12.839844 266.429688 12.296875 266.992188 11.59375 Z M 266.992188 11.59375 " fill-opacity="1" fill-rule="nonzero"/><g clip-path="url(#2d22d35db5)"><g clip-path="url(#965de509ed)"><path fill="#e09e50" d="M 45.570312 31.226562 L 67.035156 31.226562 L 67.035156 52.691406 L 45.570312 52.691406 Z M 45.570312 31.226562 " fill-opacity="1" fill-rule="nonzero"/></g></g></svg>