<svg width="635" height="300" viewBox="0 0 635 300" fill="none" xmlns="http://www.w3.org/2000/svg">
<g filter="url(#filter0_d_709_142)">
<path fill-rule="evenodd" clip-rule="evenodd" d="M598.206 147.271L599.295 142.133C599.658 133.229 597.48 124.667 588.77 119.872C585.503 118.16 579.696 117.132 573.526 117.475C576.792 109.598 577.881 100.693 575.341 92.1311C571.711 79.1169 561.912 67.815 547.757 64.7327C541.587 63.3627 535.054 63.7052 528.521 65.4176C526.706 56.5131 521.988 48.9785 514.729 42.8139C506.019 35.6218 495.493 34.5943 486.783 38.3616C479.887 23.9774 462.828 14.0455 446.496 15.0729C436.697 15.7579 422.905 22.265 417.824 31.1695H415.646C409.113 24.3199 399.314 19.5252 390.24 19.8677C382.255 19.8677 375.359 23.635 370.641 29.4571C364.471 25.3474 356.123 22.6075 346.687 21.9225C346.001 21.9225 345.235 21.8462 344.426 21.7656C343.522 21.6755 342.564 21.5801 341.606 21.5801C329.629 21.5801 312.207 25.0049 300.956 34.5943C294.06 22.95 280.994 16.4429 264.662 16.4429C253.774 16.4429 242.885 19.1827 233.812 24.6624C224.375 30.8271 217.117 39.7316 213.124 50.006C193.162 48.6361 169.934 72.6097 167.756 91.7887C167.393 94.5285 168.119 97.6108 169.208 101.378C163.764 102.406 159.046 105.488 155.779 110.283C152.513 115.077 151.061 121.242 151.061 127.407C141.262 125.694 130.736 128.092 122.026 134.256C101.338 148.298 98.4344 169.874 105.693 191.451C106.573 194.217 107.689 196.537 108.851 198.951C109.127 199.525 109.407 200.105 109.686 200.698C102.79 210.972 106.419 227.754 115.856 235.973C123.047 242.54 134.241 244.07 145.648 242.173C147.967 245.719 151.508 248.954 155.426 251.242C158.318 265.56 126.856 259.132 112.394 256.178C110.221 255.734 108.431 255.368 107.2 255.163C106.474 255.026 105.739 254.885 104.997 254.743C97.2449 253.255 88.7111 251.617 80.8698 252.81C77.821 253.072 76.9895 256.209 78.6525 258.3C79.1854 258.887 80.4012 259.876 81.6892 260.923C84.4205 263.145 87.4757 265.631 85.0272 265.098L64.24 260.392C52.8764 257.777 25.4373 254.379 16.291 265.098C11.8564 272.156 19.8941 271.633 24.6058 269.542C25.7975 269.092 27.1942 268.836 28.4434 268.607C28.6468 268.569 28.8463 268.533 29.0404 268.496C31.3387 267.905 33.7946 267.759 36.2892 267.612C37.1038 267.563 37.9224 267.515 38.7411 267.45C45.9473 266.928 53.1535 268.235 60.3597 269.542C68.1594 271.091 75.655 273.5 83.1843 275.92C85.8222 276.768 88.4641 277.617 91.1248 278.431C99.1625 280.261 111.912 282.875 112.743 273.202C112.743 272.702 112.339 271.936 111.962 271.222C111.354 270.07 110.819 269.057 112.189 269.542C115.449 270.526 118.709 271.684 121.998 272.851C125.7 274.166 129.438 275.493 133.253 276.601C150.715 281.829 168.73 287.058 187.3 284.182C197.001 282.613 206.979 275.816 206.424 265.359C206.369 264.736 206.314 264.133 206.242 263.549C229.917 276.175 265.671 281.793 299.504 247.96C302.045 245.563 304.586 242.823 306.4 240.083H307.126C313.659 246.59 324.91 251.385 332.169 253.44C348.865 258.234 368.463 250.015 381.166 237.343L381.167 237.343C383.344 238.713 385.522 240.083 388.062 241.11C392.781 244.193 397.862 246.248 401.491 246.933C415.646 249.33 431.615 243.165 442.504 232.891C446.859 238.028 452.303 242.138 457.384 244.535C467.184 248.987 479.524 247.618 490.412 243.165C491.501 245.22 492.953 246.933 494.404 247.96C505.656 257.892 521.988 251.727 532.876 243.508C545.216 250.357 558.282 248.987 571.348 243.508C581.148 239.398 590.584 228.096 591.31 217.822C591.673 214.397 591.31 211.657 590.584 209.26C602.561 204.465 612.724 198.3 617.805 185.971C623.249 170.217 612.361 154.12 598.206 147.271Z" fill="white"/>
</g>
<defs>
<filter id="filter0_d_709_142" x="0" y="0" width="634.233" height="300" filterUnits="userSpaceOnUse" color-interpolation-filters="sRGB">
<feFlood flood-opacity="0" result="BackgroundImageFix"/>
<feColorMatrix in="SourceAlpha" type="matrix" values="0 0 0 0 0 0 0 0 0 0 0 0 0 0 0 0 0 0 127 0" result="hardAlpha"/>
<feOffset/>
<feGaussianBlur stdDeviation="7.5"/>
<feComposite in2="hardAlpha" operator="out"/>
<feColorMatrix type="matrix" values="0 0 0 0 0 0 0 0 0 0 0 0 0 0 0 0 0 0 0.25 0"/>
<feBlend mode="normal" in2="BackgroundImageFix" result="effect1_dropShadow_709_142"/>
<feBlend mode="normal" in="SourceGraphic" in2="effect1_dropShadow_709_142" result="shape"/>
</filter>
</defs>
</svg>
